<svg width="1300" height="801" viewBox="0 0 1300 801" fill="none" xmlns="http://www.w3.org/2000/svg">
<path d="M1060.59 784.246L1042.72 612.769L1023.97 784.246H985.863L964.428 590.739H986.756L1005.51 766.086L1024.86 590.739H1060.29L1080.23 766.086L1098.69 590.739H1120.42L1098.69 784.246H1060.59Z" fill="#0085FF"/>
<rect x="-1.5" y="1.5" width="267.639" height="267.639" transform="matrix(-1 0 0 1 1174.75 530.079)" stroke="#0085FF" stroke-width="3"/>
<rect width="60.142" height="45.1065" transform="matrix(-1 0 0 1 1072.5 530.079)" fill="#0085FF"/>
<path d="M817.504 783.654L804.711 711.435L791.918 783.654H765.507L750.857 649.533H766.332L779.332 773.13L793.156 700.086H816.679L830.916 773.13L843.916 649.533H858.978L843.916 783.654H817.504Z" fill="#0085FF"/>
<rect x="-1.5" y="1.5" width="184.581" height="184.581" transform="matrix(-1 0 0 1 895.708 613.088)" stroke="#0085FF" stroke-width="3"/>
<rect width="41.6846" height="31.2635" transform="matrix(-1 0 0 1 825.76 613.088)" fill="#0085FF"/>
<rect x="-1.5" y="1.5" width="110.855" height="110.855" transform="matrix(-1 0 0 1 1297 686.863)" stroke="#0085FF" stroke-width="3"/>
<rect width="25.3011" height="18.9758" transform="matrix(-1 0 0 1 1255.72 686.863)" fill="#0085FF"/>
<rect x="-0.5" y="0.5" width="26.0639" height="24.1974" transform="matrix(-1 0 0 1 1219.67 769.921)" stroke="#0085FF"/>
<rect x="-0.5" y="0.5" width="26.0639" height="24.1974" transform="matrix(-1 0 0 1 1249.54 769.921)" stroke="#0085FF"/>
<path d="M381.18 744.798C381.18 763.596 396.419 778.835 415.217 778.835C434.015 778.835 449.254 763.596 449.254 744.798C449.254 726 434.015 710.761 415.217 710.761C396.419 710.761 381.18 726 381.18 744.798Z" stroke="#0085FF" stroke-width="3"/>
<path d="M415.217 779.571V709.816" stroke="#0085FF" stroke-width="3"/>
<path d="M449.158 744.798H380.652" stroke="#0085FF" stroke-width="3"/>
<path d="M424.934 711.76C435.811 738.61 435.756 753.103 424.934 777.975" stroke="#0085FF" stroke-width="3"/>
<path d="M405.5 711.76C394.622 738.61 394.677 753.103 405.5 777.975" stroke="#0085FF" stroke-width="3"/>
<path d="M442.355 723.42C420.845 733.277 409.012 733.24 388.286 723.42" stroke="#0085FF" stroke-width="3"/>
<path d="M442.008 766.197C420.498 756.34 408.665 756.377 387.939 766.197" stroke="#0085FF" stroke-width="3"/>
<rect x="-1.5" y="1.5" width="344.164" height="344.164" transform="matrix(-1 0 0 1 699.728 453.553)" stroke="#0085FF" stroke-width="3"/>
<rect width="77.1476" height="57.8607" transform="matrix(-1 0 0 1 567.719 453.553)" fill="#0085FF"/>
<rect x="-1" y="1" width="91.3238" height="86.6576" transform="matrix(-1 0 0 1 458.086 700.861)" stroke="#0085FF" stroke-width="2"/>
<rect x="-1" y="1" width="91.3238" height="86.6576" transform="matrix(-1 0 0 1 560.742 700.861)" stroke="#0085FF" stroke-width="2"/>
<path d="M535.678 713.927L552.999 743.927H518.358L535.678 713.927ZM532.678 775.52V740.927H538.678V775.52H532.678Z" fill="#0085FF"/>
<path d="M497.416 713.927L514.736 743.927H480.095L497.416 713.927ZM494.416 775.52V740.927H500.416V775.52H494.416Z" fill="#0085FF"/>
<rect x="-1.5" y="1.5" width="344.164" height="344.164" transform="matrix(-1 0 0 1 344.165 453.553)" stroke="#0085FF" stroke-width="3"/>
<rect width="77.1476" height="57.8607" transform="matrix(-1 0 0 1 212.156 453.553)" fill="#0085FF"/>
<path d="M175.492 756.749C191.531 756.749 204.515 750.512 214.444 738.037C224.627 725.562 229.719 704.559 229.719 675.026C222.845 683.173 214.698 689.411 205.278 693.739C195.859 698.067 185.93 700.231 175.492 700.231C165.308 700.231 155.634 698.194 146.469 694.12C137.558 690.047 129.793 684.192 123.174 676.554C116.555 668.916 111.208 659.497 107.135 648.295C103.316 637.093 101.407 624.491 101.407 610.489C101.407 596.486 103.316 583.884 107.135 572.682C111.208 561.481 116.555 552.061 123.174 544.423C129.793 536.786 137.558 530.93 146.469 526.857C155.634 522.783 165.308 520.747 175.492 520.747C185.93 520.747 195.859 522.911 205.278 527.239C214.698 531.567 222.718 537.804 229.337 545.951C229.082 542.386 228.955 538.95 228.955 535.64C228.955 532.076 228.955 528.384 228.955 524.565H259.506C259.251 537.04 259.124 549.26 259.124 561.226C259.124 573.192 259.124 585.157 259.124 597.123V674.263C259.124 695.139 256.832 712.578 252.25 726.58C247.922 740.837 241.812 752.166 233.92 760.568C226.027 768.969 216.735 774.952 206.042 778.516C195.604 782.335 184.275 784.244 172.055 784.244C156.27 784.244 142.141 781.317 129.666 775.461C117.446 769.86 107.644 762.223 100.261 752.548L126.993 736.891C132.594 743.765 139.468 748.729 147.614 751.785C155.761 755.094 165.054 756.749 175.492 756.749ZM182.747 548.242C169 548.242 157.161 553.97 147.233 565.427C137.558 576.628 132.721 591.649 132.721 610.489C132.721 629.328 137.558 644.476 147.233 655.932C157.161 667.134 169 672.735 182.747 672.735C196.241 672.735 207.952 667.134 217.881 655.932C227.809 644.476 232.774 629.328 232.774 610.489C232.774 591.649 227.809 576.628 217.881 565.427C207.952 553.97 196.241 548.242 182.747 548.242Z" fill="#0085FF"/>
<rect x="224.544" y="260.007" width="183.648" height="183.648" stroke="#0085FF" stroke-width="3"/>
<rect x="295.629" y="258.507" width="41.4772" height="31.1079" fill="#0085FF"/>
<path d="M315.341 359.651C311.508 359.651 307.95 359.24 304.665 358.419C301.38 357.461 298.368 356.229 295.631 354.724C292.62 356.092 290.293 357.666 288.65 359.446C287.008 361.088 286.186 362.936 286.186 364.989C286.186 367.453 287.076 369.369 288.856 370.738C290.635 371.97 292.962 372.586 295.836 372.586H337.515C347.096 372.586 354.829 374.981 360.715 379.772C366.6 384.562 369.543 391.338 369.543 400.098C369.543 408.036 367.764 414.333 364.205 418.986C360.646 423.777 356.13 427.404 350.655 429.868C345.18 432.332 339.089 433.906 332.382 434.59C325.812 435.411 319.447 435.822 313.288 435.822C306.581 435.822 300.285 435.343 294.399 434.385C288.513 433.564 283.381 432.058 279.001 429.868C274.621 427.815 271.13 424.872 268.53 421.039C266.066 417.344 264.834 412.622 264.834 406.873C264.834 401.809 266.066 397.497 268.53 393.938C270.993 390.38 273.936 387.3 277.358 384.699C274.757 382.92 272.704 380.593 271.199 377.719C269.693 374.844 268.94 371.628 268.94 368.069C268.94 363.005 270.514 358.693 273.662 355.134C276.947 351.439 281.122 348.359 286.186 345.895C284.407 343.295 283.038 340.42 282.08 337.272C281.122 333.987 280.643 330.497 280.643 326.801C280.643 317.083 283.86 309.213 290.293 303.19C296.726 297.168 305.075 294.156 315.341 294.156C320.679 294.156 325.538 294.978 329.918 296.62C334.298 298.263 337.994 300.521 341.005 303.396C343.605 300.384 346.48 298.126 349.628 296.62C352.913 294.978 356.061 294.156 359.072 294.156C363.726 294.156 367.422 294.978 370.159 296.62C373.034 298.126 375.155 299.631 376.524 301.137L368.106 311.608C366.737 310.65 365.232 309.897 363.589 309.35C362.084 308.665 360.51 308.323 358.867 308.323C357.225 308.323 355.514 308.939 353.734 310.171C351.955 311.403 350.175 313.114 348.396 315.304C348.944 317.083 349.354 318.931 349.628 320.847C350.039 322.763 350.244 324.748 350.244 326.801C350.244 336.656 347.027 344.595 340.594 350.617C334.161 356.64 325.743 359.651 315.341 359.651ZM315.341 344.047C320.816 344.047 325.196 342.473 328.481 339.325C331.903 336.04 333.614 331.866 333.614 326.801C333.614 321.737 331.903 317.631 328.481 314.482C325.196 311.334 320.816 309.76 315.341 309.76C309.866 309.76 305.486 311.334 302.201 314.482C299.053 317.631 297.479 321.737 297.479 326.801C297.479 331.866 299.053 336.04 302.201 339.325C305.486 342.473 309.866 344.047 315.341 344.047ZM281.259 405.025C281.259 411.321 283.996 415.359 289.471 417.139C295.083 418.918 304.117 419.808 316.573 419.808C321.226 419.808 325.675 419.602 329.918 419.192C334.298 418.918 338.13 418.165 341.415 416.933C344.7 415.838 347.301 414.127 349.217 411.8C351.27 409.61 352.297 406.599 352.297 402.767C352.16 398.113 350.655 394.623 347.78 392.296C345.043 389.832 340.731 388.6 334.845 388.6H290.703C287.008 391.611 284.544 394.417 283.312 397.018C282.08 399.619 281.396 402.288 281.259 405.025Z" fill="#0085FF"/>
<rect x="-1.5" y="1.5" width="110.855" height="110.855" transform="matrix(-1 0 0 1 374.961 136.253)" stroke="#0085FF" stroke-width="3"/>
<rect width="25.3011" height="18.9758" transform="matrix(-1 0 0 1 333.684 136.253)" fill="#0085FF"/>
<rect x="-0.5" y="0.5" width="26.0639" height="24.1974" transform="matrix(-1 0 0 1 297.636 219.311)" stroke="#0085FF"/>
<rect x="-0.5" y="0.5" width="26.0639" height="24.1974" transform="matrix(-1 0 0 1 327.5 219.311)" stroke="#0085FF"/>
<path d="M559.926 368.063H525.537L498.3 270.947V435.467H477.116V256.64H515.907L543.419 352.932L570.656 256.64H609.173V435.467H587.988V272.047L559.926 368.063Z" fill="#0085FF"/>
<rect x="-1.5" y="1.5" width="247.108" height="247.108" transform="matrix(-1 0 0 1 665.198 195.047)" stroke="#0085FF" stroke-width="3"/>
<rect width="55.5795" height="41.6846" transform="matrix(-1 0 0 1 570.934 195.047)" fill="#0085FF"/>
<path d="M782.922 592L801.299 552.1L760 459H778.377L809.994 532.448L842.401 459H859L799.916 592H782.922Z" fill="#0085FF"/>
<rect x="-1.5" y="1.5" width="183.648" height="183.648" transform="matrix(-1 0 0 1 895.708 418.09)" stroke="#0085FF" stroke-width="3"/>
<rect width="41.4772" height="31.1079" transform="matrix(-1 0 0 1 826.122 418.09)" fill="#0085FF"/>
<path d="M958.771 497.908C961.837 497.908 964.301 496.868 966.162 494.788C968.133 492.817 970.269 489.258 972.568 484.111L976.346 475.57L941.853 398.044H957.129L983.573 459.145L1010.67 398.044H1024.47L983.573 489.86C980.616 496.54 977.277 501.467 973.554 504.643C969.94 507.928 965.013 509.625 958.771 509.734C951.544 509.734 946.233 507.763 942.839 503.821C939.444 499.879 937.747 495.116 937.747 489.532C937.747 486.794 938.021 484.549 938.568 482.797C939.116 481.045 939.828 479.458 940.704 478.034L950.559 481.483C950.011 482.578 949.573 483.728 949.245 484.933C948.916 486.247 948.752 487.451 948.752 488.546C948.752 491.065 949.573 493.255 951.216 495.116C952.858 496.978 955.377 497.908 958.771 497.908Z" fill="#0085FF"/>
<rect x="-1.5" y="1.5" width="146.318" height="146.318" transform="matrix(-1 0 0 1 1053.42 372.362)" stroke="#0085FF" stroke-width="3"/>
<rect width="33.1818" height="24.8863" transform="matrix(-1 0 0 1 998.357 372.362)" fill="#0085FF"/>
<rect x="-1.5" y="1.5" width="211.645" height="211.645" transform="matrix(-1 0 0 1 888.242 195.047)" stroke="#0085FF" stroke-width="3"/>
<rect width="47.6988" height="35.7741" transform="matrix(-1 0 0 1 807.769 195.047)" fill="#0085FF"/>
<rect x="-0.75" y="0.75" width="56.2002" height="53.3152" transform="matrix(-1 0 0 1 739.721 347.952)" stroke="#0085FF" stroke-width="1.5"/>
<rect x="-0.75" y="0.75" width="56.2002" height="53.3152" transform="matrix(-1 0 0 1 803.192 347.952)" stroke="#0085FF" stroke-width="1.5"/>
<path d="M775.2 354.63H762.455V369.854C762.455 375.195 766.876 377.572 773.023 380.336V392.087H766.106V395.693H784.487V392.087H777.25V380.336C783.064 378.352 788.586 376.731 788.586 369.854V354.63H780.9V356.233L778.787 361.374H784.487L773.855 374.26L777.25 364.579H771.486L775.2 356.233V354.63Z" stroke="#0085FF" stroke-linejoin="round"/>
<path d="M700.795 370.117V360.528H697.264V359.297H705.638V360.528H702.108V370.117H700.795Z" fill="#0085FF"/>
<path d="M708.489 370.117H707.192L710.525 359.297H712.068L715.401 370.117H714.072L713.168 367.087H709.392L708.489 370.117ZM709.77 365.855H712.791L711.28 360.778L709.77 365.855Z" fill="#0085FF"/>
<path d="M716.955 359.297H718.416L721.191 363.475L723.769 359.297H725.197L721.93 364.574L725.608 370.117H724.097L721.043 365.489L718.17 370.117H716.692L720.288 364.341L716.955 359.297Z" fill="#0085FF"/>
<path d="M694.329 390.093V379.273H701.57V380.505H695.642V384.167H699.566V385.399H695.642V390.093H694.329Z" fill="#0085FF"/>
<path d="M703.32 390.093V379.273H707.589C708.432 379.273 709.132 379.528 709.691 380.039C710.26 380.538 710.545 381.204 710.545 382.036C710.545 382.869 710.337 383.551 709.921 384.084C709.505 384.605 709.018 384.938 708.459 385.083L710.906 390.093H709.379L707.047 385.166H704.634V390.093H703.32ZM707.031 380.505H704.634V383.934H707.523C707.961 383.934 708.344 383.762 708.673 383.418C709.012 383.063 709.182 382.63 709.182 382.119C709.182 381.609 708.979 381.215 708.574 380.938C708.169 380.649 707.655 380.505 707.031 380.505Z" fill="#0085FF"/>
<path d="M719.946 388.861V390.093H713.297V379.273H719.881V380.505H714.61V383.784H718.699V385.016H714.61V388.861H719.946Z" fill="#0085FF"/>
<path d="M729.792 388.861V390.093H723.142V379.273H729.726V380.505H724.455V383.784H728.544V385.016H724.455V388.861H729.792Z" fill="#0085FF"/>
<path d="M664.354 169.849H640.948L619.801 48.9203V169.849H603.992V36.3962H633.351L653.472 156.093L673.387 36.3962H702.542V169.849H686.733V49.5362L664.354 169.849Z" fill="#0085FF"/>
<rect x="-1.5" y="1.5" width="183.648" height="183.648" transform="matrix(-1 0 0 1 743.59 0)" stroke="#0085FF" stroke-width="3"/>
<rect width="41.4772" height="31.1079" transform="matrix(-1 0 0 1 674.005 0)" fill="#0085FF"/>
</svg>
