<svg width="635" height="543" viewBox="0 0 635 543" fill="none" xmlns="http://www.w3.org/2000/svg">
<path d="M97.7625 175.956C92.6455 166.471 99.715 155.004 110.488 155.315L456.427 165.3C467.199 165.611 473.596 177.468 467.94 186.642L286.323 481.241C280.667 490.415 267.201 490.026 262.084 480.541L97.7625 175.956Z" fill="#0085FF"/>
<path fill-rule="evenodd" clip-rule="evenodd" d="M456.398 166.3L110.459 156.314C100.456 156.026 93.8911 166.674 98.6426 175.482L262.964 480.066C267.716 488.874 280.22 489.235 285.472 480.716L467.089 186.117C472.341 177.598 466.401 166.589 456.398 166.3ZM110.488 155.315C99.715 155.004 92.6455 166.471 97.7625 175.956L262.084 480.541C267.201 490.026 280.667 490.415 286.323 481.241L467.94 186.642C473.596 177.468 467.199 165.611 456.427 165.3L110.488 155.315Z" fill="white"/>
<path fill-rule="evenodd" clip-rule="evenodd" d="M386.175 207.136L178.206 201.133C170.511 200.911 165.462 209.102 169.117 215.877L267.902 398.985C271.557 405.76 281.176 406.037 285.215 399.484L394.398 222.38C398.438 215.827 393.869 207.358 386.175 207.136ZM178.235 200.134C169.771 199.889 164.216 208.9 168.236 216.352L267.022 399.46C271.042 406.912 281.623 407.217 286.067 400.009L395.25 222.905C399.693 215.697 394.668 206.381 386.203 206.137L178.235 200.134Z" fill="white"/>
<path fill-rule="evenodd" clip-rule="evenodd" d="M452.366 172.411L114.131 162.648C107.206 162.448 102.661 169.82 105.951 175.917L266.613 473.718C269.902 479.816 278.559 480.066 282.195 474.168L459.767 186.13C463.403 180.233 459.291 172.611 452.366 172.411ZM114.189 160.649C105.725 160.404 100.17 169.414 104.19 176.867L264.852 474.668C268.873 482.121 279.453 482.426 283.897 475.218L461.47 187.18C465.913 179.972 460.888 170.656 452.423 170.412L114.189 160.649Z" fill="white"/>
<path fill-rule="evenodd" clip-rule="evenodd" d="M385.698 212.296L178.352 206.311C174.505 206.199 171.98 210.295 173.808 213.682L272.297 396.241C274.125 399.629 278.934 399.768 280.954 396.491L389.809 219.917C391.829 216.641 389.545 212.407 385.698 212.296ZM178.41 204.311C173.024 204.156 169.489 209.89 172.047 214.632L270.537 397.191C273.095 401.933 279.828 402.128 282.656 397.541L391.512 220.967C394.34 216.38 391.142 210.452 385.755 210.296L178.41 204.311Z" fill="white"/>
<path d="M234.37 238.295L263.218 256.08C263.518 256.264 263.892 256.278 264.204 256.116L307.768 233.485C315.473 229.97 323.286 234.94 317.154 239.272L280.208 264.909C279.616 265.32 279.64 266.203 280.253 266.581L309.595 284.671C309.876 284.844 310.224 284.867 310.526 284.733L323.419 279.01C328.588 277.19 333.019 285.762 326.145 289.033L316.852 293.872C316.692 293.955 316.557 294.08 316.462 294.234L312.628 300.454C312.549 300.582 312.5 300.727 312.484 300.878L311.237 313.215C310.388 318.531 304.204 318.056 303.294 311.655L301.538 299.316C301.496 299.022 301.326 298.762 301.073 298.606L272.249 280.836C271.64 280.461 270.846 280.827 270.736 281.533L263.858 325.722C262.907 332.007 255.433 326.105 255.646 320.659L255.135 270.833C255.131 270.49 254.952 270.173 254.66 269.992L225.798 252.2C218.172 247.498 226.157 233.232 234.37 238.295Z" fill="white"/>
<path d="M266.236 414.632L267.173 416.378L250.401 419.6L249.287 417.523L261.243 405.328L262.204 407.118L258.834 410.492L261.562 415.575L266.236 414.632ZM259.654 415.944L257.472 411.878L251.823 417.528L259.654 415.944Z" fill="white"/>
<path d="M252.971 393.839L254.606 392.962L259.588 402.243L257.952 403.121L255.936 399.364L244.842 405.317L246.859 409.074L245.223 409.952L240.242 400.67L241.878 399.793L243.894 403.55L254.987 397.596L252.971 393.839Z" fill="white"/>
<path d="M252.192 388.462L237.827 396.171L234.744 390.425C234.135 389.291 233.968 388.166 234.242 387.051C234.494 385.929 235.173 385.072 236.277 384.479C237.382 383.886 238.439 383.679 239.446 383.86C240.439 384.048 241.233 384.466 241.828 385.115L246.712 378.252L247.815 380.308L242.958 386.956L244.702 390.205L251.243 386.694L252.192 388.462ZM236.782 390.299L238.514 393.525L243.066 391.082L240.979 387.193C240.663 386.604 240.158 386.21 239.464 386.014C238.747 385.81 238.05 385.89 237.372 386.254C236.695 386.617 236.318 387.171 236.242 387.913C236.152 388.664 236.332 389.459 236.782 390.299Z" fill="white"/>
<path d="M229.626 359.408L231.108 362.17L224.481 368.545L237.696 361.452L238.61 363.154L224.245 370.863L222.573 367.747L229.122 361.386L220.213 363.349L218.553 360.255L232.917 352.547L233.83 354.248L220.703 361.293L229.626 359.408Z" fill="white"/>
<path d="M230.68 348.379L231.617 350.124L214.845 353.347L213.73 351.27L225.687 339.075L226.648 340.865L223.278 344.239L226.006 349.322L230.68 348.379ZM224.098 349.691L221.915 345.625L216.266 351.275L224.098 349.691Z" fill="white"/>
<path d="M217.415 327.586L219.05 326.708L224.031 335.99L222.396 336.867L220.38 333.111L209.286 339.064L211.302 342.821L209.667 343.699L204.686 334.417L206.321 333.54L208.337 337.296L219.431 331.343L217.415 327.586Z" fill="white"/>
<path d="M209.924 313.628L211.559 312.75L216.315 321.612L201.951 329.321L201.002 327.553L213.731 320.722L209.924 313.628Z" fill="white"/>
<path d="M188.119 269.074L173.755 276.782L170.624 270.948C170.007 269.799 169.888 268.658 170.267 267.525C170.631 266.4 171.387 265.529 172.536 264.912C173.229 264.541 173.907 264.319 174.571 264.248C175.22 264.184 175.827 264.237 176.393 264.408C176.959 264.579 177.468 264.856 177.921 265.239C178.365 265.608 178.722 266.043 178.991 266.544L181.137 270.543L187.17 267.306L188.119 269.074ZM172.473 270.469L174.441 274.137L179.502 271.421L177.545 267.775C177.189 267.112 176.631 266.672 175.869 266.454C175.084 266.23 174.338 266.308 173.631 266.687C172.895 267.083 172.421 267.631 172.209 268.333C171.997 269.035 172.085 269.747 172.473 270.469Z" fill="white"/>
<path d="M179.094 251.727C179.537 252.552 179.767 253.405 179.785 254.287C179.795 255.155 179.607 256.006 179.219 256.84C178.832 257.674 178.26 258.464 177.504 259.212C176.733 259.967 175.795 260.642 174.69 261.235C173.585 261.828 172.505 262.237 171.449 262.462C170.378 262.694 169.389 262.742 168.479 262.604C167.57 262.465 166.757 262.152 166.04 261.664C165.315 261.162 164.731 260.498 164.288 259.673C163.845 258.848 163.619 258.001 163.608 257.134C163.59 256.252 163.775 255.394 164.162 254.56C164.55 253.725 165.136 252.927 165.922 252.164C166.693 251.408 167.631 250.734 168.736 250.141C169.841 249.548 170.921 249.139 171.977 248.914C173.018 248.697 173.993 248.657 174.902 248.796C175.812 248.934 176.629 249.254 177.354 249.757C178.071 250.245 178.651 250.902 179.094 251.727ZM177.415 252.628C176.822 251.523 175.82 250.912 174.41 250.796C172.986 250.688 171.427 251.088 169.732 251.997C168.023 252.914 166.82 253.996 166.123 255.243C165.426 256.49 165.374 257.666 165.967 258.771C166.56 259.876 167.569 260.483 168.993 260.591C170.418 260.7 171.985 260.295 173.694 259.378C175.388 258.469 176.583 257.391 177.281 256.144C177.963 254.905 178.008 253.733 177.415 252.628Z" fill="white"/>
<path d="M173.355 244.798L171.188 244.367C171.36 243.592 171.355 242.751 171.171 241.843C170.965 240.929 170.621 240.023 170.139 239.124C169.593 238.107 168.941 237.404 168.182 237.015C167.422 236.625 166.674 236.628 165.938 237.024C165.186 237.427 164.834 238.062 164.882 238.928C164.907 239.788 165.1 241.05 165.463 242.715C165.825 244.38 165.932 245.746 165.783 246.813C165.634 247.879 164.985 248.721 163.836 249.338C163.188 249.685 162.542 249.861 161.899 249.865C161.248 249.854 160.634 249.7 160.057 249.402C159.465 249.112 158.922 248.702 158.428 248.17C157.911 247.631 157.463 247.008 157.083 246.301C156.696 245.579 156.384 244.769 156.149 243.871C155.899 242.98 155.873 241.96 156.072 240.81L158.001 241.169C157.853 241.989 157.857 242.774 158.013 243.525C158.155 244.284 158.407 245.003 158.771 245.68C159.277 246.623 159.884 247.294 160.591 247.692C161.29 248.076 162.015 248.066 162.767 247.663C163.518 247.26 163.894 246.669 163.894 245.891C163.886 245.098 163.747 244.063 163.478 242.784C163.323 242.07 163.179 241.341 163.045 240.597C162.911 239.853 162.865 239.147 162.905 238.48C162.946 237.813 163.1 237.199 163.368 236.638C163.636 236.077 164.087 235.626 164.72 235.286C165.501 234.867 166.255 234.662 166.98 234.671C167.684 234.673 168.339 234.833 168.947 235.153C169.554 235.472 170.121 235.926 170.647 236.517C171.15 237.101 171.599 237.761 171.995 238.498C172.516 239.47 172.928 240.502 173.229 241.593C173.515 242.692 173.557 243.76 173.355 244.798Z" fill="white"/>
<path d="M165.125 226.228L152.396 233.059L154.946 237.81L153.311 238.688L147.262 227.418L148.897 226.54L151.447 231.291L164.176 224.46L165.125 226.228Z" fill="white"/>
<path d="M179.789 188.857L181.238 187.189C181.826 187.724 182.559 188.136 183.438 188.427C184.334 188.702 185.292 188.853 186.311 188.88C187.465 188.911 188.399 188.693 189.114 188.227C189.829 187.761 190.197 187.11 190.219 186.274C190.242 185.422 189.865 184.801 189.09 184.413C188.331 184.008 187.139 183.55 185.513 183.038C183.888 182.526 182.649 181.942 181.797 181.283C180.944 180.625 180.536 179.644 180.57 178.34C180.59 177.605 180.758 176.957 181.074 176.397C181.406 175.837 181.845 175.38 182.39 175.027C182.935 174.657 183.561 174.389 184.268 174.224C184.992 174.042 185.755 173.962 186.557 173.984C187.376 174.005 188.234 174.137 189.131 174.378C190.028 174.603 190.927 175.087 191.827 175.83L190.558 177.326C189.92 176.791 189.236 176.405 188.506 176.168C187.777 175.914 187.028 175.777 186.259 175.757C185.189 175.729 184.306 175.922 183.609 176.339C182.929 176.756 182.578 177.39 182.555 178.243C182.532 179.095 182.859 179.714 183.534 180.1C184.226 180.487 185.194 180.88 186.438 181.281C187.135 181.501 187.839 181.737 188.552 181.99C189.264 182.243 189.9 182.553 190.459 182.919C191.018 183.285 191.475 183.723 191.829 184.235C192.183 184.746 192.351 185.361 192.332 186.08C192.308 186.965 192.113 187.721 191.745 188.347C191.394 188.957 190.929 189.446 190.351 189.815C189.772 190.185 189.096 190.451 188.323 190.614C187.566 190.761 186.77 190.824 185.934 190.802C184.831 190.772 183.731 190.618 182.635 190.338C181.539 190.041 180.59 189.547 179.789 188.857Z" fill="white"/>
<path d="M196.486 190.831L196.919 174.535L203.538 174.711C204.842 174.746 205.892 175.209 206.688 176.1C207.484 176.974 207.865 178.063 207.83 179.366C207.809 180.152 207.665 180.851 207.398 181.462C207.131 182.057 206.783 182.558 206.354 182.965C205.925 183.372 205.432 183.676 204.875 183.879C204.334 184.082 203.78 184.176 203.212 184.161L198.674 184.04L198.492 190.885L196.486 190.831ZM203.038 176.554L198.876 176.444L198.723 182.185L202.86 182.295C203.612 182.315 204.271 182.048 204.838 181.495C205.422 180.925 205.724 180.239 205.746 179.436C205.768 178.601 205.527 177.917 205.023 177.385C204.518 176.853 203.857 176.576 203.038 176.554Z" fill="white"/>
<path d="M221.772 189.647L221.723 191.503L211.569 191.233L212.002 174.936L222.056 175.204L222.007 177.059L213.959 176.845L213.827 181.784L220.07 181.95L220.021 183.805L213.778 183.639L213.624 189.431L221.772 189.647Z" fill="white"/>
<path d="M238.396 181.183L236.518 181.986C236.339 180.526 235.852 179.359 235.055 178.485C234.276 177.611 233.318 177.159 232.181 177.129C230.827 177.093 229.717 177.657 228.85 178.821C227.983 179.969 227.524 181.496 227.473 183.401C227.447 184.387 227.532 185.293 227.727 186.118C227.923 186.926 228.214 187.628 228.599 188.223C228.986 188.802 229.45 189.258 229.993 189.59C230.553 189.923 231.167 190.098 231.836 190.116C232.922 190.145 233.868 189.785 234.674 189.037C235.497 188.29 236.043 187.267 236.312 185.97L238.035 187.195C237.576 188.721 236.784 189.921 235.656 190.794C234.546 191.651 233.256 192.06 231.785 192.021C230.799 191.995 229.91 191.771 229.119 191.348C228.327 190.909 227.657 190.314 227.109 189.563C226.56 188.796 226.141 187.89 225.851 186.845C225.562 185.784 225.434 184.618 225.468 183.348C225.5 182.111 225.689 180.987 226.034 179.976C226.379 178.948 226.845 178.082 227.433 177.379C228.02 176.675 228.72 176.134 229.533 175.754C230.346 175.374 231.246 175.197 232.232 175.223C233.82 175.266 235.16 175.828 236.251 176.911C237.36 177.977 238.075 179.401 238.396 181.183Z" fill="white"/>
<path d="M251.412 190.436L251.363 192.291L240.833 192.011L240.882 190.156L245.144 190.269L245.479 177.683L241.217 177.57L241.266 175.715L251.796 175.995L251.747 177.85L247.485 177.736L247.15 190.322L251.412 190.436Z" fill="white"/>
<path d="M256.843 192.437L254.863 192.384L260.386 176.223L262.742 176.286L267.398 192.717L265.368 192.663L264.11 188.064L258.344 187.91L256.843 192.437ZM258.97 186.07L263.583 186.193L261.48 178.485L258.97 186.07Z" fill="white"/>
<path d="M282.28 191.257L282.231 193.112L272.177 192.844L272.611 176.548L274.616 176.601L274.232 191.042L282.28 191.257Z" fill="white"/>
<path d="M300.053 192.055L301.502 190.388C302.09 190.922 302.823 191.335 303.702 191.626C304.598 191.9 305.556 192.051 306.575 192.078C307.728 192.109 308.662 191.891 309.377 191.425C310.092 190.959 310.461 190.308 310.483 189.473C310.506 188.62 310.129 188 309.353 187.611C308.595 187.206 307.403 186.748 305.777 186.236C304.152 185.725 302.913 185.14 302.06 184.482C301.208 183.823 300.799 182.842 300.834 181.539C300.854 180.803 301.021 180.155 301.337 179.595C301.67 179.035 302.109 178.579 302.653 178.225C303.198 177.855 303.824 177.587 304.531 177.422C305.255 177.241 306.018 177.161 306.821 177.182C307.64 177.204 308.498 177.335 309.394 177.577C310.292 177.801 311.19 178.285 312.09 179.028L310.821 180.525C310.183 179.989 309.499 179.603 308.77 179.366C308.041 179.113 307.291 178.976 306.523 178.955C305.453 178.927 304.57 179.121 303.873 179.537C303.193 179.954 302.841 180.589 302.819 181.441C302.796 182.293 303.122 182.913 303.798 183.299C304.49 183.685 305.458 184.079 306.702 184.48C307.399 184.699 308.103 184.935 308.816 185.188C309.528 185.441 310.164 185.751 310.723 186.117C311.282 186.483 311.738 186.922 312.093 187.433C312.447 187.944 312.615 188.559 312.596 189.278C312.572 190.164 312.376 190.92 312.008 191.545C311.658 192.155 311.193 192.644 310.615 193.014C310.036 193.383 309.36 193.649 308.586 193.813C307.83 193.96 307.034 194.022 306.198 194C305.095 193.971 303.995 193.816 302.898 193.536C301.802 193.239 300.854 192.746 300.053 192.055Z" fill="white"/>
<path d="M327.003 192.446L326.954 194.301L316.8 194.031L317.233 177.735L327.287 178.002L327.237 179.857L319.19 179.643L319.058 184.582L325.301 184.748L325.252 186.604L319.009 186.438L318.855 192.229L327.003 192.446Z" fill="white"/>
<path d="M331.632 194.426L332.066 178.129L338.584 178.303C339.871 178.337 340.931 178.75 341.763 179.541C342.612 180.317 343.02 181.331 342.986 182.584C342.953 183.838 342.608 184.858 341.952 185.643C341.296 186.412 340.538 186.893 339.68 187.088L343.215 194.734L340.884 194.672L337.521 187.156L333.835 187.058L333.638 194.479L331.632 194.426ZM337.682 180.135L334.022 180.038L333.885 185.203L338.297 185.32C338.966 185.338 339.558 185.094 340.073 184.589C340.605 184.068 340.882 183.423 340.902 182.654C340.922 181.886 340.629 181.284 340.022 180.85C339.415 180.399 338.635 180.161 337.682 180.135Z" fill="white"/>
<path d="M352.933 194.992L349.624 194.904L345.394 178.484L347.575 178.542L351.395 193.396L355.999 178.766L358.08 178.821L352.933 194.992Z" fill="white"/>
<path d="M371.676 193.634L371.626 195.489L361.096 195.209L361.146 193.354L365.408 193.467L365.743 180.881L361.48 180.768L361.53 178.913L372.06 179.193L372.01 181.048L367.748 180.935L367.414 193.521L371.676 193.634Z" fill="white"/>
<path d="M388.725 185.181L386.847 185.984C386.669 184.524 386.181 183.357 385.385 182.483C384.605 181.609 383.647 181.157 382.511 181.127C381.157 181.091 380.046 181.655 379.179 182.819C378.312 183.967 377.854 185.494 377.803 187.399C377.777 188.385 377.861 189.291 378.057 190.116C378.253 190.924 378.544 191.625 378.929 192.221C379.315 192.8 379.78 193.256 380.323 193.588C380.883 193.921 381.497 194.096 382.165 194.114C383.252 194.143 384.198 193.783 385.004 193.035C385.827 192.288 386.372 191.265 386.641 189.968L388.365 191.193C387.906 192.719 387.113 193.919 385.986 194.792C384.876 195.649 383.586 196.058 382.115 196.019C381.129 195.993 380.24 195.768 379.448 195.346C378.657 194.907 377.987 194.312 377.438 193.561C376.89 192.794 376.471 191.888 376.181 190.843C375.891 189.782 375.763 188.616 375.797 187.346C375.83 186.109 376.019 184.985 376.364 183.974C376.709 182.946 377.175 182.08 377.762 181.377C378.35 180.673 379.05 180.131 379.863 179.752C380.676 179.372 381.575 179.195 382.561 179.221C384.149 179.264 385.489 179.826 386.581 180.909C387.69 181.975 388.405 183.399 388.725 185.181Z" fill="white"/>
<path d="M402.168 194.445L402.118 196.3L391.965 196.03L392.398 179.734L402.452 180.001L402.402 181.856L394.354 181.642L394.223 186.581L400.466 186.747L400.416 188.603L394.174 188.437L394.02 194.228L402.168 194.445Z" fill="white"/>
<path d="M303.067 412.706L304.647 413.679L299.316 422.326L285.439 413.771L290.717 405.21L292.297 406.184L288.072 413.037L292.278 415.63L295.555 410.314L297.135 411.288L293.858 416.604L298.789 419.644L303.067 412.706Z" fill="white"/>
<path d="M292.318 402.614L293.489 400.714L301.072 400.409L297.78 393.754L298.925 391.896L303.073 400.317L313.131 399.918L311.92 401.882L303.537 402.194L307.169 409.589L305.984 411.51L301.458 402.268L292.318 402.614Z" fill="white"/>
<path d="M315.074 396.766L301.197 388.211L304.671 382.575C305.356 381.465 306.283 380.789 307.453 380.548C308.609 380.298 309.742 380.515 310.852 381.2C311.521 381.612 312.053 382.088 312.448 382.626C312.829 383.155 313.087 383.707 313.224 384.283C313.36 384.858 313.376 385.437 313.272 386.021C313.176 386.59 312.979 387.117 312.68 387.601L310.298 391.465L316.126 395.058L315.074 396.766ZM306.014 383.933L303.829 387.477L308.718 390.491L310.89 386.969C311.285 386.328 311.385 385.624 311.191 384.856C310.991 384.065 310.549 383.459 309.866 383.038C309.155 382.599 308.442 382.464 307.729 382.633C307.016 382.803 306.444 383.236 306.014 383.933Z" fill="white"/>
<path d="M322.886 384.093L309.009 375.538L312.431 369.987C313.107 368.892 313.996 368.182 315.098 367.86C316.195 367.515 317.277 367.671 318.344 368.329C319.412 368.987 320.12 369.798 320.47 370.76C320.806 371.713 320.842 372.609 320.58 373.449L328.967 374.23L327.743 376.215L319.555 375.351L317.62 378.489L323.939 382.385L322.886 384.093ZM313.564 371.687L311.642 374.804L316.04 377.516L318.357 373.758C318.707 373.189 318.794 372.555 318.616 371.856C318.433 371.134 318.013 370.571 317.359 370.167C316.704 369.764 316.036 369.715 315.356 370.023C314.661 370.321 314.064 370.876 313.564 371.687Z" fill="white"/>
<path d="M334.634 361.501L336.214 362.475L330.883 371.121L317.006 362.566L322.284 354.005L323.864 354.979L319.639 361.832L323.845 364.425L327.122 359.109L328.702 360.083L325.425 365.399L330.357 368.439L334.634 361.501Z" fill="white"/>
<path d="M336.552 359.012L335.837 356.921C336.594 356.681 337.319 356.254 338.012 355.64C338.699 355.003 339.31 354.25 339.845 353.382C340.451 352.4 340.732 351.483 340.687 350.631C340.643 349.778 340.265 349.133 339.554 348.694C338.828 348.247 338.102 348.261 337.376 348.737C336.645 349.19 335.651 349.991 334.392 351.14C333.134 352.289 332.006 353.067 331.009 353.473C330.012 353.88 328.958 353.741 327.848 353.057C327.222 352.671 326.746 352.2 326.42 351.646C326.103 351.077 325.928 350.469 325.896 349.82C325.849 349.163 325.932 348.487 326.144 347.793C326.35 347.075 326.664 346.375 327.085 345.692C327.515 344.995 328.059 344.319 328.718 343.664C329.363 343.001 330.233 342.467 331.327 342.061L331.984 343.91C331.201 344.193 330.524 344.591 329.953 345.103C329.367 345.606 328.873 346.185 328.469 346.84C327.908 347.751 327.632 348.612 327.642 349.424C327.661 350.221 328.034 350.844 328.76 351.291C329.486 351.739 330.185 351.767 330.858 351.377C331.54 350.972 332.366 350.332 333.337 349.458C333.877 348.966 334.434 348.475 335.011 347.986C335.588 347.496 336.174 347.102 336.772 346.802C337.369 346.503 337.978 346.328 338.598 346.278C339.218 346.228 339.834 346.392 340.446 346.769C341.2 347.234 341.755 347.783 342.112 348.415C342.463 349.024 342.653 349.672 342.682 350.358C342.711 351.043 342.602 351.762 342.355 352.513C342.103 353.241 341.757 353.961 341.318 354.673C340.739 355.612 340.053 356.486 339.261 357.294C338.454 358.093 337.551 358.665 336.552 359.012Z" fill="white"/>
<path d="M344.443 346.211L343.729 344.12C344.486 343.88 345.211 343.452 345.903 342.839C346.591 342.202 347.202 341.449 347.737 340.581C348.343 339.599 348.623 338.682 348.579 337.829C348.535 336.977 348.157 336.332 347.445 335.893C346.719 335.445 345.994 335.46 345.268 335.936C344.537 336.388 343.543 337.189 342.284 338.339C341.026 339.488 339.898 340.266 338.901 340.672C337.904 341.079 336.85 340.94 335.74 340.256C335.114 339.87 334.638 339.399 334.312 338.845C333.994 338.276 333.82 337.667 333.787 337.019C333.741 336.362 333.823 335.686 334.035 334.992C334.242 334.274 334.556 333.574 334.977 332.891C335.407 332.194 335.951 331.518 336.61 330.863C337.255 330.2 338.124 329.665 339.219 329.26L339.876 331.109C339.093 331.392 338.416 331.79 337.845 332.302C337.259 332.805 336.765 333.384 336.361 334.039C335.8 334.95 335.524 335.811 335.534 336.623C335.553 337.42 335.926 338.043 336.652 338.49C337.377 338.938 338.077 338.966 338.75 338.576C339.431 338.171 340.258 337.531 341.229 336.657C341.768 336.164 342.326 335.674 342.903 335.184C343.479 334.695 344.066 334.301 344.663 334.001C345.261 333.702 345.869 333.527 346.489 333.477C347.109 333.427 347.725 333.591 348.337 333.968C349.092 334.433 349.647 334.982 350.004 335.614C350.355 336.223 350.545 336.871 350.574 337.557C350.603 338.242 350.494 338.961 350.247 339.712C349.994 340.44 349.649 341.16 349.21 341.872C348.631 342.811 347.945 343.685 347.152 344.492C346.346 345.291 345.443 345.864 344.443 346.211Z" fill="white"/>
<path d="M350.143 308.529C350.74 307.561 351.435 306.752 352.229 306.102C353.022 305.452 353.888 305.003 354.826 304.757C355.764 304.51 356.76 304.486 357.816 304.685C358.881 304.87 359.975 305.309 361.1 306.002C362.366 306.783 363.361 307.622 364.085 308.52C364.808 309.418 365.284 310.35 365.513 311.316C365.752 312.268 365.766 313.249 365.556 314.259C365.331 315.26 364.912 316.258 364.298 317.255C363.999 317.739 363.678 318.228 363.334 318.723C363.012 319.212 362.687 319.66 362.358 320.066L348.481 311.511C348.705 311.021 348.964 310.522 349.257 310.015C349.558 309.494 349.854 308.998 350.143 308.529ZM351.754 309.404C351.64 309.589 351.52 309.8 351.394 310.036C351.277 310.259 351.155 310.488 351.029 310.724L361.917 317.437C362.072 317.218 362.226 316.999 362.381 316.78C362.535 316.561 362.67 316.359 362.784 316.174C363.363 315.235 363.696 314.36 363.783 313.549C363.865 312.716 363.764 311.956 363.479 311.27C363.204 310.57 362.773 309.931 362.186 309.353C361.585 308.767 360.901 308.237 360.132 307.763C359.406 307.315 358.662 306.994 357.898 306.798C357.121 306.594 356.363 306.549 355.624 306.663C354.895 306.763 354.195 307.039 353.524 307.49C352.862 307.926 352.272 308.564 351.754 309.404Z" fill="white"/>
<path d="M374.093 297.495L375.673 298.469L370.342 307.115L356.465 298.56L361.743 289.999L363.323 290.973L359.098 297.827L363.304 300.419L366.581 295.103L368.161 296.077L364.884 301.393L369.815 304.434L374.093 297.495Z" fill="white"/>
<path d="M382.182 284.374L383.762 285.348L378.484 293.909L364.607 285.354L365.66 283.646L377.957 291.227L382.182 284.374Z" fill="white"/>
<path d="M389.653 272.256L391.233 273.23L385.705 282.196L384.125 281.222L386.362 277.593L375.645 270.986L373.408 274.615L371.828 273.641L377.356 264.675L378.935 265.649L376.698 269.278L387.415 275.885L389.653 272.256Z" fill="white"/>
<path d="M397.203 263.546L395.465 266.364L379.14 261.78L380.285 259.922L395.05 264.074L384.708 252.749L385.8 250.977L397.203 263.546Z" fill="white"/>
<path d="M405.66 246.29L407.24 247.264L401.909 255.911L388.032 247.356L393.31 238.795L394.89 239.769L390.665 246.622L394.871 249.215L398.148 243.899L399.728 244.873L396.451 250.189L401.383 253.229L405.66 246.29Z" fill="white"/>
<path d="M409.696 243.28L395.819 234.725L399.241 229.175C399.917 228.079 400.805 227.37 401.908 227.047C403.004 226.702 404.087 226.859 405.154 227.517C406.221 228.175 406.93 228.985 407.28 229.947C407.615 230.9 407.652 231.797 407.389 232.637L415.777 233.417L414.553 235.403L406.364 234.538L404.429 237.677L410.749 241.573L409.696 243.28ZM400.373 230.875L398.452 233.992L402.85 236.703L405.166 232.945C405.517 232.376 405.604 231.742 405.426 231.043C405.242 230.321 404.823 229.758 404.168 229.354C403.514 228.951 402.846 228.903 402.166 229.21C401.471 229.508 400.873 230.063 400.373 230.875Z" fill="white"/>
<path d="M419.509 227.362L413.425 223.611L402.605 223.718L403.79 221.796L412.406 221.775L408.528 214.111L409.712 212.189L414.478 221.903L420.562 225.654L419.509 227.362Z" fill="white"/>
<path d="M175.884 296.093L182.099 289.608L177.852 281.694L185.94 285.601L192.155 279.116L190.938 288.015L199.026 291.922L190.186 293.515L188.97 302.414L184.723 294.5L175.884 296.093Z" fill="white"/>
<path d="M138.237 186.458L146.965 188.578L151.679 180.932L152.36 189.888L161.088 192.008L152.78 195.423L153.461 204.379L147.646 197.534L139.339 200.949L144.052 193.303L138.237 186.458Z" fill="white"/>
<path d="M419.12 188.168L427.848 190.288L432.562 182.642L433.242 191.598L441.97 193.719L433.663 197.134L434.344 206.089L428.529 199.244L420.222 202.659L424.935 195.013L419.12 188.168Z" fill="white"/>
<path d="M267.763 433.683L276.491 435.803L281.205 428.158L281.885 437.114L290.613 439.234L282.306 442.649L282.987 451.605L277.172 444.759L268.865 448.174L273.578 440.529L267.763 433.683Z" fill="white"/>
<path d="M520.255 261.688C529.084 258.972 537.543 266.833 535.48 275.837L479.493 520.283C477.431 529.287 466.394 532.683 459.627 526.394L275.925 355.685C269.158 349.397 271.736 338.141 280.565 335.425L520.255 261.688Z" fill="#0085FF"/>
<path fill-rule="evenodd" clip-rule="evenodd" d="M519.961 260.733C529.526 257.79 538.689 266.305 536.455 276.06L480.468 520.506C478.234 530.261 466.278 533.939 458.947 527.127L275.244 356.418C267.913 349.605 270.706 337.412 280.271 334.469L519.961 260.733ZM534.506 275.614C536.396 267.36 528.642 260.154 520.549 262.644L280.859 336.381C272.766 338.871 270.402 349.188 276.605 354.953L460.308 525.662C466.511 531.426 476.628 528.314 478.519 520.06L534.506 275.614Z" fill="white"/>
<path fill-rule="evenodd" clip-rule="evenodd" d="M518.446 266.816C525.436 264.666 532.132 270.888 530.499 278.017L475.958 516.152C474.325 523.281 465.588 525.969 460.231 520.991L281.27 354.688C275.913 349.71 277.954 340.799 284.944 338.649L518.446 266.816ZM529.525 277.794C530.986 271.415 524.994 265.848 518.74 267.772L285.238 339.605C278.984 341.529 277.158 349.501 281.951 353.956L460.911 520.258C465.705 524.712 473.522 522.307 474.983 515.929L529.525 277.794Z" fill="white"/>
<path d="M501.201 300.652L492.483 310.032C492.242 310.292 492.156 310.66 492.258 311L497.703 329.178C498.496 332.414 496.011 335.012 494.789 332.314L487.973 316.934C487.682 316.278 486.815 316.132 486.326 316.658L478.068 325.545C477.841 325.789 477.751 326.13 477.826 326.454L479.018 331.539C479.342 333.666 475.716 334.68 474.956 331.782L473.816 327.988C473.765 327.818 473.669 327.664 473.539 327.543L471.64 325.778C471.531 325.677 471.401 325.601 471.259 325.557L466.724 324.133C464.737 323.382 465.371 321.049 467.905 321.212L472.498 321.507C472.798 321.526 473.09 321.409 473.295 321.189L481.426 312.44C481.91 311.918 481.71 311.071 481.043 310.822L465.359 304.966C463.006 304.099 465.826 301.705 467.909 302.222L486.814 305.945C487.154 306.012 487.504 305.899 487.74 305.645L496.467 296.253C498.835 293.705 503.751 297.907 501.201 300.652Z" fill="white"/>
<path d="M424.14 327.784L430.002 333.231L422.826 340.953C421.088 340.573 419.636 339.999 418.468 339.231C417.3 338.463 416.239 337.636 415.285 336.75C414.014 335.568 413.093 334.29 412.524 332.915C411.973 331.521 411.748 330.094 411.848 328.636C411.967 327.159 412.393 325.668 413.129 324.165C413.881 322.642 414.926 321.161 416.263 319.723C417.564 318.322 418.929 317.21 420.358 316.386C421.803 315.542 423.241 315.026 424.67 314.838C426.1 314.65 427.512 314.78 428.906 315.23C430.319 315.696 431.643 316.503 432.877 317.65C434.261 318.936 435.229 320.276 435.78 321.67C436.331 323.064 436.593 324.507 436.566 325.998L433.685 326.231C433.724 325.138 433.499 324.012 433.009 322.852C432.519 321.691 431.863 320.729 431.04 319.964C429.189 318.244 427.144 317.595 424.904 318.018C422.7 318.439 420.596 319.729 418.591 321.886C416.445 324.196 415.309 326.543 415.182 328.93C415.092 331.315 416.093 333.48 418.188 335.426C418.655 335.861 419.159 336.294 419.699 336.725C420.275 337.155 420.921 337.491 421.637 337.733L425.806 333.247L422.188 329.884L424.14 327.784Z" fill="white"/>
<path d="M426.224 346.386L443.373 327.932L450.666 334.709C452.106 336.047 452.898 337.595 453.042 339.352C453.223 341.107 452.654 342.694 451.335 344.114C450.016 345.533 448.579 346.367 447.024 346.615C445.487 346.845 444.127 346.639 442.945 345.999L439.183 358.428L436.574 356.004L440.401 343.9L436.278 340.068L428.468 348.472L426.224 346.386ZM447.76 335.924L443.665 332.119L438.23 337.967L443.167 342.554C443.914 343.25 444.842 343.564 445.948 343.499C447.09 343.432 448.066 342.963 448.875 342.092C449.684 341.222 449.963 340.228 449.711 339.112C449.476 337.977 448.826 336.914 447.76 335.924Z" fill="white"/>
<path d="M443.463 362.406L441.248 360.347L464.09 347.184L466.727 349.634L455.272 373.379L453 371.268L456.259 364.667L449.808 358.673L443.463 362.406ZM452.405 357.171L457.566 361.967L463.032 350.91L452.405 357.171Z" fill="white"/>
<path d="M473.734 386.62L471.782 388.721L458.374 376.262L460.327 374.161L484.201 369.788L474.412 360.691L476.365 358.59L488.762 370.111L486.81 372.212L462.991 376.638L473.734 386.62Z" fill="white"/>
<path d="M397.125 358.89L396.186 358.017L405.78 352.532L406.898 353.57L402.13 363.541L401.167 362.646L402.524 359.874L399.789 357.333L397.125 358.89ZM400.88 356.708L403.068 358.741L405.344 354.098L400.88 356.708Z" fill="white"/>
<path d="M410.069 366.598L415.096 361.189L416.047 362.073L411.054 367.446C410.369 368.184 409.575 368.561 408.672 368.579C407.777 368.589 406.945 368.236 406.176 367.522C405.407 366.808 404.995 366.004 404.939 365.11C404.891 364.208 405.209 363.389 405.894 362.652L410.888 357.278L411.839 358.162L406.812 363.571C406.392 364.023 406.204 364.528 406.247 365.085C406.291 365.642 406.554 366.145 407.038 366.595C407.521 367.044 408.042 367.27 408.601 367.272C409.16 367.275 409.65 367.05 410.069 366.598Z" fill="white"/>
<path d="M411.14 370.562L412.558 370.373C412.615 370.883 412.794 371.397 413.096 371.915C413.414 372.431 413.814 372.914 414.298 373.363C414.845 373.872 415.391 374.165 415.938 374.245C416.484 374.324 416.942 374.166 417.31 373.77C417.686 373.366 417.768 372.903 417.558 372.383C417.362 371.862 416.98 371.129 416.409 370.185C415.839 369.242 415.487 368.428 415.355 367.744C415.223 367.059 415.444 366.408 416.018 365.79C416.342 365.441 416.701 365.199 417.094 365.062C417.495 364.932 417.903 364.898 418.319 364.959C418.742 365.013 419.161 365.15 419.574 365.373C420.004 365.594 420.408 365.882 420.789 366.235C421.177 366.596 421.538 367.027 421.87 367.528C422.209 368.021 422.439 368.64 422.558 369.386L421.302 369.57C421.221 369.037 421.054 368.557 420.801 368.13C420.555 367.695 420.25 367.308 419.886 366.969C419.378 366.498 418.866 366.214 418.35 366.118C417.841 366.029 417.399 366.187 417.024 366.592C416.648 366.996 416.542 367.436 416.705 367.912C416.876 368.396 417.177 369.001 417.61 369.728C417.854 370.132 418.095 370.549 418.333 370.976C418.571 371.404 418.747 371.826 418.862 372.243C418.976 372.66 419.011 373.068 418.964 373.468C418.917 373.868 418.736 374.238 418.419 374.579C418.029 374.999 417.61 375.282 417.164 375.429C416.733 375.575 416.298 375.614 415.859 375.545C415.42 375.477 414.978 375.318 414.532 375.066C414.102 374.814 413.689 374.504 413.293 374.135C412.769 373.649 412.302 373.104 411.889 372.499C411.484 371.886 411.234 371.24 411.14 370.562Z" fill="white"/>
<path d="M420.068 380.21L426.431 373.362L423.875 370.987L424.693 370.107L430.756 375.741L429.939 376.621L427.383 374.246L421.019 381.094L420.068 380.21Z" fill="white"/>
<path d="M425.461 385.221L432.642 377.494L435.733 380.366C436.343 380.933 436.681 381.587 436.746 382.327C436.827 383.067 436.591 383.734 436.039 384.328C435.486 384.923 434.883 385.27 434.228 385.371C433.581 385.463 433.007 385.373 432.507 385.101L430.953 390.325L429.848 389.298L431.43 384.21L429.682 382.586L426.412 386.105L425.461 385.221ZM434.511 380.87L432.775 379.257L430.499 381.706L432.592 383.651C432.909 383.945 433.3 384.08 433.767 384.055C434.248 384.03 434.658 383.835 434.997 383.471C435.336 383.106 435.45 382.688 435.341 382.218C435.24 381.739 434.963 381.29 434.511 380.87Z" fill="white"/>
<path d="M438.115 395.341L437.297 396.22L432.304 391.58L433.121 390.701L435.143 392.579L440.689 386.611L438.667 384.732L439.485 383.853L444.478 388.493L443.661 389.373L441.64 387.494L436.094 393.463L438.115 395.341Z" fill="white"/>
<path d="M439.896 398.636L438.957 397.763L448.551 392.278L449.669 393.316L444.901 403.287L443.938 402.392L445.295 399.62L442.561 397.079L439.896 398.636ZM443.652 396.454L445.839 398.487L448.115 393.844L443.652 396.454Z" fill="white"/>
<path fill-rule="evenodd" clip-rule="evenodd" d="M481.517 452.152L348.365 328.417L349.045 327.685L482.198 451.419L481.517 452.152Z" fill="#0085FF"/>
<path d="M319.887 359.062L322.063 358.196C322.167 358.345 322.298 358.507 322.458 358.683C322.632 358.871 322.842 359.079 323.087 359.307C323.765 359.937 324.545 360.515 325.428 361.041C326.324 361.553 327.235 361.918 328.161 362.136C329.1 362.341 330.024 362.344 330.934 362.146C331.857 361.934 332.685 361.433 333.419 360.644C333.992 360.027 334.3 359.363 334.342 358.653C334.411 357.942 334.056 357.224 333.277 356.5C332.945 356.192 332.568 355.975 332.147 355.851C331.752 355.725 331.27 355.651 330.699 355.629L329.51 355.607L329.362 353.423L339.028 353.74L332.038 347.245L333.519 345.652L342.651 354.138L341.17 355.731L334.662 355.661C334.79 355.726 334.918 355.805 335.047 355.898C335.19 356.004 335.319 356.111 335.435 356.218C336.214 356.942 336.624 357.845 336.667 358.928C336.737 360.009 336.272 361.089 335.272 362.165C334.338 363.17 333.288 363.852 332.12 364.211C330.953 364.571 329.754 364.674 328.525 364.521C327.309 364.354 326.099 363.965 324.893 363.353C323.702 362.754 322.616 361.999 321.635 361.087C321.289 360.765 320.956 360.429 320.636 360.079C320.317 359.728 320.067 359.39 319.887 359.062Z" fill="white"/>
<path d="M338.072 376.362C337.265 375.611 336.682 374.749 336.324 373.774C335.98 372.813 335.864 371.796 335.975 370.722C336.085 369.648 336.418 368.552 336.972 367.436C337.539 366.304 338.323 365.201 339.323 364.124C340.323 363.048 341.367 362.185 342.453 361.537C343.553 360.874 344.635 360.448 345.698 360.259C346.76 360.07 347.784 360.111 348.767 360.383C349.766 360.669 350.669 361.187 351.476 361.938C352.284 362.689 352.86 363.545 353.204 364.506C353.562 365.48 353.685 366.505 353.574 367.578C353.464 368.652 353.118 369.762 352.537 370.908C351.97 372.039 351.186 373.143 350.186 374.219C349.186 375.295 348.142 376.158 347.056 376.806C345.982 377.441 344.914 377.852 343.851 378.041C342.789 378.231 341.758 378.182 340.76 377.897C339.776 377.624 338.88 377.113 338.072 376.362ZM341.076 365.753C340.502 366.37 340.005 366.992 339.585 367.618C339.193 368.242 338.876 368.858 338.636 369.464L351.354 366.799C351.371 366.146 351.27 365.531 351.053 364.954C350.85 364.391 350.518 363.895 350.056 363.466C348.945 362.434 347.564 362.127 345.912 362.545C344.275 362.976 342.663 364.045 341.076 365.753ZM339.493 374.834C340.041 375.343 340.666 375.669 341.366 375.812C342.081 375.968 342.824 375.95 343.595 375.757C344.379 375.55 345.178 375.182 345.991 374.654C346.832 374.125 347.646 373.437 348.433 372.59C348.993 371.987 349.47 371.387 349.864 370.79C350.271 370.179 350.588 369.577 350.815 368.986L338.179 371.647C338.176 372.259 338.282 372.839 338.498 373.387C338.714 373.936 339.046 374.418 339.493 374.834Z" fill="white"/>
<path d="M342.574 386.603L341.922 384.353L373.366 375.339L374.017 377.589L342.574 386.603Z" fill="white"/>
<path d="M364.023 400.477C363.215 399.727 362.632 398.864 362.274 397.889C361.931 396.928 361.815 395.911 361.925 394.837C362.036 393.763 362.368 392.668 362.922 391.551C363.49 390.42 364.273 389.316 365.274 388.239C366.274 387.163 367.317 386.3 368.404 385.652C369.504 384.989 370.585 384.563 371.648 384.374C372.711 384.185 373.734 384.226 374.718 384.499C375.716 384.784 376.619 385.302 377.427 386.053C378.235 386.804 378.811 387.66 379.154 388.621C379.512 389.595 379.636 390.62 379.525 391.694C379.414 392.767 379.069 393.877 378.488 395.023C377.921 396.154 377.137 397.258 376.137 398.334C375.136 399.411 374.093 400.273 373.006 400.922C371.933 401.556 370.865 401.967 369.802 402.157C368.739 402.346 367.709 402.297 366.711 402.012C365.727 401.74 364.831 401.228 364.023 400.477ZM367.026 389.868C366.453 390.485 365.956 391.107 365.536 391.733C365.143 392.358 364.827 392.973 364.587 393.579L377.305 390.915C377.321 390.261 377.221 389.646 377.003 389.069C376.801 388.507 376.468 388.011 376.007 387.582C374.896 386.549 373.515 386.242 371.863 386.66C370.226 387.091 368.614 388.16 367.026 389.868ZM365.444 398.949C365.992 399.458 366.616 399.784 367.317 399.927C368.032 400.084 368.775 400.065 369.546 399.872C370.33 399.665 371.129 399.297 371.942 398.769C372.783 398.24 373.597 397.552 374.384 396.705C374.944 396.102 375.421 395.503 375.815 394.905C376.221 394.294 376.538 393.692 376.765 393.101L364.13 395.762C364.126 396.374 364.232 396.954 364.449 397.503C364.665 398.051 364.996 398.533 365.444 398.949Z" fill="white"/>
<path d="M379.622 414.572L377.891 412.963L381.092 409.519L375.033 403.888L376.413 402.403L390.181 398.306L392.626 400.578L384.204 409.642L387.666 412.859L386.285 414.345L382.823 411.127L379.622 414.572ZM378.231 404.092L382.472 408.033L389.214 400.778L378.231 404.092Z" fill="white"/>
<path d="M381.5 422.776L380.848 420.526L412.292 411.511L412.943 413.761L381.5 422.776Z" fill="white"/>
<path d="M408.451 441.361L398.41 432.031C399.17 431.213 399.953 430.602 400.757 430.2C401.561 429.797 402.364 429.54 403.166 429.43C403.982 429.305 404.794 429.284 405.603 429.367C406.441 429.45 407.252 429.575 408.037 429.743C408.807 429.898 409.55 430.053 410.265 430.209C410.995 430.379 411.68 430.481 412.321 430.514C412.976 430.561 413.578 430.506 414.128 430.348C414.692 430.204 415.195 429.895 415.635 429.422C416.048 428.977 416.308 428.509 416.414 428.019C416.52 427.529 416.522 427.05 416.42 426.581C416.332 426.125 416.156 425.693 415.889 425.285C415.638 424.891 415.36 424.553 415.057 424.271C414.12 423.4 413.053 422.971 411.858 422.984C410.691 422.996 409.721 423.418 408.947 424.25L407.281 422.702C407.854 422.085 408.531 421.603 409.309 421.257C410.101 420.896 410.914 420.702 411.747 420.673C412.607 420.644 413.468 420.788 414.328 421.107C415.202 421.41 416.021 421.917 416.786 422.628C417.377 423.178 417.854 423.808 418.215 424.518C418.577 425.228 418.793 425.951 418.863 426.685C418.948 427.432 418.873 428.179 418.638 428.923C418.417 429.653 418.019 430.327 417.446 430.944C416.846 431.59 416.203 432.05 415.519 432.323C414.849 432.61 414.147 432.773 413.412 432.812C412.704 432.85 411.972 432.799 411.216 432.658C410.474 432.53 409.725 432.382 408.968 432.213C407.692 431.937 406.439 431.722 405.21 431.57C403.981 431.417 402.85 431.636 401.817 432.227L409.931 439.768L408.451 441.361Z" fill="white"/>
<path d="M415.925 448.708C415.117 447.957 414.534 447.094 414.176 446.12C413.832 445.159 413.716 444.141 413.827 443.067C413.937 441.993 414.27 440.898 414.824 439.781C415.391 438.65 416.175 437.546 417.175 436.47C418.175 435.393 419.219 434.531 420.305 433.882C421.405 433.219 422.487 432.793 423.55 432.604C424.612 432.415 425.636 432.457 426.619 432.729C427.618 433.014 428.521 433.533 429.329 434.283C430.136 435.034 430.712 435.89 431.056 436.851C431.414 437.826 431.537 438.85 431.426 439.924C431.316 440.998 430.97 442.107 430.389 443.253C429.822 444.384 429.038 445.488 428.038 446.564C427.038 447.641 425.994 448.503 424.908 449.152C423.834 449.786 422.766 450.198 421.703 450.387C420.641 450.576 419.61 450.528 418.612 450.242C417.628 449.97 416.732 449.458 415.925 448.708ZM418.928 438.098C418.354 438.716 417.857 439.337 417.437 439.963C417.045 440.588 416.728 441.203 416.488 441.809L429.206 439.145C429.223 438.491 429.122 437.876 428.905 437.3C428.702 436.737 428.37 436.241 427.908 435.812C426.797 434.78 425.416 434.472 423.764 434.89C422.127 435.321 420.515 436.391 418.928 438.098ZM417.345 447.179C417.893 447.689 418.518 448.015 419.218 448.158C419.933 448.314 420.676 448.295 421.447 448.102C422.231 447.895 423.03 447.527 423.843 446.999C424.684 446.47 425.498 445.782 426.285 444.936C426.845 444.333 427.322 443.733 427.716 443.136C428.123 442.524 428.44 441.923 428.667 441.331L416.031 443.993C416.028 444.604 416.134 445.184 416.35 445.733C416.566 446.281 416.898 446.763 417.345 447.179Z" fill="white"/>
<path d="M436.704 464.648L435.224 466.241L423.82 455.643L425.3 454.05L430.58 458.957L440.403 448.386L434.997 447.174L434.931 444.945L442.104 446.556L443.835 448.165L432.312 460.565L436.704 464.648Z" fill="white"/>
<path d="M439.484 467.151C439.588 467.328 439.729 467.538 439.905 467.782C440.095 468.012 440.305 468.234 440.536 468.449C441.214 469.079 441.925 469.659 442.668 470.19C443.44 470.719 444.212 471.089 444.985 471.299C445.757 471.509 446.529 471.518 447.3 471.324C448.099 471.13 448.865 470.639 449.598 469.849C450.332 469.06 450.73 468.226 450.793 467.349C450.884 466.47 450.539 465.669 449.76 464.945C449.169 464.395 448.466 464.023 447.652 463.828C446.852 463.62 446.197 463.572 445.687 463.687L444.086 462.199L451.574 455.356L460.1 463.279L458.619 464.872L451.565 458.317L447.297 462.215C448.088 462.174 448.822 462.281 449.499 462.536C450.204 462.79 450.896 463.232 451.574 463.862C452.064 464.317 452.452 464.825 452.738 465.385C453.039 465.959 453.208 466.558 453.247 467.182C453.3 467.819 453.2 468.476 452.949 469.151C452.711 469.813 452.291 470.466 451.691 471.112C450.744 472.131 449.729 472.833 448.646 473.217C447.591 473.601 446.519 473.728 445.429 473.598C444.353 473.454 443.269 473.088 442.175 472.5C441.095 471.897 440.065 471.14 439.084 470.229C438.737 469.907 438.404 469.557 438.083 469.179C437.764 468.828 437.514 468.489 437.335 468.162L439.484 467.151Z" fill="white"/>
</svg>
