<svg width="775" height="658" viewBox="0 0 775 658" fill="none" xmlns="http://www.w3.org/2000/svg">
<path d="M381.764 264.38C381.987 353.716 309.747 426.318 220.411 426.541C131.075 426.764 58.4736 354.523 58.2507 265.187C58.0278 175.852 130.268 103.25 219.604 103.027C308.94 102.804 381.541 175.045 381.764 264.38Z" fill="#0085FF"/>
<path fill-rule="evenodd" clip-rule="evenodd" d="M220.404 423.541C308.083 423.322 378.983 352.067 378.764 264.388C378.546 176.709 307.29 105.808 219.611 106.027C131.932 106.246 61.032 177.501 61.2507 265.18C61.4694 352.859 132.725 423.759 220.404 423.541ZM220.411 426.541C309.747 426.318 381.987 353.716 381.764 264.38C381.541 175.045 308.94 102.804 219.604 103.027C130.268 103.25 58.0278 175.852 58.2507 265.187C58.4736 354.523 131.075 426.764 220.411 426.541Z" fill="white"/>
<path fill-rule="evenodd" clip-rule="evenodd" d="M220.336 396.617C293.146 396.435 352.023 337.264 351.841 264.455C351.659 191.645 292.488 132.769 219.679 132.95C146.869 133.132 87.9925 192.303 88.1741 265.113C88.3558 337.922 147.527 396.799 220.336 396.617ZM220.339 397.617C293.701 397.434 353.024 337.814 352.841 264.452C352.658 191.091 293.038 131.767 219.676 131.95C146.314 132.133 86.9911 191.753 87.1742 265.115C87.3572 338.477 146.977 397.8 220.339 397.617Z" fill="white"/>
<path d="M0.272461 212.843L440.551 211.744L440.81 315.654L0.531685 316.753L0.272461 212.843Z" fill="#0085FF"/>
<path fill-rule="evenodd" clip-rule="evenodd" d="M438.556 213.749L2.27744 214.838L2.52669 314.748L438.805 313.659L438.556 213.749ZM0.272461 212.843L0.531685 316.753L440.81 315.654L440.551 211.744L0.272461 212.843Z" fill="white"/>
<path d="M24.0204 285.021L23.9221 245.588L40.0873 245.547C43.2713 245.539 45.8661 246.585 47.8716 248.683C49.877 250.74 50.8836 253.346 50.8915 256.501C50.8962 258.402 50.5943 260.101 49.9857 261.599C49.377 263.057 48.5637 264.292 47.5456 265.306C46.5276 266.32 45.3457 267.091 44 267.62C42.695 268.149 41.3485 268.416 39.9606 268.419L28.8777 268.447L28.919 285.009L24.0204 285.021ZM38.9963 250.039L28.8318 250.065L28.8665 263.957L38.9697 263.932C40.8067 263.928 42.397 263.236 43.7407 261.858C45.125 260.439 45.8148 258.758 45.81 256.817C45.8049 254.795 45.1681 253.158 43.8995 251.908C42.6309 250.657 40.9965 250.034 38.9963 250.039Z" fill="white"/>
<path d="M71.7588 285.508C69.4728 285.514 67.3693 285.034 65.4483 284.068C63.5681 283.102 61.9523 281.731 60.6007 279.955C59.2492 278.179 58.2029 276.058 57.462 273.593C56.721 271.087 56.3467 268.317 56.3391 265.284C56.3315 262.251 56.692 259.48 57.4205 256.97C58.149 254.42 59.1845 252.254 60.5272 250.471C61.8698 248.688 63.4788 247.309 65.3542 246.334C67.2704 245.358 69.3714 244.868 71.6574 244.862C73.9434 244.856 76.0265 245.336 77.9067 246.302C79.8277 247.268 81.464 248.639 82.8155 250.415C84.1671 252.192 85.2134 254.353 85.9546 256.899C86.6956 259.405 87.0699 262.174 87.0775 265.207C87.085 268.241 86.7245 271.012 85.996 273.521C85.2674 275.99 84.2318 278.116 82.8891 279.899C81.5464 281.682 79.917 283.061 78.0008 284.037C76.1255 285.012 74.0448 285.503 71.7588 285.508ZM71.7473 280.898C74.8089 280.89 77.275 279.448 79.1456 276.572C81.0161 273.655 81.9456 269.871 81.934 265.22C81.9223 260.529 80.9739 256.729 79.0889 253.822C77.2038 250.915 74.7305 249.465 71.6689 249.473C68.6073 249.48 66.1413 250.942 64.2708 253.859C62.4003 256.776 61.4709 260.58 61.4826 265.271C61.4942 269.922 62.4425 273.702 64.3275 276.609C66.2125 279.476 68.6857 280.905 71.7473 280.898Z" fill="white"/>
<path d="M93.2778 281.147L96.6964 277.013C98.1691 278.264 99.988 279.209 102.153 279.851C104.359 280.452 106.707 280.75 109.197 280.744C112.014 280.737 114.278 280.144 115.989 278.967C117.701 277.79 118.554 276.19 118.549 274.168C118.544 272.106 117.581 270.632 115.66 269.747C113.78 268.821 110.838 267.797 106.835 266.675C102.832 265.552 99.767 264.225 97.6404 262.694C95.5139 261.162 94.4467 258.819 94.4388 255.664C94.4344 253.885 94.7978 252.307 95.5292 250.93C96.3014 249.553 97.3395 248.418 98.6435 247.525C99.9475 246.591 101.456 245.9 103.17 245.451C104.924 244.961 106.78 244.714 108.74 244.709C110.74 244.704 112.843 244.961 115.049 245.482C117.254 245.962 119.482 247.068 121.731 248.802L118.74 252.51C117.145 251.26 115.449 250.375 113.651 249.853C111.854 249.291 110.016 249.013 108.138 249.018C105.526 249.024 103.384 249.555 101.713 250.611C100.083 251.667 99.2701 253.226 99.2752 255.288C99.2804 257.351 100.121 258.825 101.797 259.711C103.513 260.596 105.904 261.48 108.968 262.362C110.683 262.843 112.419 263.365 114.176 263.927C115.933 264.488 117.506 265.192 118.896 266.038C120.286 266.884 121.432 267.912 122.333 269.124C123.234 270.335 123.687 271.81 123.691 273.549C123.697 275.692 123.272 277.534 122.419 279.073C121.606 280.571 120.507 281.787 119.122 282.721C117.736 283.655 116.105 284.346 114.228 284.796C112.392 285.205 110.454 285.412 108.413 285.417C105.719 285.424 103.024 285.127 100.328 284.527C97.6321 283.887 95.282 282.76 93.2778 281.147Z" fill="white"/>
<path d="M142.738 284.725L142.651 249.781L129.486 249.814L129.475 245.324L160.703 245.247L160.715 249.736L147.55 249.769L147.637 284.712L142.738 284.725Z" fill="white"/>
<path d="M218.619 285.142C216.333 285.148 214.23 284.668 212.309 283.702C210.429 282.736 208.813 281.365 207.461 279.588C206.11 277.812 205.064 275.692 204.323 273.226C203.582 270.721 203.207 267.951 203.2 264.918C203.192 261.884 203.553 259.113 204.281 256.604C205.01 254.054 206.045 251.888 207.388 250.105C208.73 248.322 210.339 246.943 212.215 245.967C214.131 244.992 216.232 244.501 218.518 244.496C220.804 244.49 222.887 244.97 224.767 245.936C226.688 246.902 228.325 248.273 229.676 250.049C231.028 251.825 232.074 253.986 232.815 256.533C233.556 259.038 233.93 261.808 233.938 264.841C233.946 267.874 233.585 270.646 232.857 273.155C232.128 275.624 231.092 277.75 229.75 279.533C228.407 281.316 226.778 282.695 224.861 283.67C222.986 284.646 220.905 285.136 218.619 285.142ZM218.608 280.531C221.67 280.524 224.136 279.082 226.006 276.206C227.877 273.289 228.806 269.505 228.795 264.854C228.783 260.162 227.835 256.363 225.949 253.456C224.064 250.548 221.591 249.099 218.53 249.106C215.468 249.114 213.002 250.576 211.131 253.493C209.261 256.409 208.331 260.213 208.343 264.905C208.355 269.556 209.303 273.335 211.188 276.243C213.073 279.109 215.546 280.539 218.608 280.531Z" fill="white"/>
<path d="M247.128 284.464L247.03 245.031L274.033 244.964L274.044 249.453L251.939 249.508L251.973 262.855L266.607 262.818L266.618 267.308L251.984 267.344L252.027 284.452L247.128 284.464Z" fill="white"/>
<path d="M283.843 284.373L283.745 244.94L310.748 244.872L310.759 249.361L288.655 249.417L288.688 262.763L303.322 262.727L303.333 267.216L288.699 267.252L288.742 284.36L283.843 284.373Z" fill="white"/>
<path d="M341.611 279.739L341.622 284.228L315.905 284.293L315.893 279.803L326.303 279.777L326.227 249.323L315.817 249.349L315.806 244.86L341.524 244.795L341.535 249.285L331.125 249.311L331.201 279.765L341.611 279.739Z" fill="white"/>
<path d="M382.62 258.1L378.094 260.174C377.554 256.657 376.282 253.869 374.276 251.812C372.312 249.754 369.942 248.729 367.166 248.735C363.859 248.744 361.189 250.186 359.155 253.063C357.121 255.899 356.11 259.622 356.121 264.233C356.127 266.619 356.398 268.802 356.934 270.783C357.469 272.723 358.229 274.399 359.212 275.813C360.195 277.185 361.361 278.254 362.71 279.019C364.1 279.784 365.611 280.165 367.244 280.161C369.898 280.154 372.181 279.218 374.095 277.353C376.05 275.487 377.309 272.977 377.873 269.821L382.166 272.661C381.155 276.385 379.305 279.342 376.616 281.532C373.968 283.683 370.848 284.762 367.256 284.771C364.847 284.777 362.662 284.297 360.7 283.332C358.738 282.325 357.061 280.934 355.669 279.158C354.276 277.342 353.189 275.18 352.407 272.675C351.625 270.129 351.231 267.319 351.223 264.245C351.215 261.252 351.596 258.521 352.366 256.052C353.135 253.543 354.212 251.417 355.595 249.674C356.979 247.932 358.649 246.573 360.606 245.597C362.563 244.622 364.746 244.131 367.154 244.125C371.032 244.115 374.342 245.381 377.083 247.922C379.866 250.423 381.711 253.815 382.62 258.1Z" fill="white"/>
<path d="M416.082 279.553L416.093 284.043L391.294 284.105L391.196 244.671L415.75 244.61L415.761 249.1L396.106 249.149L396.136 261.1L411.382 261.062L411.393 265.551L396.147 265.589L396.182 279.603L416.082 279.553Z" fill="white"/>
<path d="M611.654 399.019C561.348 479.1 455.649 503.237 375.569 452.931C295.488 402.625 271.351 296.926 321.657 216.846C371.963 136.766 477.662 112.629 557.742 162.934C637.822 213.24 661.96 318.939 611.654 399.019Z" fill="#0085FF"/>
<path fill-rule="evenodd" clip-rule="evenodd" d="M377.165 450.391C455.842 499.815 559.689 476.101 609.114 397.423C658.538 318.746 634.824 214.899 556.146 165.475C477.469 116.05 373.622 139.764 324.197 218.442C274.773 297.119 298.487 400.966 377.165 450.391ZM375.569 452.931C455.649 503.237 561.348 479.1 611.654 399.019C661.96 318.939 637.822 213.24 557.742 162.934C477.662 112.629 371.963 136.766 321.657 216.846C271.351 296.926 295.488 402.625 375.569 452.931Z" fill="white"/>
<path fill-rule="evenodd" clip-rule="evenodd" d="M383.639 440.322C456.248 485.934 552.086 464.049 597.698 391.44C643.311 318.83 621.425 222.993 548.816 177.38C476.207 131.768 380.369 153.653 334.756 226.262C289.144 298.872 311.029 394.709 383.639 440.322ZM383.107 441.169C456.184 487.075 552.639 465.049 598.545 391.972C644.451 318.895 622.425 222.44 549.348 176.533C476.271 130.627 379.816 152.653 333.91 225.73C288.003 298.807 310.03 395.262 383.107 441.169Z" fill="white"/>
<path fill-rule="evenodd" clip-rule="evenodd" d="M404.436 407.088C458.669 441.157 530.253 424.81 564.322 370.577C598.391 316.343 582.044 244.76 527.811 210.691C473.577 176.622 401.994 192.969 367.925 247.202C333.856 301.436 350.203 373.019 404.436 407.088ZM403.904 407.934C458.605 442.297 530.806 425.81 565.168 371.109C599.531 316.407 583.044 244.207 528.342 209.844C473.641 175.481 401.441 191.969 367.078 246.67C332.715 301.371 349.203 373.572 403.904 407.934Z" fill="white"/>
<path d="M438.731 331.756L447.689 314.704C448.203 313.726 447.827 312.517 446.849 312.003L410.971 293.154C410.463 292.887 409.865 292.851 409.329 293.055L387.862 301.221C386.14 301.876 384.524 300.052 385.38 298.421L395.542 279.08C396.056 278.102 395.679 276.893 394.702 276.379L389.699 273.751C388.721 273.237 388.345 272.028 388.858 271.05L392.644 263.845C393.157 262.867 394.367 262.491 395.344 263.005L400.347 265.633C401.325 266.147 402.534 265.771 403.048 264.793L410.951 249.75C411.808 248.119 414.227 248.415 414.664 250.205L420.12 272.515C420.257 273.072 420.625 273.544 421.133 273.811L457.011 292.66C457.989 293.174 459.198 292.798 459.712 291.82L467.548 276.904C467.722 276.572 467.8 276.199 467.772 275.825L461.879 197.022C461.698 194.608 465.16 194.009 465.802 196.342L490.073 284.632C490.22 285.166 490.582 285.615 491.072 285.873L507.756 294.638C508.734 295.152 509.111 296.361 508.597 297.339L504.812 304.544C504.298 305.522 503.089 305.898 502.111 305.384L495.811 302.075C494.56 301.417 493.04 302.229 492.892 303.635L491.971 312.345C491.884 313.159 492.304 313.944 493.029 314.325L551.096 344.832C551.447 345.016 551.735 345.301 551.924 345.65L558.514 357.823C559.191 359.073 558.383 360.611 556.969 360.763L543.207 362.243C542.812 362.286 542.414 362.21 542.063 362.025L483.996 331.519C483.271 331.138 482.386 331.238 481.764 331.771L475.115 337.471C474.042 338.391 474.235 340.103 475.486 340.76L481.786 344.07C482.764 344.584 483.141 345.793 482.627 346.771L479.971 351.827C479.457 352.805 478.248 353.181 477.27 352.667L460.585 343.901C460.095 343.644 459.52 343.601 458.997 343.783L373.944 373.396C371.643 374.197 370.181 370.969 372.3 369.767L437.946 332.566C438.28 332.377 438.552 332.096 438.731 331.756Z" fill="white"/>
<path d="M578.991 378.875L579.744 377.86L586.163 386.663L585.267 387.871L574.979 384.286L575.751 383.245L578.614 384.272L580.806 381.316L578.991 378.875ZM581.538 382.317L579.784 384.682L584.581 386.406L581.538 382.317Z" fill="white"/>
<path d="M562.545 400.986L561.719 400.137L566.534 395.45L567.36 396.299L565.411 398.196L571.013 403.952L572.962 402.055L573.788 402.903L568.972 407.59L568.147 406.742L570.096 404.844L564.494 399.089L562.545 400.986Z" fill="white"/>
<path d="M550.764 410.507L556.72 419.032L553.309 421.415C552.636 421.885 551.936 422.075 551.209 421.984C550.479 421.908 549.886 421.543 549.427 420.887C548.969 420.231 548.76 419.577 548.799 418.925C548.844 418.282 549.05 417.748 549.416 417.323L544.704 414.74L545.924 413.888L550.499 416.469L552.427 415.122L549.715 411.24L550.764 410.507ZM553.077 420.133L554.992 418.795L553.105 416.093L550.796 417.705C550.447 417.95 550.235 418.299 550.162 418.754C550.087 419.223 550.189 419.658 550.47 420.061C550.751 420.463 551.13 420.66 551.606 420.653C552.089 420.654 552.579 420.481 553.077 420.133Z" fill="white"/>
<path d="M522.858 431.913L524.715 431.169L528.286 435.823L524.728 426.941L525.871 426.483L529.739 436.137L527.645 436.976L524.077 432.373L524.689 438.16L522.61 438.993L518.742 429.339L519.886 428.881L523.42 437.703L522.858 431.913Z" fill="white"/>
<path d="M504.871 434.605L506.104 434.328L505.214 445.187L503.746 445.517L498.299 436.081L499.563 435.797L501.06 438.445L504.65 437.639L504.871 434.605ZM504.551 438.875L501.678 439.52L504.184 443.959L504.551 438.875Z" fill="white"/>
<path d="M477.894 440.581L477.822 439.399L484.529 438.991L484.601 440.173L481.886 440.338L482.373 448.355L485.088 448.19L485.16 449.372L478.453 449.78L478.381 448.598L481.096 448.433L480.608 440.416L477.894 440.581Z" fill="white"/>
<path d="M455.743 440.558L455.862 439.381L462.245 440.029L461.195 450.375L459.921 450.246L460.852 441.077L455.743 440.558Z" fill="white"/>
<path d="M432.869 435.672L434.066 436.077L427.653 444.885L426.228 444.403L426.489 433.51L427.717 433.926L427.616 436.967L431.101 438.147L432.869 435.672ZM430.373 439.151L427.584 438.206L427.413 443.3L430.373 439.151Z" fill="white"/>
<path d="M406.72 426.672L407.274 425.626L413.211 428.774L412.657 429.82L410.254 428.546L406.491 435.642L408.894 436.916L408.339 437.962L402.402 434.814L402.957 433.768L405.36 435.042L409.123 427.946L406.72 426.672Z" fill="white"/>
<path d="M393.543 417.977L387.22 426.235L383.917 423.706C383.265 423.207 382.872 422.597 382.739 421.877C382.59 421.158 382.759 420.481 383.245 419.846C383.731 419.211 384.291 418.813 384.924 418.653C385.551 418.502 386.122 418.536 386.639 418.757L387.673 413.484L388.855 414.388L387.78 419.53L389.647 420.96L392.526 417.199L393.543 417.977ZM385.069 423.097L386.924 424.517L388.927 421.9L386.691 420.188C386.353 419.928 385.956 419.833 385.501 419.901C385.031 419.971 384.646 420.2 384.348 420.59C384.05 420.98 383.976 421.4 384.128 421.852C384.272 422.312 384.586 422.727 385.069 423.097Z" fill="white"/>
<path d="M365.039 398.191L366.316 399.73L362.98 404.555L370.345 398.447L371.131 399.396L363.125 406.034L361.685 404.298L364.975 399.491L359.653 401.847L358.223 400.122L366.229 393.484L367.015 394.432L359.699 400.499L365.039 398.191Z" fill="white"/>
<path d="M356.985 381.859L357.622 382.951L347.002 385.384L346.244 384.085L353.592 376.04L354.245 377.16L352.172 379.387L354.026 382.566L356.985 381.859ZM352.818 382.844L351.335 380.301L347.861 384.031L352.818 382.844Z" fill="white"/>
<path d="M343.147 357.932L344.25 357.503L346.681 363.768L345.577 364.197L344.593 361.661L337.105 364.566L338.089 367.102L336.985 367.53L334.554 361.265L335.658 360.836L336.642 363.372L344.13 360.467L343.147 357.932Z" fill="white"/>
<path d="M336.494 336.887L337.653 336.644L338.967 342.924L328.788 345.055L328.526 343.802L337.546 341.914L336.494 336.887Z" fill="white"/>
<path d="M334.209 313.546L334.189 314.81L323.843 311.393L323.867 309.889L334.319 306.811L334.298 308.107L331.372 308.939L331.312 312.619L334.209 313.546ZM330.134 312.232L330.182 309.288L325.279 310.681L330.134 312.232Z" fill="white"/>
<path d="M334.792 285.933L335.957 286.144L334.757 292.757L333.592 292.545L334.078 289.869L326.175 288.435L325.689 291.112L324.524 290.9L325.724 284.288L326.889 284.5L326.403 287.176L334.306 288.609L334.792 285.933Z" fill="white"/>
<path d="M338.899 271.368L329.101 267.881L330.495 263.962C330.771 263.188 331.231 262.627 331.875 262.279C332.513 261.917 333.209 261.871 333.963 262.139C334.717 262.407 335.267 262.818 335.613 263.371C335.95 263.921 336.092 264.476 336.04 265.035L341.377 264.403L340.878 265.805L335.654 266.358L334.866 268.574L339.328 270.162L338.899 271.368ZM331.428 264.871L330.645 267.072L333.75 268.177L334.695 265.524C334.838 265.122 334.807 264.715 334.603 264.302C334.392 263.876 334.056 263.581 333.593 263.417C333.131 263.252 332.708 263.311 332.325 263.594C331.931 263.872 331.632 264.298 331.428 264.871Z" fill="white"/>
<path d="M349.218 237.822L348.141 239.507L342.529 237.801L350.591 242.953L349.928 243.991L341.165 238.391L342.379 236.49L347.96 238.157L344.094 233.807L345.3 231.919L354.063 237.519L353.4 238.557L345.392 233.44L349.218 237.822Z" fill="white"/>
<path d="M362.33 225.139L361.486 226.081L355.905 216.724L356.908 215.603L366.823 220.121L365.958 221.086L363.202 219.8L360.747 222.541L362.33 225.139ZM360.11 221.477L362.074 219.284L357.457 217.126L360.11 221.477Z" fill="white"/>
<path d="M380.869 204.604L381.611 205.527L376.374 209.738L375.632 208.815L377.752 207.111L372.719 200.852L370.599 202.556L369.857 201.633L375.094 197.422L375.836 198.345L373.716 200.049L378.749 206.309L380.869 204.604Z" fill="white"/>
<path d="M398.703 191.974L399.288 193.003L393.71 196.174L388.571 187.132L389.684 186.5L394.238 194.512L398.703 191.974Z" fill="white"/>
<path d="M420.374 182.604L419.163 182.965L419.302 172.071L420.743 171.641L426.829 180.678L425.587 181.049L423.911 178.51L420.385 179.562L420.374 182.604ZM420.399 178.322L423.22 177.481L420.414 173.225L420.399 178.322Z" fill="white"/>
<path d="M446.786 174.786L446.94 175.96L440.276 176.831L440.123 175.657L442.82 175.305L441.779 167.34L439.082 167.693L438.928 166.519L445.592 165.648L445.745 166.822L443.048 167.175L444.089 175.139L446.786 174.786Z" fill="white"/>
<path d="M461.914 174.224L462.236 163.829L466.394 163.958C467.215 163.984 467.89 164.25 468.418 164.757C468.958 165.254 469.215 165.903 469.19 166.702C469.165 167.502 468.942 168.151 468.521 168.65C468.101 169.139 467.616 169.444 467.068 169.566L469.302 174.453L467.815 174.407L465.691 169.603L463.34 169.53L463.193 174.264L461.914 174.224ZM465.813 165.125L463.479 165.052L463.376 168.347L466.191 168.434C466.618 168.447 466.996 168.294 467.326 167.973C467.667 167.642 467.845 167.231 467.86 166.741C467.876 166.251 467.69 165.866 467.304 165.587C466.918 165.298 466.421 165.144 465.813 165.125Z" fill="white"/>
<path d="M496.663 173.656L494.73 173.145L494.642 167.279L492.197 176.53L491.006 176.215L493.663 166.16L495.844 166.737L495.96 172.56L498.922 167.55L501.088 168.123L498.431 178.177L497.239 177.863L499.668 168.674L496.663 173.656Z" fill="white"/>
<path d="M512.222 182.026L511.067 181.512L518.26 173.329L519.634 173.94L518.377 184.762L517.192 184.236L517.571 181.217L514.209 179.722L512.222 182.026ZM515.026 178.79L517.716 179.986L518.354 174.929L515.026 178.79Z" fill="white"/>
<path d="M538.316 193.813L537.663 194.801L532.057 191.096L532.71 190.108L534.979 191.608L539.408 184.907L537.139 183.407L537.792 182.42L543.398 186.125L542.745 187.113L540.476 185.613L536.047 192.314L538.316 193.813Z" fill="white"/>
<path d="M556.139 207.21L555.336 208.08L550.622 203.727L557.677 196.086L558.618 196.954L552.366 203.726L556.139 207.21Z" fill="white"/>
<path d="M571.443 224.731L570.73 223.687L581.152 220.51L582 221.753L575.238 230.296L574.508 229.225L576.418 226.857L574.344 223.817L571.443 224.731ZM575.53 223.454L577.188 225.886L580.391 221.92L575.53 223.454Z" fill="white"/>
<path d="M587.068 247.826L585.995 248.326L583.157 242.234L584.231 241.735L585.379 244.2L592.66 240.809L591.512 238.343L592.585 237.843L595.422 243.935L594.349 244.435L593.201 241.969L585.92 245.361L587.068 247.826Z" fill="white"/>
<path d="M592.147 262.071L602.155 259.243L603.286 263.246C603.509 264.037 603.459 264.76 603.135 265.417C602.823 266.082 602.283 266.523 601.513 266.74C600.743 266.958 600.057 266.941 599.454 266.69C598.861 266.436 598.424 266.067 598.143 265.581L594.157 269.185L593.752 267.753L597.692 264.278L597.052 262.015L592.495 263.303L592.147 262.071ZM601.999 263.045L601.363 260.797L598.192 261.693L598.957 264.403C599.073 264.814 599.334 265.128 599.739 265.346C600.158 265.571 600.603 265.617 601.075 265.484C601.547 265.35 601.858 265.058 602.007 264.605C602.167 264.15 602.164 263.63 601.999 263.045Z" fill="white"/>
<path d="M603.124 294.28L603.017 292.283L608.573 290.4L599.018 290.911L598.953 289.68L609.338 289.125L609.458 291.378L603.952 293.275L609.628 294.558L609.748 296.795L599.363 297.349L599.297 296.119L608.787 295.612L603.124 294.28Z" fill="white"/>
<path d="M599.932 312.367L600.069 311.11L610.056 315.466L609.893 316.962L599.202 319.063L599.342 317.775L602.332 317.215L602.731 313.557L599.932 312.367ZM603.869 314.051L603.549 316.978L608.56 316.044L603.869 314.051Z" fill="white"/>
<path d="M596.965 339.554L595.824 339.238L597.614 332.761L598.755 333.077L598.031 335.698L605.772 337.839L606.497 335.217L607.638 335.532L605.847 342.009L604.706 341.694L605.431 339.072L597.69 336.932L596.965 339.554Z" fill="white"/>
<path d="M589.646 360.891L588.571 360.394L591.268 354.572L600.705 358.943L600.167 360.104L591.804 356.231L589.646 360.891Z" fill="white"/>
<path d="M347.658 562.456C286.892 614.731 195.254 607.847 142.979 547.081C90.7037 486.315 97.5871 394.677 158.353 342.402C219.119 290.127 310.757 297.011 363.032 357.777C415.307 418.543 408.424 510.181 347.658 562.456Z" fill="#0085FF"/>
<path fill-rule="evenodd" clip-rule="evenodd" d="M144.495 545.777C196.049 605.706 286.425 612.494 346.353 560.94C406.282 509.385 413.071 419.01 361.516 359.081C309.961 299.153 219.586 292.364 159.657 343.919C99.7288 395.473 92.9402 485.848 144.495 545.777ZM142.979 547.081C195.254 607.847 286.892 614.731 347.658 562.456C408.424 510.181 415.307 418.543 363.032 357.777C310.757 297.011 219.119 290.127 158.353 342.402C97.5871 394.677 90.7037 486.315 142.979 547.081Z" fill="white"/>
<path fill-rule="evenodd" clip-rule="evenodd" d="M149.528 541.448C198.691 598.597 284.875 605.071 342.024 555.907C399.173 506.744 405.647 420.56 356.483 363.411C307.32 306.262 221.136 299.788 163.987 348.952C106.838 398.115 100.364 484.299 149.528 541.448ZM148.77 542.1C198.293 599.668 285.108 606.189 342.676 556.665C400.244 507.142 406.765 420.327 357.241 362.759C307.718 305.191 220.903 298.67 163.335 348.194C105.767 397.717 99.246 484.532 148.77 542.1Z" fill="white"/>
<path d="M190.432 363.014L189.514 361.947L200.862 356.957L201.954 358.227L195.325 368.702L194.383 367.607L196.261 364.699L193.588 361.592L190.432 363.014ZM194.879 361.023L197.017 363.508L200.166 358.637L194.879 361.023Z" fill="white"/>
<path d="M197.296 370.993L206.285 363.26L209.155 366.597C209.666 367.191 209.897 367.878 209.846 368.659C209.812 369.44 209.463 370.116 208.8 370.687C208.292 371.123 207.758 371.379 207.197 371.454C206.636 371.529 206.116 371.484 205.636 371.317C205.834 371.883 205.889 372.478 205.8 373.103C205.712 373.727 205.391 374.277 204.838 374.753C204.045 375.435 203.227 375.724 202.383 375.62C201.556 375.516 200.829 375.1 200.201 374.37L197.296 370.993ZM208.015 367.202L206.26 365.162L203.287 367.719L204.949 369.651C205.266 370.02 205.698 370.205 206.244 370.206C206.807 370.207 207.314 370.014 207.766 369.625C208.162 369.284 208.38 368.885 208.42 368.428C208.468 367.98 208.332 367.571 208.015 367.202ZM204.008 370.46L202.346 368.528L199.18 371.253L200.946 373.306C201.116 373.504 201.31 373.683 201.526 373.841C201.752 373.992 201.986 374.096 202.229 374.154C202.48 374.204 202.742 374.19 203.013 374.114C203.301 374.039 203.592 373.874 203.887 373.62C204.44 373.144 204.7 372.616 204.665 372.034C204.63 371.453 204.411 370.928 204.008 370.46Z" fill="white"/>
<path d="M215.554 380.217L214.224 379.622C214.925 378.815 215.321 377.988 215.412 377.142C215.51 376.306 215.296 375.581 214.769 374.969C214.141 374.239 213.307 373.931 212.265 374.044C211.232 374.149 210.19 374.653 209.139 375.557C208.595 376.025 208.148 376.512 207.797 377.018C207.455 377.515 207.215 378.011 207.079 378.505C206.951 378.991 206.928 379.458 207.008 379.905C207.096 380.362 207.296 380.771 207.605 381.131C208.109 381.717 208.755 382.038 209.543 382.097C210.339 382.164 211.151 381.952 211.978 381.459L212.142 382.964C211.1 383.469 210.075 383.638 209.065 383.472C208.073 383.307 207.236 382.828 206.554 382.035C206.097 381.504 205.793 380.927 205.643 380.304C205.501 379.674 205.502 379.031 205.644 378.376C205.796 377.713 206.083 377.05 206.508 376.387C206.941 375.716 207.509 375.079 208.209 374.476C208.892 373.89 209.587 373.44 210.297 373.127C211.016 372.807 211.705 372.629 212.365 372.594C213.025 372.559 213.651 372.663 214.244 372.905C214.838 373.147 215.363 373.533 215.82 374.065C216.556 374.92 216.893 375.899 216.831 377.002C216.786 378.107 216.361 379.178 215.554 380.217Z" fill="white"/>
<path d="M221.826 381.158C222.353 381.771 222.749 382.418 223.014 383.099C223.279 383.78 223.39 384.468 223.346 385.163C223.303 385.859 223.094 386.548 222.719 387.231C222.352 387.923 221.804 388.582 221.076 389.209C220.255 389.915 219.456 390.422 218.679 390.73C217.901 391.039 217.156 391.17 216.443 391.125C215.739 391.089 215.065 390.893 214.422 390.537C213.788 390.173 213.2 389.676 212.658 389.046C212.394 388.74 212.132 388.417 211.872 388.077C211.61 387.753 211.377 387.436 211.174 387.125L220.163 379.393C220.448 379.649 220.73 379.931 221.011 380.238C221.299 380.555 221.571 380.861 221.826 381.158ZM220.863 382.081C220.763 381.964 220.646 381.837 220.512 381.701C220.387 381.574 220.258 381.442 220.124 381.306L213.072 387.373C213.186 387.525 213.301 387.677 213.416 387.829C213.531 387.982 213.638 388.116 213.739 388.233C214.25 388.828 214.773 389.24 215.308 389.469C215.859 389.7 216.402 389.79 216.935 389.738C217.476 389.696 218.011 389.534 218.538 389.252C219.075 388.963 219.593 388.604 220.09 388.176C220.561 387.771 220.949 387.327 221.255 386.844C221.571 386.354 221.773 385.843 221.862 385.312C221.959 384.79 221.929 384.252 221.772 383.697C221.623 383.151 221.32 382.612 220.863 382.081Z" fill="white"/>
<path d="M170.823 396.164L188.801 380.699L190.723 382.933L183.09 389.5L189.674 397.154L197.307 390.587L199.23 392.822L181.252 408.287L179.33 406.052L187.627 398.915L181.043 391.261L172.746 398.399L170.823 396.164Z" fill="white"/>
<path d="M190.169 419.212C189.272 418.169 188.669 417.02 188.358 415.764C188.064 414.527 188.058 413.252 188.341 411.94C188.623 410.627 189.183 409.319 190.019 408.017C190.874 406.698 191.993 405.444 193.376 404.254C194.759 403.065 196.166 402.146 197.597 401.497C199.047 400.833 200.442 400.459 201.782 400.376C203.122 400.293 204.382 400.489 205.561 400.965C206.757 401.459 207.803 402.228 208.7 403.271C209.597 404.314 210.193 405.454 210.487 406.691C210.798 407.947 210.812 409.231 210.529 410.543C210.246 411.856 209.668 413.179 208.795 414.514C207.94 415.832 206.821 417.087 205.438 418.276C204.056 419.466 202.648 420.385 201.217 421.033C199.804 421.666 198.427 422.023 197.087 422.107C195.747 422.19 194.48 421.985 193.284 421.49C192.105 421.014 191.066 420.255 190.169 419.212ZM192.271 417.404C193.473 418.801 195.097 419.364 197.143 419.094C199.207 418.809 201.3 417.754 203.42 415.93C205.559 414.09 206.924 412.171 207.514 410.172C208.105 408.173 207.8 406.476 206.598 405.079C205.397 403.682 203.764 403.127 201.699 403.412C199.635 403.698 197.533 404.761 195.394 406.601C193.274 408.425 191.918 410.336 191.328 412.335C190.755 414.318 191.07 416.007 192.271 417.404Z" fill="white"/>
<path d="M206.921 438.125L217.919 417.679L201.49 431.812L199.64 429.661L217.617 414.196L221.078 418.218L210.68 437.516L226.196 424.168L228.046 426.319L210.068 441.784L206.921 438.125Z" fill="white"/>
<path d="M229.008 446.178L234.03 452.015L226.507 458.487C224.9 457.925 223.582 457.213 222.551 456.35C221.52 455.487 220.596 454.581 219.779 453.631C218.689 452.365 217.941 451.048 217.535 449.68C217.147 448.297 217.07 446.921 217.305 445.552C217.558 444.168 218.104 442.808 218.942 441.47C219.8 440.117 220.929 438.838 222.33 437.632C223.695 436.459 225.092 435.565 226.521 434.951C227.968 434.321 229.377 434.001 230.746 433.989C232.116 433.977 233.439 434.265 234.714 434.853C236.006 435.459 237.18 436.377 238.237 437.606C239.423 438.984 240.21 440.364 240.598 441.748C240.986 443.131 241.096 444.527 240.928 445.936L238.181 445.82C238.322 444.791 238.217 443.699 237.865 442.543C237.513 441.388 236.984 440.401 236.28 439.582C234.694 437.738 232.822 436.886 230.663 437.025C228.54 437.167 226.427 438.142 224.325 439.951C222.075 441.886 220.777 443.975 220.429 446.219C220.115 448.465 220.855 450.631 222.65 452.717C223.05 453.182 223.485 453.65 223.954 454.121C224.458 454.595 225.037 454.988 225.691 455.301L230.061 451.541L226.961 447.938L229.008 446.178Z" fill="white"/>
<path d="M243.105 480.186L261.082 464.721L263.005 466.955L253.739 474.926L270.189 475.307L272.808 478.352L258.555 477.782L254.975 493.985L252.452 491.052L255.653 477.654L250.752 477.496L245.027 482.421L243.105 480.186Z" fill="white"/>
<path d="M262.21 502.955C261.313 501.912 260.709 500.763 260.399 499.507C260.105 498.269 260.099 496.995 260.381 495.682C260.664 494.37 261.224 493.062 262.06 491.759C262.915 490.441 264.034 489.186 265.417 487.997C266.799 486.807 268.207 485.888 269.638 485.24C271.088 484.576 272.483 484.202 273.823 484.119C275.163 484.035 276.423 484.231 277.602 484.707C278.798 485.202 279.844 485.971 280.741 487.013C281.638 488.056 282.234 489.196 282.528 490.433C282.839 491.689 282.852 492.974 282.57 494.286C282.287 495.598 281.709 496.922 280.836 498.256C279.981 499.575 278.862 500.829 277.479 502.019C276.096 503.208 274.689 504.127 273.258 504.776C271.844 505.408 270.468 505.766 269.128 505.849C267.788 505.933 266.52 505.727 265.325 505.233C264.146 504.757 263.107 503.998 262.21 502.955ZM264.312 501.146C265.514 502.543 267.137 503.107 269.183 502.837C271.248 502.551 273.34 501.497 275.461 499.673C277.6 497.833 278.964 495.913 279.555 493.915C280.146 491.916 279.84 490.218 278.639 488.822C277.438 487.425 275.805 486.869 273.74 487.155C271.676 487.44 269.574 488.503 267.435 490.343C265.315 492.167 263.959 494.079 263.368 496.077C262.796 498.06 263.111 499.75 264.312 501.146Z" fill="white"/>
<path d="M278.961 521.867L289.96 501.422L273.531 515.555L271.681 513.404L289.658 497.938L293.118 501.961L282.721 521.258L298.237 507.91L300.087 510.061L282.109 525.527L278.961 521.867Z" fill="white"/>
<path d="M301.049 529.92L306.071 535.758L298.548 542.23C296.941 541.668 295.622 540.955 294.591 540.092C293.56 539.229 292.636 538.323 291.819 537.374C290.73 536.107 289.982 534.79 289.576 533.423C289.188 532.039 289.111 530.663 289.346 529.295C289.599 527.911 290.144 526.55 290.983 525.213C291.841 523.86 292.97 522.58 294.371 521.375C295.736 520.201 297.132 519.307 298.562 518.693C300.009 518.064 301.418 517.743 302.787 517.731C304.157 517.72 305.479 518.008 306.755 518.595C308.046 519.202 309.221 520.119 310.278 521.348C311.464 522.726 312.25 524.107 312.638 525.491C313.027 526.874 313.137 528.27 312.968 529.678L310.222 529.562C310.363 528.533 310.258 527.441 309.906 526.286C309.554 525.131 309.025 524.144 308.32 523.324C306.734 521.481 304.862 520.628 302.704 520.768C300.58 520.91 298.468 521.885 296.366 523.693C294.116 525.628 292.817 527.718 292.469 529.961C292.156 532.208 292.896 534.373 294.69 536.459C295.091 536.925 295.526 537.393 295.995 537.864C296.499 538.338 297.078 538.731 297.732 539.043L302.102 535.284L299.002 531.681L301.049 529.92Z" fill="white"/>
<path d="M154.609 466.896C155.332 467.736 155.878 468.621 156.247 469.55C156.617 470.479 156.778 471.415 156.73 472.359C156.682 473.303 156.41 474.236 155.913 475.158C155.427 476.092 154.696 476.979 153.72 477.818C152.62 478.764 151.547 479.441 150.499 479.847C149.452 480.254 148.445 480.421 147.48 480.348C146.526 480.288 145.61 480.012 144.735 479.518C143.871 479.014 143.067 478.33 142.324 477.465C141.962 477.045 141.603 476.602 141.245 476.136C140.885 475.693 140.565 475.259 140.285 474.833L152.33 464.471C152.72 464.824 153.107 465.211 153.491 465.633C153.886 466.067 154.259 466.488 154.609 466.896ZM153.32 468.134C153.182 467.973 153.022 467.799 152.84 467.612C152.668 467.438 152.491 467.257 152.308 467.07L142.858 475.2C143.015 475.408 143.173 475.616 143.331 475.825C143.488 476.033 143.636 476.217 143.774 476.378C144.476 477.193 145.19 477.761 145.917 478.082C146.667 478.404 147.403 478.534 148.124 478.473C148.856 478.424 149.576 478.212 150.286 477.838C151.008 477.453 151.703 476.974 152.37 476.4C153 475.858 153.519 475.261 153.926 474.61C154.345 473.948 154.611 473.257 154.723 472.538C154.845 471.831 154.796 471.099 154.576 470.343C154.366 469.599 153.947 468.863 153.32 468.134Z" fill="white"/>
<path d="M157.783 492.4L156.412 493.579L149.955 486.074L162 475.712L168.393 483.143L167.022 484.323L161.904 478.374L158.254 481.515L162.223 486.129L160.852 487.309L156.883 482.695L152.602 486.377L157.783 492.4Z" fill="white"/>
<path d="M159.482 497.148L171.527 486.787L175.736 491.679C176.565 492.642 176.918 493.703 176.797 494.861C176.687 496.008 176.151 496.997 175.187 497.825C174.607 498.325 174.008 498.679 173.392 498.887C172.787 499.084 172.198 499.161 171.624 499.118C171.049 499.075 170.506 498.918 169.995 498.649C169.494 498.392 169.063 498.053 168.702 497.633L165.816 494.279L160.757 498.631L159.482 497.148ZM174.077 492.525L171.431 489.449L167.188 493.099L169.818 496.157C170.296 496.713 170.921 497.014 171.691 497.06C172.485 497.108 173.179 496.877 173.772 496.367C174.389 495.836 174.725 495.214 174.778 494.501C174.832 493.789 174.598 493.13 174.077 492.525Z" fill="white"/>
<path d="M169.184 508.426L167.925 506.963L183.206 500.362L184.705 502.104L175.896 516.228L174.604 514.727L177.1 510.806L173.434 506.544L169.184 508.426ZM175.172 505.791L178.105 509.201L182.29 502.634L175.172 505.791Z" fill="white"/>
<path d="M178.504 519.26L190.549 508.898L194.694 513.716C195.512 514.667 195.908 515.702 195.882 516.821C195.878 517.942 195.413 518.901 194.487 519.698C193.56 520.495 192.599 520.914 191.602 520.954C190.617 520.984 189.774 520.753 189.071 520.262L185.869 527.821L184.386 526.098L187.608 518.748L185.264 516.024L179.779 520.742L178.504 519.26ZM192.78 514.265L190.453 511.56L186.635 514.844L189.441 518.105C189.866 518.6 190.43 518.867 191.132 518.908C191.856 518.951 192.503 518.728 193.071 518.239C193.639 517.75 193.881 517.145 193.797 516.422C193.725 515.688 193.386 514.97 192.78 514.265Z" fill="white"/>
<path d="M190.39 533.077L201.064 523.894L197.636 519.91L199.007 518.73L207.138 528.181L205.766 529.361L202.339 525.377L191.665 534.559L190.39 533.077Z" fill="white"/>
<path d="M205.576 547.956L204.205 549.136L197.749 541.631L209.794 531.269L216.186 538.699L214.815 539.879L209.698 533.931L206.047 537.071L210.016 541.685L208.645 542.865L204.676 538.251L200.395 541.933L205.576 547.956Z" fill="white"/>
<path d="M221.52 544.675C222.243 545.515 222.789 546.399 223.158 547.328C223.527 548.257 223.688 549.194 223.64 550.138C223.592 551.082 223.32 552.015 222.823 552.937C222.337 553.871 221.606 554.758 220.63 555.597C219.531 556.543 218.457 557.219 217.41 557.626C216.362 558.033 215.356 558.2 214.391 558.127C213.436 558.067 212.521 557.79 211.645 557.297C210.782 556.793 209.978 556.109 209.234 555.244C208.873 554.824 208.513 554.381 208.155 553.915C207.795 553.472 207.476 553.038 207.196 552.612L219.241 542.25C219.63 542.603 220.017 542.99 220.401 543.412C220.796 543.846 221.169 544.267 221.52 544.675ZM220.231 545.913C220.093 545.752 219.932 545.578 219.75 545.391C219.578 545.216 219.401 545.036 219.219 544.849L209.768 552.979C209.926 553.187 210.083 553.395 210.241 553.604C210.399 553.812 210.547 553.996 210.685 554.157C211.386 554.972 212.101 555.54 212.828 555.86C213.578 556.183 214.313 556.313 215.034 556.252C215.766 556.203 216.487 555.991 217.197 555.617C217.919 555.232 218.614 554.752 219.281 554.179C219.911 553.636 220.429 553.04 220.836 552.389C221.256 551.727 221.522 551.036 221.633 550.317C221.756 549.609 221.707 548.878 221.486 548.122C221.276 547.378 220.858 546.641 220.231 545.913Z" fill="white"/>
<path d="M311.934 504.531C311.488 504.013 311.189 503.441 311.036 502.816C310.891 502.2 310.89 501.565 311.033 500.91C311.176 500.256 311.457 499.604 311.876 498.953C312.304 498.295 312.864 497.668 313.556 497.074C314.247 496.479 314.95 496.019 315.665 495.694C316.389 495.361 317.085 495.172 317.754 495.129C318.422 495.085 319.05 495.181 319.638 495.416C320.233 495.661 320.754 496.042 321.199 496.56C321.645 497.079 321.941 497.646 322.085 498.262C322.238 498.887 322.243 499.527 322.1 500.181C321.957 500.836 321.667 501.496 321.23 502.162C320.801 502.82 320.241 503.447 319.55 504.042C318.859 504.637 318.155 505.097 317.441 505.422C316.735 505.739 316.048 505.919 315.379 505.963C314.711 506.007 314.079 505.906 313.484 505.661C312.896 505.426 312.38 505.049 311.934 504.531ZM314.523 498.198C314.126 498.539 313.777 498.888 313.474 499.245C313.189 499.603 312.951 499.961 312.761 500.318L320.786 499.549C320.841 499.147 320.822 498.761 320.728 498.391C320.643 498.03 320.472 497.701 320.217 497.405C319.605 496.693 318.774 496.408 317.727 496.552C316.688 496.706 315.62 497.254 314.523 498.198ZM312.916 503.687C313.218 504.038 313.581 504.282 314.002 504.418C314.432 504.564 314.892 504.603 315.38 504.537C315.878 504.463 316.396 504.291 316.934 504.022C317.489 503.753 318.039 503.385 318.583 502.917C318.97 502.584 319.306 502.247 319.59 501.906C319.883 501.557 320.12 501.208 320.301 500.859L312.328 501.632C312.283 502.009 312.308 502.374 312.403 502.727C312.498 503.08 312.669 503.4 312.916 503.687Z" fill="white"/>
<path d="M323.635 515.783L322.612 516.663L316.319 509.348L317.342 508.468L320.256 511.855L327.046 506.014L323.797 504.895L323.911 503.517L328.221 505.002L329.176 506.113L321.211 512.965L323.635 515.783Z" fill="white"/>
<path d="M329.318 524.459L323.777 518.018C324.303 517.566 324.827 517.244 325.351 517.051C325.875 516.858 326.388 516.755 326.89 516.741C327.401 516.72 327.903 516.763 328.396 516.87C328.907 516.979 329.398 517.112 329.87 517.269C330.335 517.417 330.782 517.564 331.212 517.709C331.649 517.864 332.065 517.974 332.457 518.039C332.858 518.113 333.233 518.12 333.583 518.06C333.941 518.01 334.272 517.854 334.576 517.592C334.862 517.347 335.054 517.076 335.154 516.782C335.253 516.487 335.288 516.191 335.258 515.895C335.235 515.608 335.156 515.33 335.021 515.06C334.893 514.8 334.745 514.573 334.578 514.378C334.061 513.777 333.433 513.439 332.696 513.365C331.976 513.292 331.348 513.486 330.813 513.946L329.894 512.877C330.29 512.536 330.741 512.285 331.245 512.126C331.758 511.958 332.272 511.894 332.788 511.933C333.32 511.974 333.841 512.122 334.349 512.378C334.867 512.625 335.336 512.994 335.758 513.484C336.085 513.863 336.334 514.284 336.508 514.747C336.681 515.21 336.764 515.67 336.757 516.127C336.757 516.594 336.659 517.049 336.462 517.491C336.275 517.926 335.983 518.314 335.587 518.655C335.172 519.012 334.744 519.251 334.303 519.373C333.87 519.504 333.426 519.556 332.97 519.53C332.531 519.505 332.084 519.423 331.627 519.284C331.179 519.154 330.727 519.011 330.272 518.855C329.505 518.598 328.748 518.379 328.001 518.201C327.254 518.022 326.541 518.08 325.863 518.373L330.341 523.579L329.318 524.459Z" fill="white"/>
<path d="M330.567 525.911L331.969 525.526C332.022 525.626 332.092 525.735 332.178 525.854C332.272 525.982 332.387 526.125 332.522 526.282C332.896 526.717 333.337 527.127 333.845 527.511C334.361 527.888 334.897 528.176 335.453 528.374C336.018 528.564 336.587 528.63 337.162 528.57C337.746 528.503 338.291 528.251 338.798 527.815C339.195 527.474 339.43 527.086 339.505 526.651C339.598 526.217 339.429 525.751 338.999 525.251C338.816 525.038 338.598 524.879 338.347 524.773C338.113 524.669 337.821 524.59 337.47 524.537L336.739 524.442L336.799 523.086L342.736 523.945L338.879 519.461L339.902 518.581L344.941 524.438L343.918 525.319L339.911 524.829C339.985 524.878 340.059 524.935 340.131 525.001C340.212 525.077 340.285 525.151 340.348 525.225C340.778 525.725 340.969 526.31 340.919 526.98C340.888 527.652 340.526 528.285 339.834 528.88C339.189 529.435 338.494 529.783 337.75 529.925C337.005 530.066 336.259 530.048 335.512 529.869C334.774 529.683 334.055 529.359 333.354 528.899C332.662 528.448 332.045 527.908 331.503 527.279C331.312 527.057 331.13 526.827 330.958 526.589C330.785 526.351 330.655 526.125 330.567 525.911Z" fill="white"/>
<path d="M148.352 520.532C147.89 519.994 147.589 519.393 147.45 518.728C147.319 518.072 147.346 517.39 147.53 516.681C147.714 515.971 148.048 515.258 148.532 514.541C149.026 513.815 149.662 513.118 150.44 512.449C151.218 511.779 152.003 511.255 152.794 510.874C153.596 510.485 154.362 510.252 155.091 510.176C155.819 510.1 156.498 510.176 157.127 510.403C157.764 510.64 158.313 511.027 158.776 511.565C159.238 512.102 159.535 512.699 159.665 513.354C159.805 514.019 159.782 514.707 159.598 515.416C159.414 516.125 159.07 516.847 158.565 517.582C158.071 518.308 157.434 519.006 156.657 519.675C155.879 520.344 155.094 520.869 154.302 521.249C153.521 521.621 152.766 521.844 152.037 521.92C151.308 521.996 150.626 521.916 149.989 521.679C149.36 521.452 148.814 521.069 148.352 520.532ZM151.443 513.615C150.997 513.998 150.602 514.388 150.257 514.785C149.931 515.182 149.657 515.577 149.435 515.969L158.196 514.793C158.274 514.359 158.27 513.945 158.184 513.552C158.106 513.168 157.935 512.822 157.671 512.515C157.035 511.776 156.145 511.507 155 511.707C153.863 511.917 152.677 512.553 151.443 513.615ZM149.457 519.582C149.77 519.946 150.154 520.193 150.607 520.321C151.068 520.458 151.566 520.481 152.1 520.388C152.645 520.287 153.215 520.08 153.812 519.767C154.428 519.455 155.042 519.035 155.654 518.509C156.089 518.134 156.469 517.757 156.793 517.378C157.127 516.991 157.4 516.605 157.612 516.223L148.906 517.4C148.841 517.807 148.853 518.198 148.941 518.573C149.029 518.948 149.201 519.284 149.457 519.582Z" fill="white"/>
<path d="M160.589 532.113L159.437 533.103L152.911 525.517L154.063 524.526L157.084 528.039L164.723 521.467L161.239 520.407L161.423 518.921L166.045 520.33L167.036 521.481L158.075 529.19L160.589 532.113Z" fill="white"/>
<path d="M166.392 541.187L160.646 534.508C161.237 533.999 161.822 533.63 162.4 533.4C162.978 533.17 163.54 533.037 164.087 533.001C164.644 532.956 165.188 532.98 165.72 533.074C166.27 533.168 166.799 533.289 167.305 533.438C167.804 533.577 168.284 533.715 168.745 533.853C169.215 534 169.661 534.1 170.086 534.152C170.518 534.214 170.926 534.206 171.309 534.127C171.7 534.057 172.067 533.875 172.409 533.581C172.731 533.304 172.952 533.005 173.073 532.684C173.194 532.363 173.244 532.044 173.224 531.728C173.213 531.42 173.139 531.125 173.003 530.841C172.875 530.567 172.725 530.329 172.552 530.127C172.015 529.503 171.347 529.168 170.548 529.12C169.768 529.073 169.077 529.309 168.476 529.826L167.522 528.718C167.968 528.334 168.469 528.046 169.024 527.852C169.59 527.649 170.152 527.558 170.711 527.578C171.288 527.599 171.848 527.735 172.389 527.988C172.941 528.231 173.436 528.606 173.874 529.115C174.212 529.509 174.466 529.95 174.634 530.44C174.803 530.929 174.873 531.42 174.845 531.912C174.825 532.413 174.698 532.906 174.465 533.39C174.243 533.866 173.908 534.295 173.462 534.679C172.996 535.08 172.52 535.356 172.035 535.506C171.559 535.665 171.073 535.741 170.578 535.732C170.102 535.724 169.619 535.656 169.129 535.526C168.647 535.407 168.162 535.273 167.674 535.125C166.851 534.881 166.037 534.68 165.232 534.521C164.427 534.361 163.65 534.454 162.899 534.799L167.543 540.197L166.392 541.187Z" fill="white"/>
<path d="M167.687 542.693L169.229 542.219C169.282 542.323 169.353 542.437 169.442 542.561C169.539 542.695 169.657 542.843 169.798 543.006C170.186 543.457 170.647 543.879 171.183 544.27C171.728 544.652 172.299 544.938 172.894 545.127C173.5 545.307 174.117 545.352 174.744 545.263C175.382 545.166 175.986 544.871 176.557 544.381C177.003 543.997 177.276 543.57 177.376 543.099C177.496 542.63 177.332 542.135 176.887 541.617C176.697 541.397 176.467 541.235 176.198 541.132C175.948 541.03 175.634 540.958 175.255 540.917L174.464 540.846L174.588 539.386L181.007 540.051L177.008 535.401L178.159 534.411L183.385 540.486L182.233 541.476L177.897 541.124C177.975 541.173 178.053 541.232 178.129 541.3C178.214 541.377 178.289 541.454 178.355 541.531C178.801 542.049 178.983 542.669 178.9 543.392C178.836 544.115 178.415 544.811 177.638 545.48C176.912 546.104 176.141 546.509 175.325 546.693C174.509 546.877 173.698 546.89 172.893 546.731C172.099 546.562 171.331 546.246 170.589 545.783C169.855 545.328 169.208 544.775 168.646 544.122C168.448 543.892 168.26 543.653 168.083 543.405C167.906 543.156 167.774 542.919 167.687 542.693Z" fill="white"/>
<path fill-rule="evenodd" clip-rule="evenodd" d="M284.611 546.158L165.548 407.756L166.306 407.104L285.369 545.506L284.611 546.158Z" fill="white"/>
<path fill-rule="evenodd" clip-rule="evenodd" d="M257.575 569.415L138.513 431.013L139.271 430.361L258.334 568.763L257.575 569.415Z" fill="white"/>
<path d="M160.459 442.21L153.062 433.612C153.766 433.006 154.469 432.574 155.17 432.315C155.872 432.055 156.558 431.916 157.23 431.897C157.914 431.868 158.585 431.924 159.245 432.066C159.928 432.21 160.584 432.386 161.216 432.595C161.837 432.792 162.434 432.987 163.009 433.181C163.595 433.386 164.15 433.532 164.675 433.618C165.211 433.716 165.713 433.725 166.181 433.644C166.66 433.576 167.103 433.367 167.511 433.016C167.894 432.687 168.152 432.325 168.286 431.93C168.419 431.536 168.466 431.141 168.427 430.745C168.398 430.361 168.293 429.99 168.112 429.629C167.942 429.281 167.745 428.978 167.522 428.718C166.831 427.915 165.992 427.465 165.006 427.368C164.042 427.272 163.202 427.533 162.486 428.149L161.258 426.722C161.79 426.265 162.393 425.929 163.067 425.714C163.755 425.489 164.443 425.402 165.132 425.453C165.845 425.507 166.541 425.704 167.22 426.044C167.912 426.373 168.539 426.865 169.102 427.52C169.538 428.026 169.872 428.589 170.102 429.207C170.333 429.825 170.443 430.44 170.432 431.052C170.431 431.676 170.299 432.284 170.035 432.876C169.783 433.458 169.392 433.978 168.86 434.435C168.304 434.913 167.731 435.234 167.141 435.398C166.562 435.574 165.967 435.645 165.357 435.61C164.771 435.578 164.172 435.469 163.562 435.285C162.962 435.113 162.358 434.923 161.75 434.715C160.724 434.373 159.712 434.083 158.713 433.846C157.713 433.609 156.76 433.688 155.852 434.082L161.83 441.031L160.459 442.21Z" fill="white"/>
<path d="M164.491 444.049C164.561 444.205 164.656 444.391 164.779 444.608C164.913 444.815 165.066 445.017 165.236 445.215C165.735 445.795 166.267 446.338 166.83 446.842C167.416 447.348 168.017 447.723 168.635 447.966C169.252 448.209 169.887 448.285 170.541 448.196C171.218 448.108 171.896 447.772 172.576 447.187C173.255 446.603 173.662 445.951 173.797 445.234C173.955 444.517 173.747 443.826 173.173 443.159C172.737 442.652 172.193 442.282 171.54 442.048C170.9 441.804 170.364 441.706 169.933 441.754L168.754 440.383L175.574 435.418L181.855 442.719L180.484 443.899L175.287 437.858L171.4 440.686C172.056 440.723 172.651 440.878 173.185 441.149C173.743 441.422 174.271 441.849 174.77 442.429C175.132 442.849 175.404 443.303 175.587 443.791C175.78 444.291 175.864 444.799 175.836 445.317C175.819 445.848 175.675 446.38 175.404 446.914C175.145 447.438 174.738 447.939 174.182 448.417C173.305 449.172 172.402 449.659 171.472 449.878C170.566 450.098 169.67 450.106 168.784 449.901C167.91 449.685 167.051 449.285 166.205 448.702C165.371 448.108 164.593 447.391 163.87 446.551C163.615 446.254 163.373 445.935 163.145 445.595C162.914 445.277 162.741 444.975 162.623 444.689L164.491 444.049Z" fill="white"/>
<path d="M196.604 459.639C197.327 460.479 197.873 461.363 198.242 462.292C198.612 463.221 198.772 464.158 198.725 465.102C198.677 466.046 198.404 466.979 197.908 467.9C197.422 468.835 196.69 469.722 195.715 470.561C194.615 471.507 193.542 472.183 192.494 472.59C191.447 472.997 190.44 473.164 189.475 473.091C188.521 473.031 187.605 472.754 186.729 472.261C185.866 471.757 185.062 471.073 184.318 470.208C183.957 469.788 183.597 469.345 183.24 468.879C182.88 468.436 182.56 468.001 182.28 467.576L194.325 457.214C194.715 457.567 195.101 457.954 195.486 458.376C195.881 458.81 196.254 459.231 196.604 459.639ZM195.315 460.876C195.177 460.716 195.017 460.542 194.834 460.355C194.663 460.18 194.486 459.999 194.303 459.812L184.853 467.943C185.01 468.151 185.168 468.359 185.326 468.567C185.483 468.776 185.631 468.96 185.769 469.121C186.471 469.936 187.185 470.504 187.912 470.824C188.662 471.146 189.398 471.277 190.119 471.215C190.85 471.166 191.571 470.955 192.281 470.581C193.003 470.196 193.698 469.716 194.365 469.142C194.995 468.6 195.514 468.004 195.921 467.353C196.34 466.691 196.606 466 196.718 465.28C196.84 464.573 196.791 463.842 196.571 463.085C196.361 462.342 195.942 461.605 195.315 460.876Z" fill="white"/>
<path d="M199.778 485.142L198.407 486.322L191.95 478.817L203.995 468.455L210.388 475.886L209.017 477.066L203.899 471.117L200.249 474.258L204.218 478.872L202.847 480.051L198.877 475.437L194.597 479.12L199.778 485.142Z" fill="white"/>
<path d="M216.776 491.595L214.966 490.766C215.903 489.68 216.426 488.564 216.535 487.417C216.655 486.282 216.353 485.294 215.631 484.454C214.77 483.454 213.635 483.022 212.227 483.159C210.831 483.285 209.428 483.954 208.02 485.165C207.291 485.792 206.693 486.446 206.226 487.128C205.771 487.799 205.455 488.468 205.278 489.137C205.113 489.794 205.088 490.428 205.204 491.038C205.331 491.66 205.607 492.218 206.032 492.712C206.723 493.515 207.602 493.962 208.67 494.054C209.748 494.158 210.843 493.882 211.956 493.226L212.201 495.273C210.799 495.942 209.413 496.155 208.045 495.914C206.699 495.674 205.559 495.011 204.623 493.923C203.996 493.195 203.576 492.406 203.362 491.558C203.161 490.699 203.152 489.826 203.334 488.939C203.528 488.04 203.908 487.144 204.472 486.251C205.048 485.346 205.806 484.49 206.745 483.683C207.659 482.896 208.594 482.296 209.549 481.883C210.517 481.459 211.447 481.228 212.34 481.191C213.232 481.154 214.082 481.305 214.889 481.643C215.695 481.98 216.412 482.514 217.039 483.243C218.049 484.416 218.52 485.752 218.454 487.249C218.411 488.748 217.851 490.197 216.776 491.595Z" fill="white"/>
<path d="M227.369 519.989L219.973 511.391C220.677 510.785 221.379 510.353 222.081 510.093C222.782 509.834 223.468 509.695 224.14 509.676C224.824 509.646 225.496 509.703 226.155 509.845C226.838 509.988 227.495 510.165 228.126 510.374C228.747 510.571 229.345 510.766 229.92 510.959C230.505 511.165 231.06 511.311 231.585 511.397C232.121 511.495 232.623 511.503 233.091 511.423C233.57 511.355 234.014 511.146 234.421 510.795C234.804 510.465 235.063 510.104 235.196 509.709C235.33 509.315 235.377 508.92 235.337 508.524C235.308 508.14 235.203 507.768 235.022 507.408C234.852 507.06 234.655 506.756 234.432 506.497C233.741 505.694 232.903 505.244 231.916 505.147C230.953 505.051 230.113 505.312 229.396 505.928L228.169 504.501C228.7 504.044 229.303 503.708 229.978 503.493C230.665 503.267 231.353 503.18 232.043 503.232C232.755 503.286 233.451 503.482 234.13 503.822C234.822 504.152 235.45 504.644 236.013 505.298C236.449 505.805 236.782 506.367 237.013 506.986C237.244 507.604 237.354 508.219 237.342 508.83C237.342 509.454 237.209 510.063 236.945 510.655C236.693 511.237 236.302 511.757 235.771 512.214C235.215 512.692 234.642 513.013 234.052 513.176C233.472 513.353 232.878 513.423 232.268 513.389C231.681 513.357 231.082 513.248 230.472 513.064C229.873 512.891 229.269 512.702 228.66 512.494C227.635 512.151 226.622 511.862 225.623 511.625C224.624 511.388 223.67 511.466 222.763 511.86L228.741 518.81L227.369 519.989Z" fill="white"/>
<path d="M232.837 526.72C232.242 526.028 231.843 525.264 231.64 524.429C231.447 523.605 231.448 522.756 231.641 521.881C231.833 521.005 232.211 520.132 232.773 519.262C233.348 518.38 234.098 517.541 235.025 516.744C235.952 515.947 236.893 515.33 237.851 514.894C238.82 514.447 239.752 514.193 240.646 514.133C241.541 514.073 242.381 514.2 243.166 514.513C243.962 514.839 244.658 515.347 245.253 516.039C245.848 516.731 246.242 517.488 246.434 518.312C246.637 519.147 246.642 520.003 246.449 520.878C246.256 521.754 245.866 522.637 245.279 523.529C244.705 524.41 243.954 525.25 243.028 526.047C242.101 526.844 241.159 527.461 240.202 527.897C239.257 528.323 238.337 528.566 237.443 528.626C236.549 528.686 235.704 528.553 234.908 528.227C234.122 527.914 233.432 527.412 232.837 526.72ZM236.316 518.245C235.785 518.702 235.317 519.17 234.911 519.648C234.528 520.127 234.209 520.606 233.954 521.084L244.692 520.036C244.768 519.498 244.743 518.982 244.618 518.487C244.504 518.005 244.277 517.566 243.937 517.171C243.119 516.22 242.009 515.842 240.607 516.037C239.217 516.244 237.786 516.98 236.316 518.245ZM234.153 525.588C234.557 526.057 235.041 526.383 235.605 526.564C236.18 526.757 236.794 526.809 237.448 526.719C238.114 526.619 238.807 526.388 239.528 526.026C240.271 525.666 241.007 525.173 241.736 524.546C242.255 524.099 242.705 523.648 243.086 523.191C243.479 522.724 243.798 522.256 244.041 521.789L233.371 522.843C233.31 523.346 233.343 523.834 233.469 524.306C233.595 524.778 233.823 525.205 234.153 525.588Z" fill="white"/>
<path d="M242.396 537.831C241.8 537.139 241.401 536.376 241.198 535.54C241.006 534.716 241.006 533.867 241.199 532.992C241.392 532.117 241.77 531.244 242.332 530.373C242.907 529.492 243.657 528.652 244.584 527.855C245.51 527.058 246.452 526.442 247.409 526.005C248.379 525.558 249.311 525.304 250.205 525.244C251.099 525.184 251.939 525.311 252.725 525.624C253.521 525.95 254.216 526.458 254.811 527.15C255.406 527.842 255.8 528.6 255.993 529.423C256.196 530.259 256.201 531.114 256.008 531.99C255.815 532.865 255.425 533.748 254.838 534.64C254.263 535.522 253.513 536.361 252.586 537.158C251.66 537.955 250.718 538.572 249.761 539.008C248.816 539.434 247.896 539.677 247.002 539.737C246.108 539.797 245.262 539.664 244.466 539.339C243.681 539.025 242.991 538.523 242.396 537.831ZM245.875 529.356C245.344 529.813 244.875 530.281 244.47 530.759C244.087 531.239 243.768 531.717 243.512 532.195L254.251 531.147C254.326 530.609 254.301 530.093 254.177 529.599C254.063 529.116 253.836 528.677 253.496 528.282C252.677 527.331 251.567 526.953 250.166 527.148C248.775 527.356 247.345 528.092 245.875 529.356ZM243.711 536.699C244.115 537.169 244.599 537.494 245.163 537.675C245.738 537.868 246.353 537.92 247.006 537.831C247.673 537.731 248.366 537.5 249.086 537.138C249.83 536.777 250.566 536.284 251.295 535.657C251.814 535.211 252.264 534.759 252.645 534.302C253.038 533.835 253.356 533.368 253.599 532.901L242.93 533.954C242.869 534.458 242.901 534.945 243.028 535.417C243.154 535.889 243.382 536.316 243.711 536.699Z" fill="white"/>
<path d="M250.519 544.05C250.588 544.206 250.684 544.392 250.806 544.609C250.941 544.816 251.093 545.018 251.264 545.216C251.763 545.796 252.294 546.339 252.857 546.843C253.443 547.35 254.045 547.724 254.662 547.967C255.28 548.21 255.915 548.287 256.569 548.197C257.246 548.109 257.924 547.773 258.603 547.188C259.283 546.604 259.69 545.953 259.825 545.235C259.983 544.519 259.775 543.827 259.201 543.16C258.765 542.653 258.221 542.283 257.568 542.049C256.928 541.805 256.392 541.707 255.961 541.755L254.781 540.384L261.602 535.419L267.883 542.72L266.512 543.9L261.315 537.859L257.428 540.687C258.084 540.724 258.679 540.879 259.213 541.15C259.77 541.423 260.299 541.85 260.798 542.431C261.159 542.851 261.432 543.304 261.614 543.792C261.808 544.292 261.891 544.801 261.864 545.319C261.847 545.849 261.703 546.381 261.432 546.916C261.173 547.439 260.766 547.94 260.21 548.418C259.333 549.173 258.429 549.66 257.5 549.879C256.594 550.1 255.697 550.107 254.812 549.902C253.938 549.686 253.078 549.287 252.232 548.703C251.399 548.109 250.621 547.392 249.898 546.552C249.643 546.255 249.401 545.937 249.172 545.596C248.942 545.278 248.768 544.976 248.651 544.69L250.519 544.05Z" fill="white"/>
<path d="M324.257 542.282L320.797 547.973L325.141 553.021L318.659 551.49L315.2 557.181L314.653 550.543L308.172 549.012L314.316 546.441L313.77 539.804L318.113 544.852L324.257 542.282Z" fill="white"/>
<path d="M177.795 372.03L174.335 377.72L178.679 382.769L172.197 381.238L168.738 386.929L168.191 380.291L161.71 378.759L167.854 376.189L167.308 369.551L171.651 374.6L177.795 372.03Z" fill="white"/>
<path d="M303.756 433.824L295.819 424.597C295.459 424.178 294.827 424.131 294.409 424.491L275.958 440.364C275.744 440.547 275.618 440.813 275.611 441.095L275.202 456.395C275.173 457.499 273.639 457.747 273.263 456.709L267.11 439.741C267.029 439.518 266.872 439.332 266.666 439.214L250.084 429.733C249.113 429.178 249.647 427.691 250.749 427.879L266.569 430.588C266.863 430.638 267.164 430.555 267.39 430.361L285.819 414.506C286.238 414.146 286.285 413.515 285.925 413.096L278.942 404.979L243.989 373.642C243.116 372.858 244.072 371.471 245.115 372.008L288.246 394.22C288.609 394.407 289.048 394.355 289.356 394.089L297.86 386.775C298.278 386.414 298.91 386.462 299.27 386.88L302.737 390.911C303.098 391.33 303.05 391.961 302.632 392.322L299.072 395.384C298.538 395.843 298.633 396.696 299.256 397.026L304.301 399.699C304.665 399.892 305.109 399.842 305.422 399.574L335.073 374.066C335.225 373.935 335.413 373.853 335.613 373.83L344.18 372.863C344.88 372.784 345.441 373.435 345.258 374.116L343.021 382.442C342.969 382.636 342.86 382.81 342.708 382.941L313.057 408.449C312.745 408.717 312.629 409.15 312.765 409.538L314.655 414.926C314.888 415.591 315.717 415.813 316.251 415.353L319.81 412.291C320.229 411.931 320.861 411.978 321.221 412.397L323.734 415.318C324.094 415.737 324.047 416.368 323.628 416.729L315.138 424.032C314.823 424.304 314.708 424.742 314.851 425.133L332.458 473.471C332.863 474.584 331.34 475.353 330.685 474.367L303.756 433.824Z" fill="white"/>
</svg>
