<svg width="388" height="275" viewBox="0 0 388 275" fill="none" xmlns="http://www.w3.org/2000/svg">
<path d="M167.353 13.7407C172.404 6.15194 182.651 4.09459 190.24 9.14552L373.295 130.983C380.884 136.034 382.941 146.281 377.89 153.869L330.239 225.464C325.188 233.053 314.941 235.11 307.352 230.059L124.297 108.222C116.708 103.171 114.651 92.9243 119.702 85.3355L167.353 13.7407Z" fill="#0085FF"/>
<path fill-rule="evenodd" clip-rule="evenodd" d="M372.381 132.357L189.325 10.5196C182.495 5.97376 173.273 7.82537 168.728 14.6553L121.076 86.25C116.53 93.08 118.381 102.302 125.211 106.848L308.267 228.685C315.097 233.231 324.319 231.379 328.865 224.55L376.516 152.955C381.062 146.125 379.211 136.903 372.381 132.357ZM190.24 9.14552C182.651 4.09459 172.404 6.15194 167.353 13.7407L119.702 85.3355C114.651 92.9243 116.708 103.171 124.297 108.222L307.352 230.059C314.941 235.11 325.188 233.053 330.239 225.464L377.89 153.869C382.941 146.281 380.884 136.034 373.295 130.983L190.24 9.14552Z" fill="white"/>
<path fill-rule="evenodd" clip-rule="evenodd" d="M368.653 138.714L184.9 16.4119C181.106 13.8864 175.982 14.9151 173.457 18.7095L126.641 89.0479C124.116 92.8423 125.144 97.9656 128.939 100.491L312.691 222.793C316.486 225.318 321.609 224.289 324.135 220.495L370.95 150.157C373.476 146.362 372.447 141.239 368.653 138.714ZM185.357 15.7249C181.183 12.9468 175.548 14.0784 172.77 18.2522L125.954 88.5907C123.176 92.7645 124.308 98.4001 128.481 101.178L312.234 223.48C316.408 226.258 322.044 225.126 324.822 220.952L371.637 150.614C374.415 146.44 373.284 140.804 369.11 138.026L185.357 15.7249Z" fill="white"/>
<path d="M182.396 22.6888L181.595 25.551L184.069 27.198L181.099 27.32L180.297 30.1822L179.264 27.3954L176.294 27.5175L178.625 25.6731L177.591 22.8863L180.065 24.5332L182.396 22.6888Z" fill="white"/>
<path d="M191.065 28.4591L190.264 31.3213L192.738 32.9682L189.768 33.0903L188.966 35.9525L187.933 33.1657L184.963 33.2877L187.294 31.4433L186.26 28.6565L188.734 30.3035L191.065 28.4591Z" fill="white"/>
<path d="M199.734 34.2288L198.932 37.0911L201.407 38.738L198.437 38.86L197.635 41.7223L196.602 38.9355L193.632 39.0575L195.963 37.2131L194.929 34.4263L197.403 36.0732L199.734 34.2288Z" fill="white"/>
<path d="M348.349 133.143L347.547 136.005L350.022 137.652L347.052 137.774L346.25 140.637L345.216 137.85L342.246 137.972L344.577 136.127L343.544 133.341L346.018 134.988L348.349 133.143Z" fill="white"/>
<path d="M357.018 138.913L356.216 141.775L358.691 143.422L355.721 143.544L354.919 146.407L353.885 143.62L350.915 143.742L353.246 141.897L352.212 139.111L354.687 140.758L357.018 138.913Z" fill="white"/>
<path d="M365.687 144.683L364.885 147.545L367.36 149.192L364.39 149.314L363.588 152.176L362.554 149.39L359.584 149.512L361.915 147.667L360.881 144.88L363.356 146.527L365.687 144.683Z" fill="white"/>
<path d="M336.721 149.673C336.351 149.427 336.063 149.121 335.859 148.756C335.66 148.395 335.549 147.997 335.524 147.561C335.5 147.126 335.562 146.667 335.711 146.185C335.865 145.696 336.107 145.204 336.436 144.709C336.766 144.213 337.127 143.8 337.518 143.47C337.914 143.133 338.318 142.892 338.729 142.746C339.14 142.601 339.551 142.55 339.96 142.594C340.376 142.642 340.769 142.789 341.139 143.035C341.509 143.281 341.793 143.585 341.991 143.945C342.196 144.31 342.311 144.711 342.335 145.147C342.36 145.582 342.293 146.048 342.135 146.543C341.981 147.032 341.74 147.524 341.41 148.019C341.08 148.514 340.72 148.927 340.328 149.258C339.941 149.581 339.542 149.816 339.131 149.962C338.719 150.107 338.306 150.156 337.89 150.108C337.48 150.064 337.091 149.919 336.721 149.673ZM337.239 145.243C337.05 145.527 336.892 145.808 336.764 146.085C336.648 146.36 336.561 146.626 336.504 146.884L341.401 144.982C341.366 144.72 341.286 144.482 341.163 144.266C341.046 144.055 340.882 143.879 340.671 143.738C340.162 143.4 339.592 143.368 338.961 143.644C338.336 143.924 337.762 144.457 337.239 145.243ZM337.189 148.97C337.44 149.137 337.71 149.226 337.998 149.236C338.293 149.252 338.588 149.195 338.882 149.067C339.182 148.933 339.476 148.734 339.767 148.469C340.068 148.203 340.348 147.875 340.608 147.485C340.792 147.208 340.944 146.937 341.062 146.673C341.185 146.402 341.273 146.141 341.326 145.89L336.462 147.785C336.499 148.029 336.579 148.254 336.7 148.458C336.821 148.663 336.984 148.833 337.189 148.97Z" fill="white"/>
<path d="M346.019 154.661L345.531 155.394L340.31 151.919L340.798 151.186L343.215 152.795L346.453 147.93L344.222 147.803L344.053 146.919L347.014 147.088L347.806 147.616L344.008 153.322L346.019 154.661Z" fill="white"/>
<path d="M351.095 159.098L346.498 156.038C346.749 155.661 347.022 155.366 347.316 155.153C347.611 154.939 347.915 154.784 348.227 154.686C348.544 154.583 348.866 154.521 349.194 154.501C349.533 154.479 349.864 154.475 350.188 154.49C350.504 154.501 350.81 154.514 351.105 154.529C351.407 154.549 351.686 154.544 351.944 154.515C352.208 154.491 352.444 154.429 352.653 154.33C352.869 154.235 353.049 154.079 353.194 153.861C353.33 153.656 353.404 153.452 353.415 153.25C353.426 153.047 353.396 152.856 353.325 152.676C353.261 152.5 353.163 152.339 353.031 152.194C352.906 152.053 352.774 151.937 352.635 151.844C352.205 151.559 351.753 151.458 351.278 151.542C350.814 151.623 350.454 151.856 350.199 152.239L349.436 151.731C349.625 151.447 349.864 151.21 350.152 151.021C350.444 150.825 350.756 150.694 351.086 150.628C351.427 150.559 351.779 150.56 352.142 150.63C352.51 150.694 352.868 150.842 353.218 151.075C353.489 151.255 353.719 151.475 353.909 151.734C354.098 151.994 354.231 152.268 354.306 152.556C354.387 152.849 354.405 153.151 354.359 153.464C354.318 153.77 354.202 154.065 354.013 154.349C353.815 154.646 353.589 154.872 353.334 155.026C353.085 155.185 352.816 155.296 352.525 155.36C352.246 155.422 351.951 155.449 351.641 155.443C351.337 155.441 351.029 155.431 350.716 155.414C350.19 155.388 349.678 155.385 349.178 155.405C348.679 155.426 348.242 155.588 347.868 155.892L351.583 158.364L351.095 159.098Z" fill="white"/>
<path d="M352.132 159.787L352.944 159.298C352.994 159.351 353.057 159.407 353.132 159.466C353.213 159.53 353.31 159.599 353.422 159.674C353.733 159.881 354.081 160.06 354.466 160.211C354.856 160.356 355.242 160.442 355.625 160.468C356.012 160.488 356.381 160.428 356.73 160.289C357.085 160.143 357.383 159.889 357.624 159.526C357.813 159.242 357.894 158.957 357.865 158.671C357.847 158.382 357.66 158.12 357.303 157.882C357.151 157.781 356.987 157.72 356.811 157.698C356.646 157.674 356.449 157.676 356.22 157.705L355.745 157.774L355.546 156.913L359.418 156.402L356.218 154.272L356.706 153.539L360.887 156.321L360.399 157.055L357.801 157.456C357.856 157.474 357.912 157.497 357.969 157.525C358.033 157.558 358.092 157.592 358.144 157.627C358.501 157.865 358.723 158.198 358.809 158.627C358.906 159.054 358.79 159.515 358.46 160.01C358.152 160.473 357.777 160.814 357.335 161.034C356.893 161.255 356.422 161.375 355.923 161.395C355.427 161.409 354.92 161.333 354.401 161.169C353.888 161.008 353.407 160.779 352.958 160.48C352.799 160.374 352.645 160.262 352.495 160.144C352.346 160.025 352.224 159.906 352.132 159.787Z" fill="white"/>
<path d="M169.141 37.9921L168.358 37.4712L174.655 32.3699L175.587 32.9897L173.312 40.7683L172.509 40.2342L173.164 38.0683L170.886 36.5516L169.141 37.9921ZM171.602 35.9701L173.425 37.1835L174.524 33.555L171.602 35.9701Z" fill="white"/>
<path d="M174.992 41.8868L179.278 35.4468L181.726 37.0756C182.162 37.3658 182.436 37.7628 182.548 38.2666C182.672 38.7683 182.576 39.2569 182.259 39.7324C182.017 40.0957 181.725 40.349 181.382 40.4923C181.038 40.6356 180.698 40.6953 180.362 40.6713C180.593 40.9968 180.739 41.3653 180.798 41.7768C180.858 42.1882 180.756 42.5921 180.492 42.9884C180.114 43.5565 179.647 43.8792 179.09 43.9566C178.544 44.0319 178.004 43.8914 177.469 43.5354L174.992 41.8868ZM181.112 37.6537L179.616 36.658L178.198 38.7881L179.615 39.7311C179.886 39.9114 180.195 39.9551 180.543 39.8625C180.901 39.7676 181.188 39.5583 181.404 39.2346C181.593 38.9506 181.657 38.6601 181.598 38.3631C181.545 38.0704 181.383 37.834 181.112 37.6537ZM179.167 40.4048L177.75 39.4619L176.24 41.7307L177.746 42.733C177.891 42.8297 178.047 42.91 178.215 42.9736C178.386 43.0307 178.555 43.057 178.72 43.0525C178.889 43.0414 179.053 42.9884 179.211 42.8937C179.381 42.7967 179.536 42.6426 179.677 42.4312C179.94 42.0349 180.007 41.6552 179.877 41.2922C179.747 40.9292 179.51 40.6334 179.167 40.4048Z" fill="white"/>
<path d="M188.329 44.6304L187.372 44.4793C187.668 43.8475 187.767 43.2554 187.668 42.7032C187.575 42.1553 187.304 41.7319 186.855 41.4329C186.32 41.0768 185.731 41.0234 185.089 41.2725C184.451 41.5151 183.881 42.0128 183.38 42.7658C183.12 43.1555 182.926 43.5408 182.796 43.9216C182.671 44.2958 182.611 44.6512 182.616 44.9879C182.625 45.318 182.696 45.6183 182.831 45.8889C182.972 46.1638 183.175 46.3892 183.439 46.5651C183.868 46.8508 184.339 46.9451 184.852 46.8479C185.371 46.7551 185.848 46.4818 186.284 46.0282L186.667 46.9555C186.098 47.4532 185.476 47.7354 184.803 47.8019C184.141 47.8662 183.519 47.7049 182.938 47.3181C182.548 47.0587 182.247 46.7442 182.036 46.3747C181.829 45.9985 181.709 45.5904 181.678 45.1503C181.652 44.7036 181.712 44.2338 181.859 43.7407C182.01 43.2411 182.253 42.7403 182.587 42.2383C182.912 41.7495 183.272 41.3454 183.666 41.026C184.064 40.7 184.47 40.4698 184.883 40.3352C185.297 40.2007 185.715 40.1597 186.137 40.2122C186.56 40.2646 186.966 40.4206 187.356 40.68C187.983 41.0976 188.38 41.6617 188.545 42.3724C188.722 43.0809 188.65 43.8335 188.329 44.6304Z" fill="white"/>
<path d="M192.497 44.1592C192.946 44.4582 193.319 44.8012 193.614 45.1883C193.909 45.5753 194.107 45.9933 194.209 46.4421C194.31 46.891 194.305 47.3641 194.193 47.8615C194.088 48.3634 193.862 48.8752 193.515 49.397C193.123 49.9848 192.709 50.4428 192.271 50.7711C191.834 51.0993 191.384 51.3098 190.922 51.4026C190.466 51.4997 190.001 51.4902 189.525 51.3739C189.054 51.251 188.588 51.0357 188.125 50.728C187.901 50.5785 187.674 50.418 187.445 50.2466C187.218 50.0861 187.011 49.9245 186.824 49.7618L191.11 43.3219C191.339 43.4361 191.572 43.5669 191.807 43.7141C192.049 43.8658 192.279 44.0142 192.497 44.1592ZM192.056 44.9089C191.97 44.8517 191.872 44.7913 191.762 44.7275C191.658 44.6682 191.551 44.6067 191.441 44.5429L188.078 49.5958C188.18 49.6728 188.281 49.7497 188.382 49.8266C188.483 49.9036 188.577 49.9706 188.663 50.0278C189.099 50.3179 189.508 50.4904 189.891 50.5451C190.285 50.5976 190.647 50.5621 190.977 50.4387C191.314 50.3196 191.624 50.1257 191.907 49.857C192.196 49.5817 192.458 49.2657 192.696 48.909C192.92 48.5722 193.085 48.2244 193.19 47.8656C193.3 47.5002 193.334 47.1415 193.291 46.7894C193.256 46.4418 193.137 46.1052 192.934 45.7796C192.738 45.4585 192.445 45.1682 192.056 44.9089Z" fill="white"/>
<path d="M232.868 60.7494C233.556 61.2077 234.128 61.7318 234.582 62.3219C235.037 62.912 235.344 63.5478 235.504 64.2293C235.664 64.9108 235.662 65.628 235.497 66.3807C235.342 67.1402 235.002 67.9134 234.479 68.7004C233.888 69.5871 233.261 70.2767 232.598 70.7693C231.934 71.2618 231.25 71.5758 230.546 71.7112C229.853 71.8534 229.143 71.8336 228.416 71.652C227.696 71.4604 226.982 71.1288 226.273 70.6571C225.929 70.4279 225.581 70.1821 225.23 69.9196C224.882 69.6738 224.565 69.4265 224.278 69.1778L230.743 59.4644C231.093 59.6402 231.449 59.841 231.81 60.0669C232.181 60.2996 232.534 60.5271 232.868 60.7494ZM232.202 61.8807C232.071 61.7931 231.921 61.7004 231.752 61.6026C231.593 61.5114 231.43 61.417 231.261 61.3191L226.189 68.9404C226.344 69.0581 226.499 69.1759 226.655 69.2937C226.81 69.4115 226.954 69.5142 227.085 69.6018C227.754 70.0465 228.38 70.3125 228.965 70.3998C229.566 70.4839 230.118 70.4342 230.62 70.2508C231.132 70.074 231.603 69.7837 232.032 69.3796C232.469 68.9656 232.866 68.4896 233.224 67.9516C233.562 67.4435 233.809 66.9181 233.966 66.3755C234.129 65.8229 234.177 65.2795 234.109 64.7454C234.051 64.218 233.865 63.7064 233.552 63.2106C233.25 62.7216 232.8 62.2783 232.202 61.8807Z" fill="white"/>
<path d="M240.377 78.2972L239.641 79.403L233.49 75.3093L239.955 65.596L246.045 69.6493L245.309 70.7551L240.434 67.5104L238.474 70.4543L242.256 72.9712L241.52 74.077L237.738 71.5602L235.441 75.0121L240.377 78.2972Z" fill="white"/>
<path d="M242.566 81.3499L249.031 71.6366L253.04 74.3051C253.83 74.8307 254.3 75.5176 254.451 76.3658C254.609 77.2041 254.43 78.0118 253.913 78.7888C253.601 79.2571 253.246 79.625 252.849 79.8925C252.459 80.1501 252.054 80.3191 251.635 80.3997C251.216 80.4803 250.797 80.4742 250.376 80.3813C249.966 80.2952 249.589 80.1376 249.245 79.9085L246.496 78.0789L243.781 82.1586L242.566 81.3499ZM252.031 75.2289L249.51 73.551L247.232 76.9731L249.738 78.6409C250.193 78.9442 250.701 79.0376 251.26 78.9213C251.837 78.8017 252.284 78.5028 252.602 78.0246C252.934 77.5265 253.045 77.0186 252.937 76.5008C252.829 75.9831 252.527 75.5591 252.031 75.2289Z" fill="white"/>
<path d="M251.808 87.5017L250.609 86.7032L260.157 79.0417L261.584 79.9919L258.202 91.7571L256.972 90.9384L257.947 87.6627L254.454 85.3379L251.808 87.5017ZM255.539 84.4645L258.334 86.3244L259.97 80.8367L255.539 84.4645Z" fill="white"/>
<path d="M260.687 93.4109L267.152 83.6975L271.1 86.3256C271.88 86.8445 272.375 87.5049 272.587 88.3068C272.815 89.1055 272.68 89.8785 272.183 90.6257C271.686 91.3728 271.085 91.8575 270.382 92.0796C269.686 92.2918 269.037 92.2908 268.434 92.0766L267.703 98.0807L266.291 97.1407L267.078 91.2821L264.846 89.7962L261.902 94.2195L260.687 93.4109ZM269.848 87.0877L267.631 85.612L265.582 88.6904L268.255 90.4694C268.66 90.7389 269.117 90.8203 269.626 90.7137C270.152 90.6038 270.568 90.3197 270.873 89.8614C271.178 89.4031 271.226 88.9248 271.017 88.4264C270.815 87.9181 270.425 87.4718 269.848 87.0877Z" fill="white"/>
<path d="M272.01 100.947L277.739 92.3399L274.474 90.1667L275.21 89.0609L282.955 94.2159L282.219 95.3218L278.954 93.1486L273.225 101.756L272.01 100.947Z" fill="white"/>
<path d="M285.907 108.601L285.171 109.707L279.02 105.613L285.485 95.9L291.575 99.9533L290.839 101.059L285.964 97.8145L284.005 100.758L287.786 103.275L287.05 104.381L283.269 101.864L280.971 105.316L285.907 108.601Z" fill="white"/>
<path d="M296.61 103.175C297.299 103.633 297.87 104.157 298.325 104.748C298.779 105.338 299.087 105.973 299.247 106.655C299.407 107.336 299.404 108.054 299.239 108.806C299.084 109.566 298.745 110.339 298.221 111.126C297.631 112.013 297.004 112.702 296.34 113.195C295.676 113.687 294.993 114.001 294.289 114.137C293.595 114.279 292.885 114.259 292.159 114.078C291.439 113.886 290.725 113.554 290.016 113.083C289.672 112.854 289.324 112.608 288.973 112.345C288.625 112.099 288.308 111.852 288.02 111.603L294.485 101.89C294.836 102.066 295.191 102.267 295.552 102.493C295.924 102.725 296.276 102.953 296.61 103.175ZM295.945 104.306C295.813 104.219 295.663 104.126 295.495 104.028C295.336 103.937 295.172 103.843 295.004 103.745L289.931 111.366C290.087 111.484 290.242 111.602 290.397 111.719C290.553 111.837 290.696 111.94 290.828 112.027C291.496 112.472 292.123 112.738 292.707 112.825C293.309 112.91 293.86 112.86 294.362 112.676C294.875 112.5 295.345 112.209 295.775 111.805C296.211 111.391 296.608 110.915 296.967 110.377C297.305 109.869 297.552 109.344 297.709 108.801C297.872 108.249 297.92 107.705 297.851 107.171C297.793 106.644 297.608 106.132 297.295 105.636C296.992 105.147 296.542 104.704 295.945 104.306Z" fill="white"/>
<path d="M296.058 199.137L300.809 191.999L302.087 192.849L297.368 199.941C296.72 200.913 295.875 201.49 294.832 201.671C293.796 201.842 292.761 201.583 291.728 200.896C290.695 200.208 290.057 199.353 289.814 198.332C289.579 197.3 289.785 196.297 290.432 195.324L295.152 188.233L296.43 189.084L291.679 196.222C291.282 196.819 291.165 197.434 291.326 198.07C291.487 198.705 291.892 199.239 292.542 199.672C293.192 200.105 293.841 200.272 294.49 200.176C295.138 200.079 295.661 199.733 296.058 199.137Z" fill="white"/>
<path d="M298.088 203.522L299.693 203.05C299.861 203.63 300.171 204.191 300.625 204.734C301.095 205.274 301.656 205.76 302.306 206.193C303.041 206.682 303.733 206.924 304.382 206.919C305.032 206.913 305.53 206.649 305.878 206.126C306.233 205.592 306.237 205.044 305.89 204.481C305.56 203.914 304.97 203.137 304.121 202.149C303.272 201.161 302.702 200.284 302.413 199.518C302.124 198.752 302.25 197.961 302.793 197.145C303.1 196.685 303.467 196.341 303.895 196.113C304.334 195.892 304.801 195.78 305.295 195.777C305.796 195.763 306.309 195.848 306.833 196.031C307.374 196.21 307.901 196.47 308.412 196.81C308.934 197.158 309.438 197.591 309.922 198.11C310.414 198.618 310.803 199.292 311.09 200.132L309.67 200.568C309.47 199.967 309.181 199.443 308.803 198.995C308.432 198.536 308.001 198.144 307.511 197.818C306.829 197.364 306.179 197.128 305.562 197.109C304.954 197.097 304.473 197.358 304.118 197.891C303.763 198.425 303.728 198.952 304.011 199.473C304.306 200.001 304.776 200.645 305.422 201.407C305.785 201.831 306.148 202.268 306.508 202.719C306.869 203.171 307.157 203.627 307.373 204.087C307.589 204.548 307.71 205.013 307.736 205.483C307.761 205.953 307.624 206.413 307.325 206.862C306.956 207.417 306.528 207.818 306.039 208.067C305.569 208.312 305.072 208.434 304.55 208.434C304.028 208.433 303.483 208.327 302.916 208.116C302.367 207.902 301.827 207.617 301.294 207.263C300.591 206.795 299.94 206.248 299.341 205.623C298.749 204.988 298.332 204.287 298.088 203.522Z" fill="white"/>
<path d="M308.264 211.675L307.001 210.835L317.032 202.797L318.534 203.796L314.991 216.153L313.697 215.291L314.718 211.851L311.043 209.405L308.264 211.675ZM312.183 208.489L315.124 210.446L316.838 204.682L312.183 208.489Z" fill="white"/>
<path d="M183.877 128.886L176.284 123.832C176.682 123.235 177.117 122.77 177.592 122.435C178.066 122.101 178.557 121.861 179.063 121.715C179.577 121.558 180.101 121.468 180.635 121.446C181.187 121.42 181.728 121.425 182.256 121.459C182.773 121.486 183.273 121.516 183.754 121.549C184.247 121.59 184.702 121.591 185.122 121.552C185.552 121.521 185.936 121.429 186.273 121.276C186.622 121.131 186.912 120.885 187.142 120.539C187.358 120.214 187.472 119.89 187.483 119.565C187.495 119.24 187.44 118.932 187.32 118.64C187.21 118.355 187.045 118.094 186.825 117.857C186.616 117.627 186.397 117.436 186.168 117.284C185.459 116.812 184.718 116.636 183.945 116.757C183.19 116.874 182.611 117.236 182.206 117.844L180.946 117.005C181.246 116.555 181.628 116.182 182.092 115.886C182.564 115.58 183.068 115.379 183.604 115.283C184.158 115.183 184.733 115.195 185.327 115.319C185.929 115.432 186.519 115.681 187.097 116.066C187.544 116.363 187.926 116.723 188.243 117.146C188.56 117.569 188.784 118.012 188.915 118.478C189.057 118.95 189.096 119.436 189.03 119.937C188.972 120.427 188.792 120.897 188.493 121.348C188.179 121.819 187.816 122.175 187.405 122.415C187.004 122.662 186.568 122.832 186.096 122.926C185.642 123.017 185.162 123.053 184.655 123.033C184.16 123.021 183.657 122.996 183.147 122.959C182.288 122.901 181.451 122.881 180.637 122.898C179.823 122.915 179.115 123.162 178.514 123.639L184.651 127.723L183.877 128.886Z" fill="white"/>
<path d="M185.589 130.025L186.898 129.264C186.982 129.351 187.086 129.442 187.21 129.54C187.345 129.645 187.505 129.759 187.691 129.883C188.203 130.224 188.776 130.522 189.409 130.777C190.049 131.022 190.682 131.171 191.308 131.224C191.94 131.267 192.539 131.183 193.106 130.97C193.679 130.747 194.158 130.348 194.541 129.772C194.841 129.321 194.963 128.866 194.907 128.406C194.869 127.942 194.556 127.514 193.967 127.122C193.716 126.955 193.447 126.852 193.159 126.811C192.889 126.767 192.567 126.765 192.195 126.804L191.422 126.902L191.071 125.513L197.372 124.809L192.087 121.291L192.86 120.128L199.766 124.724L198.992 125.887L194.767 126.453C194.857 126.483 194.949 126.522 195.043 126.569C195.149 126.624 195.245 126.681 195.332 126.739C195.921 127.131 196.292 127.673 196.446 128.364C196.617 129.053 196.442 129.79 195.919 130.575C195.431 131.309 194.83 131.845 194.115 132.186C193.4 132.526 192.636 132.705 191.821 132.723C191.014 132.729 190.184 132.593 189.332 132.313C188.49 132.04 187.699 131.656 186.957 131.163C186.695 130.988 186.44 130.804 186.192 130.608C185.944 130.413 185.743 130.219 185.589 130.025Z" fill="white"/>
<path d="M213.503 143.934L217.372 138.12L212.315 134.755L213.089 133.592L219.455 137.829L215.021 144.491C214.177 145.758 213.231 146.481 212.183 146.661C211.142 146.829 210.076 146.55 208.986 145.824C208.473 145.483 208.058 145.101 207.741 144.679C207.435 144.263 207.22 143.841 207.097 143.411C206.992 142.978 206.974 142.543 207.045 142.107C207.122 141.659 207.286 141.247 207.537 140.87C207.795 140.482 208.117 140.176 208.504 139.949C208.891 139.723 209.31 139.579 209.761 139.516L210.121 140.89C209.846 140.948 209.593 141.045 209.363 141.178C209.139 141.301 208.95 141.478 208.797 141.709C208.518 142.128 208.47 142.625 208.654 143.201C208.845 143.766 209.267 144.266 209.922 144.702C210.576 145.137 211.216 145.299 211.842 145.186C212.468 145.074 213.021 144.656 213.503 143.934Z" fill="white"/>
<path d="M223.396 150.768L228.154 143.619L229.463 144.49L224.736 151.592C224.088 152.566 223.234 153.139 222.175 153.311C221.123 153.472 220.068 153.201 219.01 152.496C217.952 151.792 217.294 150.924 217.037 149.891C216.787 148.848 216.986 147.839 217.634 146.865L222.361 139.763L223.67 140.635L218.912 147.783C218.515 148.38 218.401 149 218.572 149.643C218.742 150.285 219.16 150.828 219.826 151.271C220.491 151.714 221.153 151.89 221.812 151.799C222.47 151.709 222.998 151.365 223.396 150.768Z" fill="white"/>
<path d="M230.334 159.806L232.847 148.012L226.635 157.345L225.375 156.506L232.173 146.294L234.529 147.862L232.148 158.996L238.014 150.182L239.274 151.021L232.477 161.233L230.334 159.806Z" fill="white"/>
<path d="M253.954 173.85L253.181 175.013L244.557 169.273L245.331 168.111L249.324 170.768L254.458 163.054L250.814 162.782L250.511 161.356L255.347 161.718L256.656 162.589L250.633 171.639L253.954 173.85Z" fill="white"/>
<path d="M265.95 168.549C266.507 168.919 266.959 169.363 267.306 169.882C267.661 170.39 267.891 170.943 267.996 171.542C268.108 172.131 268.084 172.758 267.925 173.422C267.777 174.095 267.476 174.771 267.023 175.452C266.326 176.499 265.574 177.322 264.767 177.918C263.961 178.515 263.147 178.91 262.325 179.104C261.504 179.298 260.684 179.312 259.866 179.145C259.066 178.975 258.311 178.655 257.602 178.183C257.275 177.965 256.963 177.712 256.667 177.424C256.374 177.154 256.097 176.848 255.836 176.508L256.94 175.701C257.146 175.959 257.36 176.193 257.583 176.402C257.806 176.61 258.038 176.795 258.278 176.955C258.834 177.325 259.419 177.57 260.031 177.691C260.651 177.801 261.253 177.794 261.839 177.67C262.433 177.536 263.006 177.29 263.558 176.932C264.122 176.582 264.626 176.132 265.071 175.581C264.541 175.787 263.937 175.854 263.261 175.782C262.596 175.717 261.92 175.456 261.232 174.999C260.676 174.629 260.238 174.223 259.917 173.783C259.603 173.332 259.395 172.876 259.292 172.415C259.208 171.951 259.22 171.483 259.329 171.011C259.438 170.54 259.636 170.089 259.922 169.66C260.633 168.592 261.537 167.954 262.635 167.748C263.743 167.548 264.849 167.815 265.95 168.549ZM265.218 169.649C264.564 169.213 263.864 169.034 263.119 169.113C262.381 169.181 261.761 169.592 261.259 170.346C260.792 171.048 260.662 171.74 260.87 172.422C261.084 173.094 261.54 173.662 262.238 174.126C262.904 174.569 263.616 174.741 264.375 174.642C265.14 174.532 265.722 174.178 266.119 173.581C266.538 172.953 266.657 172.253 266.477 171.484C266.303 170.703 265.884 170.092 265.218 169.649Z" fill="white"/>
<path d="M162.133 79.312L176.527 57.6853L185.188 63.4498C186.894 64.5852 187.899 66.0863 188.203 67.953C188.522 69.7975 188.105 71.5849 186.954 73.315C186.26 74.3575 185.476 75.18 184.601 75.7823C183.742 76.3625 182.854 76.7479 181.938 76.9385C181.022 77.1291 180.108 77.1284 179.194 76.9364C178.302 76.7589 177.485 76.4227 176.741 75.9278L170.803 71.9756L164.757 81.0588L162.133 79.312ZM182.959 65.5189L177.513 61.8942L172.442 69.5135L177.855 73.1163C178.839 73.7713 179.943 73.962 181.167 73.6882C182.427 73.4068 183.411 72.7337 184.12 71.669C184.858 70.56 185.117 69.436 184.897 68.2971C184.676 67.1582 184.03 66.2322 182.959 65.5189Z" fill="white"/>
<path d="M187.488 96.6677C186.263 95.8525 185.314 94.8367 184.64 93.6201C183.988 92.4182 183.626 91.089 183.554 89.6327C183.482 88.1763 183.699 86.6406 184.206 85.0255C184.728 83.3883 185.542 81.7378 186.65 80.0742C187.757 78.4106 188.965 77.0222 190.274 75.909C191.598 74.7736 192.945 73.9581 194.317 73.4625C195.688 72.9669 197.054 72.7878 198.414 72.925C199.797 73.0769 201.1 73.5604 202.325 74.3756C203.55 75.1907 204.488 76.1993 205.14 77.4013C205.813 78.6178 206.186 79.9542 206.258 81.4106C206.33 82.8669 206.098 84.4248 205.562 86.0843C205.04 87.7215 204.226 89.372 203.119 91.0356C202.011 92.6992 200.803 94.0876 199.494 95.2008C198.2 96.2918 196.867 97.0851 195.496 97.5807C194.125 98.0763 192.748 98.2482 191.365 98.0964C190.005 97.9591 188.712 97.4829 187.488 96.6677ZM189.171 94.139C190.811 95.2308 192.658 95.3241 194.713 94.4188C196.782 93.4914 198.665 91.7522 200.363 89.2014C202.075 86.6284 202.96 84.2085 203.017 81.9419C203.074 79.6752 202.282 77.996 200.642 76.9042C199.002 75.8125 197.147 75.7303 195.078 76.6577C193.009 77.5852 191.118 79.3354 189.405 81.9084C187.708 84.4593 186.83 86.868 186.773 89.1347C186.731 91.3792 187.53 93.0473 189.171 94.139Z" fill="white"/>
<path d="M201.278 105.366L215.673 83.7396L224.202 89.4167C225.886 90.5376 226.946 91.9794 227.383 93.7422C227.856 95.4973 227.539 97.2066 226.431 98.8702C225.324 100.534 224.001 101.621 222.461 102.133C220.936 102.622 219.52 102.64 218.212 102.186L216.435 115.454L213.384 113.424L215.28 100.474L210.458 97.2646L203.903 107.113L201.278 105.366ZM221.448 91.1365L216.658 87.9485L212.096 94.8025L217.87 98.6455C218.745 99.2278 219.74 99.3935 220.853 99.1426C222.004 98.884 222.919 98.2446 223.598 97.2243C224.277 96.2039 224.396 95.1472 223.956 94.0541C223.531 92.9387 222.695 91.9662 221.448 91.1365Z" fill="white"/>
<path d="M225.739 121.647L238.495 102.482L231.441 97.7877L233.08 95.3256L249.811 106.462L248.173 108.924L241.119 104.229L228.364 123.394L225.739 121.647Z" fill="white"/>
<path d="M256.3 138.435L254.662 140.897L241.506 132.141L255.901 110.514L258.525 112.261L245.77 131.426L256.3 138.435Z" fill="white"/>
<path d="M260.784 144.972L258.192 143.247L279.246 126.053L282.33 128.105L274.595 154.164L271.938 152.396L274.164 145.139L266.619 140.117L260.784 144.972ZM269.012 138.157L275.048 142.175L278.784 130.018L269.012 138.157Z" fill="white"/>
<path d="M288.886 163.676L294.626 138.978L281.472 158.741L278.946 157.06L293.34 135.433L298.064 138.578L292.629 161.894L305.052 143.229L307.578 144.91L293.184 166.537L288.886 163.676Z" fill="white"/>
<path d="M318.656 151.995C320.143 152.985 321.373 154.123 322.346 155.411C323.32 156.699 323.97 158.093 324.298 159.591C324.626 161.09 324.599 162.672 324.216 164.338C323.855 166.018 323.092 167.734 321.925 169.487C320.611 171.461 319.223 173.001 317.76 174.108C316.298 175.215 314.797 175.929 313.259 176.249C311.742 176.584 310.194 176.562 308.616 176.183C307.052 175.783 305.504 175.073 303.973 174.054C303.23 173.559 302.479 173.027 301.721 172.459C300.971 171.927 300.286 171.391 299.667 170.851L314.061 149.225C314.82 149.602 315.589 150.034 316.37 150.521C317.172 151.023 317.934 151.514 318.656 151.995ZM317.17 154.511C316.886 154.322 316.561 154.122 316.197 153.911C315.854 153.715 315.5 153.511 315.135 153.301L303.841 170.269C304.177 170.524 304.512 170.779 304.847 171.034C305.182 171.29 305.492 171.512 305.776 171.701C307.22 172.662 308.578 173.229 309.85 173.404C311.159 173.571 312.363 173.445 313.464 173.025C314.586 172.619 315.621 171.964 316.57 171.06C317.534 170.133 318.415 169.071 319.212 167.873C319.965 166.742 320.521 165.575 320.879 164.373C321.252 163.149 321.372 161.949 321.24 160.772C321.129 159.611 320.741 158.488 320.074 157.404C319.428 156.334 318.461 155.37 317.17 154.511Z" fill="white"/>
<path d="M148.741 99.8109L148.333 96.5156C148.277 96.0633 147.865 95.742 147.413 95.798L140.541 96.6487C140.31 96.6773 140.102 96.8021 139.968 96.9923L138.875 98.5431C138.35 99.2881 137.182 98.7575 137.399 97.872L138.062 95.1523C138.109 94.9623 138.086 94.762 137.999 94.5872L136.684 91.962C136.271 91.1367 137.318 90.3588 137.989 90.9925L139.387 92.3125C139.566 92.4815 139.81 92.5618 140.055 92.5316L146.903 91.6837C147.356 91.6277 147.677 91.2156 147.621 90.7632L147.27 87.9252L144.57 77.4689C144.328 76.5314 145.62 76.0152 146.091 76.8612L151.417 86.4282C151.58 86.7219 151.906 86.8871 152.239 86.8458L154.895 86.517C155.347 86.461 155.759 86.7823 155.815 87.2346L155.895 87.8823C155.951 88.3346 155.63 88.7467 155.178 88.8027L154.96 88.8297C154.383 88.9011 154.059 89.5306 154.336 90.0417L154.669 90.6579C154.831 90.9566 155.159 91.1257 155.497 91.084L167.213 89.6335C167.377 89.6132 167.544 89.6428 167.691 89.7186L169.298 90.5446C169.816 90.8106 169.903 91.5143 169.466 91.8984L168.109 93.0914C167.984 93.2009 167.83 93.2703 167.665 93.2907L155.949 94.7411C155.612 94.7829 155.335 95.0269 155.251 95.356L155.078 96.035C154.934 96.5982 155.402 97.1296 155.979 97.0582L156.197 97.0313C156.649 96.9753 157.061 97.2966 157.117 97.7489L157.141 97.9394C157.197 98.3917 156.875 98.8038 156.423 98.8598L153.781 99.1869C153.441 99.229 153.162 99.4777 153.081 99.8114L150.358 111.038C150.128 111.987 148.73 111.819 148.731 110.842L148.741 99.8109Z" fill="white"/>
<path d="M12.2397 128.805C13.2054 119.74 21.3367 113.175 30.4014 114.14L290.549 141.855C299.614 142.82 306.18 150.952 305.214 160.016L294.723 258.495C293.757 267.56 285.626 274.125 276.561 273.16L16.4131 245.445C7.34839 244.48 0.78283 236.348 1.74852 227.284L12.2397 128.805Z" fill="#0085FF"/>
<path fill-rule="evenodd" clip-rule="evenodd" d="M290.375 143.496L30.2266 115.782C22.0683 114.913 14.7502 120.822 13.8811 128.98L3.38983 227.459C2.52071 235.617 8.42972 242.935 16.588 243.804L276.736 271.518C284.894 272.388 292.212 266.479 293.082 258.32L303.573 159.842C304.442 151.683 298.533 144.365 290.375 143.496ZM30.4014 114.14C21.3367 113.175 13.2054 119.74 12.2397 128.805L1.74852 227.284C0.78283 236.348 7.34839 244.48 16.4131 245.445L276.561 273.16C285.626 274.125 293.757 267.56 294.723 258.495L305.214 160.016C306.18 150.952 299.614 142.82 290.549 141.855L30.4014 114.14Z" fill="white"/>
<path fill-rule="evenodd" clip-rule="evenodd" d="M16.3648 236.137L16.8549 234.561C17.3105 234.702 17.7878 234.802 18.2832 234.855L19.9413 235.032L19.7665 236.673L18.1083 236.496C17.5054 236.432 16.9226 236.31 16.3648 236.137ZM275.131 263.878L275.306 262.236L276.964 262.413C277.46 262.466 277.947 262.469 278.423 262.426L278.57 264.07C277.988 264.122 277.392 264.118 276.789 264.054L275.131 263.878ZM281.967 263.068L281.199 261.607C282.063 261.153 282.831 260.533 283.457 259.784L284.724 260.842C283.96 261.757 283.022 262.514 281.967 263.068ZM296.751 162.379L295.11 162.204L295.279 160.618C295.331 160.122 295.334 159.635 295.292 159.16L296.936 159.013C296.988 159.594 296.984 160.19 296.92 160.793L296.751 162.379ZM295.934 155.615L294.473 156.383C294.019 155.519 293.398 154.751 292.65 154.125L293.708 152.858C294.622 153.622 295.38 154.56 295.934 155.615ZM31.8314 123.422L30.1732 123.246C29.5703 123.181 28.975 123.178 28.3931 123.23L28.5401 124.874C29.0154 124.831 29.503 124.834 29.9984 124.887L31.6566 125.064L31.8314 123.422ZM24.9956 124.232L25.7634 125.693C24.8997 126.147 24.1313 126.767 23.5057 127.516L22.2391 126.457C23.0031 125.543 23.9409 124.786 24.9956 124.232ZM10.2118 224.921L11.8531 225.096L11.6841 226.682C11.6313 227.178 11.6285 227.665 11.671 228.14L10.0269 228.287C9.9749 227.706 9.97856 227.11 10.0428 226.507L10.2118 224.921ZM11.0289 231.685L12.4901 230.917C12.9439 231.781 13.5644 232.549 14.313 233.175L13.2546 234.441C12.3404 233.677 11.5831 232.74 11.0289 231.685ZM10.5499 221.747L12.1912 221.922L12.5292 218.749L10.8879 218.574L10.5499 221.747ZM11.226 215.401L12.8673 215.576L13.2053 212.403L11.564 212.228L11.226 215.401ZM11.9021 209.055L13.5434 209.23L13.8814 206.056L12.2401 205.881L11.9021 209.055ZM12.5782 202.708L14.2195 202.883L14.5575 199.71L12.9162 199.535L12.5782 202.708ZM13.2543 196.362L14.8956 196.537L15.2336 193.364L13.5923 193.189L13.2543 196.362ZM13.9304 190.015L15.5717 190.19L15.9097 187.017L14.2684 186.842L13.9304 190.015ZM14.6065 183.669L16.2478 183.844L16.5858 180.671L14.9445 180.496L14.6065 183.669ZM15.2826 177.323L16.9239 177.497L17.2619 174.324L15.6206 174.149L15.2826 177.323ZM15.9587 170.976L17.6 171.151L17.938 167.978L16.2967 167.803L15.9587 170.976ZM16.6348 164.63L18.2761 164.805L18.6141 161.631L16.9728 161.457L16.6348 164.63ZM17.3109 158.283L18.9522 158.458L19.2902 155.285L17.6489 155.11L17.3109 158.283ZM17.987 151.937L19.6283 152.112L19.9663 148.939L18.325 148.764L17.987 151.937ZM18.6631 145.591L20.3044 145.765L20.6424 142.592L19.0011 142.417L18.6631 145.591ZM19.3392 139.244L20.9805 139.419L21.3185 136.246L19.6772 136.071L19.3392 139.244ZM20.0153 132.898L21.6566 133.073L21.8256 131.486C21.8784 130.991 21.9783 130.513 22.12 130.058L20.5438 129.568C20.3704 130.125 20.2485 130.708 20.1843 131.311L20.0153 132.898ZM35.1479 123.776L34.973 125.417L38.2894 125.77L38.4643 124.129L35.1479 123.776ZM41.7807 124.482L41.6059 126.124L44.9223 126.477L45.0971 124.836L41.7807 124.482ZM48.4136 125.189L48.2387 126.83L51.5551 127.183L51.73 125.542L48.4136 125.189ZM55.0464 125.895L54.8715 127.537L58.188 127.89L58.3628 126.249L55.0464 125.895ZM61.6793 126.602L61.5044 128.243L64.8208 128.597L64.9957 126.955L61.6793 126.602ZM68.3121 127.309L68.1372 128.95L71.4537 129.303L71.6285 127.662L68.3121 127.309ZM74.9449 128.015L74.7701 129.657L78.0865 130.01L78.2614 128.369L74.9449 128.015ZM81.5778 128.722L81.4029 130.363L84.7194 130.717L84.8942 129.075L81.5778 128.722ZM88.2106 129.429L88.0358 131.07L91.3522 131.423L91.5271 129.782L88.2106 129.429ZM94.8435 130.135L94.6686 131.776L97.9851 132.13L98.1599 130.488L94.8435 130.135ZM101.476 130.842L101.301 132.483L104.618 132.836L104.793 131.195L101.476 130.842ZM108.109 131.548L107.934 133.19L111.251 133.543L111.426 131.902L108.109 131.548ZM114.742 132.255L114.567 133.896L117.884 134.25L118.058 132.608L114.742 132.255ZM121.375 132.962L121.2 134.603L124.516 134.956L124.691 133.315L121.375 132.962ZM128.008 133.668L127.833 135.31L131.149 135.663L131.324 134.022L128.008 133.668ZM134.641 134.375L134.466 136.016L137.782 136.369L137.957 134.728L134.641 134.375ZM141.273 135.081L141.099 136.723L144.415 137.076L144.59 135.435L141.273 135.081ZM147.906 135.788L147.731 137.429L151.048 137.783L151.223 136.141L147.906 135.788ZM154.539 136.495L154.364 138.136L157.681 138.489L157.856 136.848L154.539 136.495ZM161.172 137.201L160.997 138.843L164.314 139.196L164.488 137.555L161.172 137.201ZM167.805 137.908L167.63 139.549L170.946 139.903L171.121 138.261L167.805 137.908ZM174.438 138.615L174.263 140.256L177.579 140.609L177.754 138.968L174.438 138.615ZM181.07 139.321L180.896 140.962L184.212 141.316L184.387 139.674L181.07 139.321ZM187.703 140.028L187.528 141.669L190.845 142.022L191.02 140.381L187.703 140.028ZM194.336 140.734L194.161 142.376L197.478 142.729L197.653 141.088L194.336 140.734ZM200.969 141.441L200.794 143.082L204.111 143.436L204.285 141.794L200.969 141.441ZM207.602 142.148L207.427 143.789L210.743 144.142L210.918 142.501L207.602 142.148ZM214.235 142.854L214.06 144.496L217.376 144.849L217.551 143.208L214.235 142.854ZM220.868 143.561L220.693 145.202L224.009 145.555L224.184 143.914L220.868 143.561ZM227.5 144.267L227.326 145.909L230.642 146.262L230.817 144.621L227.5 144.267ZM234.133 144.974L233.958 146.615L237.275 146.969L237.45 145.327L234.133 144.974ZM240.766 145.681L240.591 147.322L243.908 147.675L244.083 146.034L240.766 145.681ZM247.399 146.387L247.224 148.029L250.541 148.382L250.715 146.741L247.399 146.387ZM254.032 147.094L253.857 148.735L257.173 149.089L257.348 147.447L254.032 147.094ZM260.665 147.801L260.49 149.442L263.806 149.795L263.981 148.154L260.665 147.801ZM267.298 148.507L267.123 150.148L270.439 150.502L270.614 148.86L267.298 148.507ZM273.93 149.214L273.756 150.855L277.072 151.208L277.247 149.567L273.93 149.214ZM280.563 149.92L280.388 151.562L283.705 151.915L283.88 150.274L280.563 149.92ZM287.196 150.627L287.021 152.268L288.679 152.445C289.175 152.498 289.652 152.598 290.108 152.739L290.598 151.163C290.04 150.99 289.457 150.868 288.854 150.804L287.196 150.627ZM296.413 165.552L294.771 165.378L294.433 168.551L296.075 168.726L296.413 165.552ZM295.737 171.899L294.095 171.724L293.757 174.897L295.399 175.072L295.737 171.899ZM295.061 178.245L293.419 178.07L293.081 181.244L294.723 181.418L295.061 178.245ZM294.384 184.592L292.743 184.417L292.405 187.59L294.046 187.765L294.384 184.592ZM293.708 190.938L292.067 190.763L291.729 193.936L293.37 194.111L293.708 190.938ZM293.032 197.284L291.391 197.11L291.053 200.283L292.694 200.458L293.032 197.284ZM292.356 203.631L290.715 203.456L290.377 206.629L292.018 206.804L292.356 203.631ZM291.68 209.977L290.039 209.802L289.701 212.976L291.342 213.15L291.68 209.977ZM291.004 216.324L289.363 216.149L289.025 219.322L290.666 219.497L291.004 216.324ZM290.328 222.67L288.687 222.495L288.349 225.668L289.99 225.843L290.328 222.67ZM289.652 229.016L288.01 228.842L287.672 232.015L289.314 232.19L289.652 229.016ZM288.976 235.363L287.334 235.188L286.996 238.361L288.638 238.536L288.976 235.363ZM288.3 241.709L286.658 241.534L286.32 244.708L287.962 244.883L288.3 241.709ZM287.623 248.056L285.982 247.881L285.644 251.054L287.285 251.229L287.623 248.056ZM286.947 254.402L285.306 254.227L285.137 255.814C285.084 256.309 284.984 256.786 284.843 257.242L286.419 257.732C286.592 257.174 286.714 256.592 286.778 255.989L286.947 254.402ZM271.815 263.524L271.99 261.883L268.673 261.53L268.498 263.171L271.815 263.524ZM265.182 262.818L265.357 261.176L262.04 260.823L261.866 262.464L265.182 262.818ZM258.549 262.111L258.724 260.47L255.408 260.116L255.233 261.758L258.549 262.111ZM251.916 261.404L252.091 259.763L248.775 259.41L248.6 261.051L251.916 261.404ZM245.283 260.698L245.458 259.057L242.142 258.703L241.967 260.345L245.283 260.698ZM238.651 259.991L238.825 258.35L235.509 257.997L235.334 259.638L238.651 259.991ZM232.018 259.285L232.193 257.643L228.876 257.29L228.701 258.931L232.018 259.285ZM225.385 258.578L225.56 256.937L222.243 256.583L222.068 258.225L225.385 258.578ZM218.752 257.871L218.927 256.23L215.61 255.877L215.436 257.518L218.752 257.871ZM212.119 257.165L212.294 255.523L208.978 255.17L208.803 256.811L212.119 257.165ZM205.486 256.458L205.661 254.817L202.345 254.464L202.17 256.105L205.486 256.458ZM198.853 255.752L199.028 254.11L195.712 253.757L195.537 255.398L198.853 255.752ZM192.221 255.045L192.395 253.404L189.079 253.05L188.904 254.692L192.221 255.045ZM185.588 254.338L185.763 252.697L182.446 252.344L182.271 253.985L185.588 254.338ZM178.955 253.632L179.13 251.99L175.813 251.637L175.639 253.278L178.955 253.632ZM172.322 252.925L172.497 251.284L169.181 250.93L169.006 252.572L172.322 252.925ZM165.689 252.218L165.864 250.577L162.548 250.224L162.373 251.865L165.689 252.218ZM159.056 251.512L159.231 249.871L155.915 249.517L155.74 251.159L159.056 251.512ZM152.424 250.805L152.598 249.164L149.282 248.811L149.107 250.452L152.424 250.805ZM145.791 250.099L145.966 248.457L142.649 248.104L142.474 249.745L145.791 250.099ZM139.158 249.392L139.333 247.751L136.016 247.397L135.841 249.039L139.158 249.392ZM132.525 248.685L132.7 247.044L129.383 246.691L129.209 248.332L132.525 248.685ZM125.892 247.979L126.067 246.337L122.751 245.984L122.576 247.625L125.892 247.979ZM119.259 247.272L119.434 245.631L116.118 245.278L115.943 246.919L119.259 247.272ZM112.626 246.566L112.801 244.924L109.485 244.571L109.31 246.212L112.626 246.566ZM105.994 245.859L106.168 244.218L102.852 243.864L102.677 245.506L105.994 245.859ZM99.3608 245.152L99.5356 243.511L96.2192 243.158L96.0444 244.799L99.3608 245.152ZM92.7279 244.446L92.9028 242.804L89.5864 242.451L89.4115 244.092L92.7279 244.446ZM86.0951 243.739L86.2699 242.098L82.9535 241.744L82.7787 243.386L86.0951 243.739ZM79.4622 243.032L79.6371 241.391L76.3207 241.038L76.1458 242.679L79.4622 243.032ZM72.8294 242.326L73.0043 240.684L69.6878 240.331L69.513 241.973L72.8294 242.326ZM66.1966 241.619L66.3714 239.978L63.055 239.625L62.8801 241.266L66.1966 241.619ZM59.5637 240.913L59.7385 239.271L56.4221 238.918L56.2472 240.559L59.5637 240.913ZM52.9308 240.206L53.1057 238.565L49.7892 238.211L49.6144 239.853L52.9308 240.206ZM46.2979 239.499L46.4728 237.858L43.1563 237.505L42.9815 239.146L46.2979 239.499ZM39.6651 238.793L39.8399 237.151L36.5235 236.798L36.3486 238.439L39.6651 238.793ZM33.0322 238.086L33.2071 236.445L29.8906 236.091L29.7158 237.733L33.0322 238.086ZM26.3993 237.379L26.5742 235.738L23.2577 235.385L23.0829 237.026L26.3993 237.379Z" fill="white"/>
<path d="M51.9672 142.167L52.5144 141.269C52.5913 141.295 52.6818 141.318 52.7859 141.338C52.8988 141.359 53.0296 141.377 53.1784 141.393C53.5899 141.437 54.0239 141.434 54.4806 141.386C54.9382 141.328 55.3621 141.214 55.7521 141.043C56.1431 140.863 56.4749 140.615 56.7476 140.299C57.0213 139.974 57.1838 139.571 57.2351 139.09C57.2752 138.713 57.2076 138.392 57.0324 138.125C56.8668 137.851 56.5477 137.688 56.075 137.638C55.8737 137.617 55.6808 137.64 55.4964 137.709C55.3217 137.77 55.1292 137.874 54.9189 138.019L54.4872 138.332L53.8495 137.587L57.3949 135.096L53.1537 134.644L53.2572 133.673L58.7983 134.263L58.6948 135.235L56.3461 136.963C56.4093 136.952 56.4763 136.946 56.5473 136.945C56.627 136.944 56.7019 136.948 56.7719 136.955C57.2446 137.006 57.6334 137.22 57.9385 137.597C58.2532 137.967 58.3756 138.481 58.3056 139.137C58.2403 139.75 58.0468 140.278 57.7251 140.722C57.4034 141.166 57.0021 141.526 56.5211 141.802C56.0411 142.07 55.5034 142.256 54.9079 142.361C54.3212 142.466 53.7302 142.488 53.135 142.424C52.9249 142.402 52.7157 142.371 52.5075 142.331C52.2993 142.291 52.1192 142.236 51.9672 142.167Z" fill="white"/>
<path d="M50.5941 142.021L44.5016 141.371C44.5547 140.872 44.6714 140.442 44.8515 140.081C45.0317 139.719 45.2505 139.411 45.5079 139.155C45.7663 138.89 46.0516 138.664 46.3638 138.476C46.6856 138.28 47.0096 138.106 47.3355 137.955C47.6527 137.803 47.9603 137.659 48.2581 137.522C48.5647 137.387 48.8372 137.239 49.0756 137.078C49.3228 136.919 49.5237 136.736 49.6783 136.531C49.8417 136.328 49.9388 136.081 49.9695 135.792C49.9984 135.521 49.9663 135.283 49.873 135.078C49.7797 134.873 49.652 134.701 49.49 134.559C49.3368 134.419 49.1579 134.311 48.9534 134.237C48.7576 134.163 48.5679 134.116 48.384 134.096C47.815 134.036 47.3184 134.169 46.8941 134.495C46.4794 134.814 46.2451 135.227 46.191 135.735L45.1799 135.627C45.22 135.251 45.3331 134.896 45.5192 134.561C45.7063 134.218 45.9451 133.929 46.2357 133.695C46.536 133.452 46.8827 133.272 47.2759 133.155C47.67 133.029 48.0991 132.99 48.563 133.04C48.9219 133.078 49.2611 133.176 49.5807 133.334C49.9003 133.492 50.171 133.693 50.3928 133.938C50.6233 134.184 50.7962 134.473 50.9115 134.804C51.0276 135.126 51.0657 135.475 51.0256 135.852C50.9836 136.246 50.8767 136.584 50.705 136.867C50.542 137.15 50.3341 137.398 50.0813 137.61C49.8382 137.814 49.5624 137.993 49.254 138.146C48.9543 138.3 48.6463 138.449 48.33 138.592C47.7993 138.837 47.2935 139.097 46.8126 139.373C46.3317 139.65 45.9854 140.033 45.7737 140.524L50.6976 141.049L50.5941 142.021Z" fill="white"/>
<path d="M43.323 140.263L43.2195 141.235L36.2997 140.498L36.4033 139.526L39.6071 139.867L40.2939 133.42L38.0339 134.441L37.4135 133.658L40.4128 132.304L41.4633 132.416L40.6575 139.979L43.323 140.263Z" fill="white"/>
<path d="M31.6164 140.132C31.1261 140.079 30.6865 139.926 30.2975 139.672C29.9172 139.42 29.6031 139.085 29.3553 138.669C29.1075 138.253 28.9332 137.77 28.8325 137.219C28.7328 136.66 28.7179 136.052 28.7878 135.395C28.8577 134.738 29.0004 134.147 29.2158 133.621C29.4321 133.087 29.7052 132.642 30.0351 132.288C30.365 131.933 30.7425 131.673 31.1676 131.505C31.6014 131.339 32.0634 131.282 32.5536 131.334C33.0438 131.386 33.479 131.539 33.8593 131.792C34.2483 132.046 34.5668 132.381 34.8146 132.797C35.0625 133.213 35.2358 133.705 35.3346 134.273C35.4344 134.833 35.4493 135.441 35.3793 136.097C35.3094 136.754 35.1667 137.345 34.9513 137.871C34.7369 138.388 34.4647 138.824 34.1348 139.178C33.8049 139.533 33.423 139.793 32.9892 139.959C32.5642 140.126 32.1066 140.184 31.6164 140.132ZM29.8514 135.508C29.8113 135.885 29.7998 136.242 29.8169 136.58C29.8436 136.911 29.8951 137.217 29.9712 137.5L33.8113 133.115C33.6421 132.876 33.4414 132.682 33.2094 132.533C32.9861 132.385 32.7344 132.296 32.4543 132.267C31.7802 132.195 31.2035 132.456 30.724 133.052C30.2532 133.648 29.9624 134.467 29.8514 135.508ZM31.7157 139.199C32.0483 139.235 32.3592 139.184 32.6483 139.046C32.9461 138.91 33.2071 138.703 33.4314 138.426C33.6567 138.14 33.8442 137.793 33.994 137.384C34.1535 136.967 34.2607 136.5 34.3157 135.984C34.3549 135.616 34.365 135.272 34.3461 134.951C34.3281 134.622 34.2805 134.32 34.2034 134.046L30.3924 138.408C30.5548 138.629 30.7481 138.809 30.9723 138.948C31.1965 139.087 31.4443 139.171 31.7157 139.199Z" fill="white"/>
<path d="M285.308 158.314C285.903 158.377 286.445 158.524 286.934 158.753C287.423 158.982 287.833 159.291 288.163 159.681C288.494 160.07 288.732 160.538 288.877 161.085C289.031 161.632 289.071 162.252 288.998 162.943C288.915 163.722 288.742 164.386 288.48 164.933C288.218 165.481 287.884 165.919 287.477 166.247C287.079 166.577 286.616 166.806 286.089 166.936C285.563 167.057 284.993 167.085 284.38 167.02C284.083 166.988 283.777 166.946 283.464 166.895C283.159 166.854 282.872 166.801 282.604 166.737L283.514 158.203C283.797 158.197 284.093 158.207 284.4 158.231C284.716 158.255 285.019 158.283 285.308 158.314ZM285.258 159.278C285.144 159.266 285.017 159.257 284.876 159.251C284.744 159.245 284.607 159.24 284.466 159.234L283.753 165.93C283.892 165.954 284.031 165.978 284.17 166.001C284.309 166.025 284.436 166.043 284.549 166.055C285.127 166.116 285.618 166.076 286.023 165.933C286.438 165.782 286.775 165.562 287.037 165.271C287.307 164.981 287.512 164.631 287.653 164.221C287.795 163.802 287.891 163.357 287.942 162.884C287.989 162.437 287.973 162.011 287.892 161.604C287.812 161.188 287.661 160.818 287.439 160.493C287.226 160.169 286.936 159.9 286.569 159.683C286.212 159.468 285.775 159.333 285.258 159.278Z" fill="white"/>
<path d="M281.45 160.917L280.431 161.26C280.399 160.486 280.192 159.854 279.81 159.361C279.438 158.87 278.954 158.593 278.358 158.53C277.649 158.454 277.043 158.704 276.539 159.279C276.036 159.845 275.731 160.627 275.625 161.625C275.57 162.141 275.577 162.62 275.645 163.061C275.714 163.493 275.837 163.874 276.014 164.202C276.193 164.522 276.418 164.781 276.689 164.978C276.969 165.176 277.284 165.294 277.634 165.331C278.203 165.392 278.714 165.243 279.169 164.884C279.632 164.526 279.961 164.012 280.156 163.342L281.01 164.057C280.705 164.839 280.239 165.436 279.611 165.847C278.992 166.25 278.298 166.411 277.527 166.329C277.011 166.274 276.554 166.119 276.156 165.864C275.759 165.601 275.432 165.26 275.176 164.844C274.92 164.418 274.738 163.925 274.63 163.364C274.522 162.795 274.504 162.178 274.575 161.513C274.644 160.865 274.79 160.283 275.013 159.767C275.237 159.242 275.518 158.807 275.856 158.462C276.193 158.117 276.584 157.862 277.026 157.697C277.469 157.532 277.948 157.477 278.465 157.532C279.296 157.62 279.976 157.971 280.504 158.585C281.041 159.192 281.357 159.969 281.45 160.917Z" fill="white"/>
<path d="M266.924 165.067L267.833 156.532L271.077 156.877C271.654 156.939 272.128 157.189 272.498 157.626C272.877 158.056 273.033 158.586 272.966 159.217C272.914 159.698 272.757 160.097 272.493 160.415C272.229 160.732 271.925 160.965 271.581 161.114C271.976 161.316 272.308 161.603 272.578 161.977C272.848 162.351 272.955 162.801 272.9 163.326C272.819 164.079 272.525 164.637 272.018 164.999C271.519 165.353 270.916 165.492 270.207 165.417L266.924 165.067ZM270.77 157.761L268.787 157.55L268.487 160.373L270.364 160.573C270.723 160.611 271.05 160.496 271.344 160.226C271.648 159.948 271.823 159.595 271.869 159.166C271.909 158.79 271.823 158.471 271.612 158.209C271.41 157.949 271.129 157.799 270.77 157.761ZM270.269 161.466L268.392 161.266L268.071 164.273L270.067 164.485C270.26 164.506 270.455 164.504 270.652 164.481C270.85 164.449 271.029 164.389 271.189 164.299C271.35 164.201 271.484 164.065 271.591 163.891C271.708 163.708 271.781 163.477 271.811 163.197C271.867 162.672 271.738 162.264 271.424 161.974C271.109 161.684 270.724 161.514 270.269 161.466Z" fill="white"/>
<path d="M259.169 164.241L258.132 164.13L261.707 155.879L262.941 156.011L264.697 164.83L263.633 164.716L263.166 162.25L260.146 161.928L259.169 164.241ZM260.551 160.988L262.967 161.246L262.186 157.112L260.551 160.988Z" fill="white"/>
<path d="M104.888 159.24L102.807 159.019L109.953 142.692L112.428 142.956L115.974 160.421L113.841 160.194L112.897 155.309L106.84 154.664L104.888 159.24ZM107.651 152.805L112.496 153.321L110.918 145.135L107.651 152.805Z" fill="white"/>
<path d="M120.283 160.88L122.083 143.984L128.929 144.714C130.281 144.858 131.362 145.376 132.172 146.269C133.002 147.146 133.348 148.234 133.21 149.534C133.071 150.833 132.624 151.864 131.868 152.624C131.114 153.368 130.278 153.804 129.358 153.934L132.449 162.176L130 161.915L127.08 153.823L123.209 153.411L122.389 161.105L120.283 160.88ZM127.829 146.542L123.984 146.132L123.414 151.487L128.048 151.981C128.751 152.056 129.394 151.852 129.978 151.371C130.581 150.875 130.925 150.228 131.01 149.431C131.095 148.634 130.836 147.984 130.232 147.482C129.631 146.962 128.83 146.649 127.829 146.542Z" fill="white"/>
<path d="M136.072 162.562L137.872 145.667L144.719 146.396C146.071 146.54 147.152 147.058 147.962 147.951C148.792 148.828 149.138 149.916 148.999 151.216C148.861 152.516 148.414 153.546 147.658 154.306C146.904 155.05 146.068 155.487 145.148 155.616L148.238 163.859L145.789 163.598L142.87 155.505L138.999 155.093L138.179 162.787L136.072 162.562ZM143.619 148.224L139.774 147.815L139.204 153.169L143.838 153.663C144.54 153.738 145.184 153.535 145.767 153.054C146.371 152.557 146.715 151.91 146.8 151.113C146.885 150.316 146.625 149.666 146.022 149.164C145.42 148.644 144.619 148.331 143.619 148.224Z" fill="white"/>
<path d="M162.495 163.432L162.29 165.355L151.23 164.177L151.435 162.254L155.912 162.731L157.302 149.682L152.825 149.205L153.03 147.281L164.09 148.46L163.885 150.383L159.408 149.906L158.018 162.955L162.495 163.432Z" fill="white"/>
<path d="M174.235 166.628L170.759 166.258L167.661 148.84L169.952 149.084L172.748 164.84L178.8 150.027L180.986 150.26L174.235 166.628Z" fill="white"/>
<path d="M194.522 166.844L194.317 168.767L183.652 167.631L185.452 150.735L196.012 151.86L195.807 153.784L187.354 152.883L186.808 158.004L193.365 158.703L193.161 160.626L186.604 159.928L185.964 165.932L194.522 166.844Z" fill="white"/>
<path d="M204.656 152.623C205.849 152.751 206.937 153.042 207.918 153.497C208.9 153.952 209.722 154.565 210.385 155.337C211.049 156.109 211.527 157.036 211.82 158.119C212.131 159.203 212.213 160.43 212.067 161.799C211.903 163.341 211.559 164.654 211.035 165.738C210.511 166.821 209.842 167.687 209.027 168.337C208.23 168.988 207.303 169.441 206.246 169.696C205.191 169.935 204.049 169.988 202.82 169.857C202.223 169.794 201.61 169.711 200.982 169.609C200.369 169.526 199.795 169.421 199.258 169.294L201.058 152.398C201.627 152.388 202.22 152.408 202.836 152.456C203.47 152.506 204.076 152.562 204.656 152.623ZM204.559 154.532C204.331 154.508 204.075 154.489 203.792 154.477C203.527 154.466 203.253 154.454 202.971 154.442L201.558 167.699C201.837 167.746 202.116 167.793 202.395 167.84C202.674 167.888 202.928 167.923 203.156 167.948C204.315 168.071 205.3 167.992 206.111 167.71C206.942 167.413 207.618 166.977 208.141 166.402C208.682 165.829 209.093 165.136 209.375 164.325C209.658 163.497 209.85 162.614 209.95 161.679C210.044 160.795 210.009 159.95 209.847 159.144C209.686 158.321 209.382 157.587 208.936 156.944C208.507 156.302 207.925 155.767 207.189 155.338C206.471 154.911 205.595 154.643 204.559 154.532Z" fill="white"/>
<path d="M101.299 183.941C100.642 183.871 100.053 183.67 99.5307 183.336C99.0204 183.005 98.5985 182.567 98.265 182.022C97.9315 181.478 97.6964 180.846 97.5595 180.126C97.4239 179.395 97.4018 178.601 97.4931 177.743C97.5845 176.886 97.7735 176.114 98.0601 175.428C98.3479 174.73 98.7122 174.15 99.1529 173.688C99.5935 173.227 100.098 172.887 100.667 172.67C101.248 172.455 101.866 172.382 102.523 172.452C103.18 172.522 103.764 172.723 104.274 173.055C104.796 173.388 105.224 173.826 105.557 174.371C105.891 174.915 106.125 175.558 106.259 176.301C106.395 177.032 106.417 177.827 106.325 178.684C106.234 179.542 106.045 180.313 105.758 181C105.473 181.675 105.11 182.243 104.669 182.705C104.229 183.166 103.718 183.505 103.138 183.721C102.569 183.938 101.956 184.011 101.299 183.941ZM98.9183 177.895C98.8659 178.387 98.8517 178.853 98.8758 179.295C98.9129 179.727 98.9829 180.128 99.0859 180.497L104.214 174.783C103.987 174.469 103.717 174.215 103.406 174.02C103.106 173.826 102.769 173.709 102.393 173.669C101.49 173.573 100.719 173.913 100.078 174.689C99.4499 175.466 99.0632 176.535 98.9183 177.895ZM101.429 182.724C101.875 182.771 102.291 182.706 102.678 182.527C103.076 182.35 103.425 182.081 103.724 181.719C104.025 181.347 104.275 180.894 104.474 180.36C104.686 179.816 104.828 179.207 104.9 178.532C104.951 178.052 104.964 177.603 104.937 177.184C104.912 176.753 104.847 176.359 104.743 176.001L99.6533 181.685C99.8716 181.974 100.131 182.21 100.432 182.392C100.733 182.574 101.065 182.685 101.429 182.724Z" fill="white"/>
<path d="M111.849 185.065C110.523 184.924 109.493 184.513 108.759 183.834C108.025 183.155 107.711 182.318 107.817 181.323C107.886 180.671 108.123 180.119 108.527 179.664C108.931 179.21 109.464 178.886 110.126 178.69C109.612 178.393 109.224 178.022 108.963 177.578C108.703 177.122 108.603 176.614 108.663 176.054C108.757 175.174 109.207 174.511 110.013 174.065C110.821 173.608 111.847 173.445 113.09 173.578C114.322 173.709 115.284 174.083 115.978 174.7C116.673 175.306 116.973 176.049 116.879 176.93C116.82 177.49 116.615 177.965 116.265 178.356C115.916 178.735 115.453 179.015 114.876 179.196C115.482 179.527 115.934 179.956 116.234 180.485C116.545 181.016 116.666 181.607 116.596 182.258C116.49 183.253 116.001 184.004 115.128 184.513C114.267 185.022 113.174 185.206 111.849 185.065ZM112.556 178.429C113.342 178.512 113.993 178.414 114.509 178.134C115.026 177.842 115.315 177.416 115.375 176.856C115.434 176.296 115.241 175.83 114.794 175.459C114.347 175.087 113.731 174.86 112.945 174.776C112.159 174.692 111.509 174.785 110.994 175.054C110.479 175.323 110.191 175.737 110.132 176.297C110.072 176.858 110.264 177.335 110.709 177.729C111.154 178.112 111.77 178.345 112.556 178.429ZM111.977 183.865C112.856 183.958 113.581 183.839 114.15 183.507C114.732 183.164 115.058 182.667 115.127 182.015C115.199 181.341 114.987 180.769 114.492 180.3C114.008 179.832 113.326 179.551 112.446 179.458C111.566 179.364 110.835 179.494 110.251 179.848C109.68 180.203 109.358 180.718 109.286 181.393C109.217 182.044 109.425 182.598 109.91 183.055C110.408 183.501 111.097 183.771 111.977 183.865Z" fill="white"/>
<path d="M130.609 186.89L131.796 175.744L139.555 176.57L139.42 177.839L133.069 177.163L132.667 180.935L136.872 181.383L136.736 182.652L132.531 182.204L132.016 187.04L130.609 186.89Z" fill="white"/>
<path d="M147.645 187.422L147.51 188.691L140.384 187.932L141.572 176.785L148.627 177.537L148.492 178.806L142.844 178.204L142.484 181.582L146.865 182.049L146.73 183.318L142.349 182.851L141.927 186.813L147.645 187.422Z" fill="white"/>
<path d="M150.899 189.052L152.086 177.905L156.432 178.368C157.206 178.451 157.841 178.779 158.338 179.352C158.847 179.915 159.058 180.608 158.97 181.431C158.903 182.06 158.694 182.581 158.341 182.994C157.989 183.408 157.583 183.711 157.123 183.905C157.653 184.169 158.099 184.547 158.462 185.036C158.825 185.526 158.97 186.113 158.897 186.799C158.792 187.783 158.4 188.51 157.721 188.981C157.055 189.442 156.247 189.621 155.297 189.52L150.899 189.052ZM156.024 179.522L153.368 179.239L152.975 182.925L155.491 183.193C155.972 183.245 156.409 183.095 156.802 182.744C157.208 182.382 157.441 181.921 157.501 181.361C157.553 180.87 157.438 180.453 157.154 180.11C156.882 179.769 156.505 179.573 156.024 179.522ZM155.367 184.36L152.851 184.091L152.432 188.018L155.107 188.303C155.365 188.331 155.626 188.33 155.89 188.3C156.155 188.259 156.395 188.18 156.609 188.064C156.824 187.937 157.003 187.76 157.146 187.532C157.302 187.294 157.399 186.992 157.438 186.627C157.511 185.941 157.337 185.408 156.915 185.027C156.493 184.647 155.977 184.425 155.367 184.36Z" fill="white"/>
<path d="M179.476 192.096L171.312 191.226C171.381 190.575 171.536 190.013 171.776 189.542C172.016 189.07 172.308 188.667 172.652 188.334C172.997 187.989 173.379 187.695 173.796 187.45C174.226 187.195 174.66 186.97 175.096 186.774C175.52 186.576 175.932 186.389 176.33 186.211C176.74 186.035 177.105 185.843 177.424 185.634C177.754 185.427 178.023 185.189 178.229 184.922C178.447 184.656 178.576 184.335 178.617 183.958C178.654 183.603 178.61 183.292 178.485 183.024C178.359 182.757 178.187 182.53 177.97 182.345C177.764 182.161 177.524 182.02 177.25 181.922C176.987 181.824 176.733 181.762 176.487 181.736C175.724 181.655 175.059 181.827 174.492 182.252C173.938 182.667 173.625 183.206 173.555 183.869L172.2 183.725C172.252 183.233 172.403 182.769 172.651 182.333C172.9 181.886 173.219 181.509 173.607 181.204C174.009 180.888 174.473 180.655 174.999 180.502C175.526 180.339 176.101 180.29 176.723 180.357C177.203 180.408 177.658 180.537 178.087 180.745C178.516 180.952 178.879 181.216 179.177 181.537C179.487 181.859 179.719 182.237 179.875 182.669C180.032 183.091 180.084 183.547 180.031 184.039C179.977 184.553 179.835 184.995 179.606 185.364C179.388 185.734 179.111 186.057 178.773 186.333C178.448 186.599 178.079 186.831 177.666 187.03C177.266 187.23 176.854 187.423 176.43 187.609C175.72 187.927 175.044 188.265 174.4 188.624C173.757 188.984 173.295 189.484 173.013 190.124L179.611 190.827L179.476 192.096Z" fill="white"/>
<path d="M185.696 192.932C185.04 192.862 184.45 192.661 183.928 192.328C183.418 191.996 182.996 191.558 182.662 191.013C182.329 190.469 182.094 189.837 181.957 189.117C181.821 188.386 181.799 187.592 181.89 186.734C181.982 185.877 182.171 185.105 182.457 184.419C182.745 183.721 183.109 183.141 183.55 182.679C183.991 182.218 184.496 181.878 185.064 181.661C185.645 181.446 186.263 181.373 186.92 181.443C187.577 181.513 188.161 181.714 188.671 182.046C189.193 182.379 189.621 182.817 189.954 183.362C190.288 183.906 190.522 184.549 190.656 185.292C190.792 186.023 190.814 186.818 190.723 187.675C190.631 188.533 190.442 189.304 190.156 189.991C189.87 190.666 189.507 191.234 189.067 191.696C188.626 192.157 188.115 192.496 187.535 192.712C186.966 192.929 186.353 193.002 185.696 192.932ZM183.316 186.886C183.263 187.378 183.249 187.844 183.273 188.286C183.31 188.718 183.38 189.119 183.483 189.488L188.612 183.774C188.384 183.46 188.115 183.206 187.803 183.011C187.503 182.817 187.166 182.7 186.791 182.661C185.887 182.564 185.116 182.904 184.476 183.68C183.847 184.457 183.46 185.526 183.316 186.886ZM185.826 191.715C186.272 191.762 186.688 191.697 187.075 191.518C187.473 191.341 187.822 191.072 188.122 190.711C188.422 190.338 188.672 189.885 188.872 189.351C189.084 188.807 189.226 188.198 189.298 187.523C189.349 187.043 189.361 186.594 189.334 186.175C189.309 185.744 189.244 185.35 189.14 184.992L184.051 190.676C184.269 190.965 184.528 191.201 184.829 191.383C185.13 191.565 185.462 191.676 185.826 191.715Z" fill="white"/>
<path d="M200.575 194.344L192.411 193.474C192.481 192.822 192.635 192.261 192.875 191.789C193.115 191.318 193.407 190.915 193.751 190.582C194.096 190.237 194.478 189.942 194.895 189.698C195.326 189.443 195.759 189.218 196.195 189.021C196.62 188.824 197.031 188.636 197.429 188.459C197.84 188.283 198.204 188.091 198.523 187.882C198.854 187.674 199.122 187.437 199.328 187.17C199.547 186.904 199.676 186.583 199.716 186.205C199.754 185.851 199.71 185.54 199.584 185.272C199.458 185.004 199.287 184.778 199.069 184.593C198.863 184.409 198.623 184.268 198.349 184.169C198.087 184.072 197.832 184.01 197.586 183.984C196.824 183.903 196.159 184.075 195.591 184.5C195.037 184.915 194.725 185.454 194.654 186.117L193.299 185.973C193.352 185.481 193.502 185.017 193.75 184.581C193.999 184.134 194.318 183.757 194.707 183.452C195.108 183.136 195.572 182.902 196.098 182.75C196.626 182.587 197.2 182.538 197.822 182.604C198.303 182.656 198.758 182.785 199.186 182.993C199.615 183.2 199.978 183.464 200.276 183.785C200.586 184.107 200.819 184.484 200.974 184.917C201.131 185.339 201.183 185.795 201.131 186.287C201.076 186.801 200.934 187.243 200.705 187.611C200.488 187.981 200.21 188.304 199.872 188.581C199.547 188.847 199.178 189.079 198.766 189.278C198.365 189.478 197.953 189.671 197.53 189.857C196.82 190.175 196.143 190.513 195.5 190.872C194.857 191.231 194.394 191.731 194.112 192.372L200.71 193.075L200.575 194.344Z" fill="white"/>
<path d="M211.928 194.27L211.793 195.539L202.521 194.551L202.656 193.282L206.949 193.74L207.846 185.32L204.822 186.645L203.988 185.62L208.001 183.862L209.409 184.012L208.357 193.889L211.928 194.27Z" fill="white"/>
<path d="M49.419 206.101L45.0849 205.64L42.94 193.186L40.7584 213.664L38.0885 213.38L40.4599 191.12L45.3488 191.641L47.5393 203.996L52.2488 192.376L57.1031 192.893L54.7317 215.153L52.0619 214.868L54.2289 194.527L49.419 206.101Z" fill="white"/>
<path d="M74.752 214.723L74.482 217.257L59.9192 215.705L60.1892 213.171L66.0836 213.799L67.915 196.608L62.0206 195.98L62.2905 193.446L76.8533 194.997L76.5834 197.532L70.6889 196.904L68.8575 214.095L74.752 214.723Z" fill="white"/>
<path d="M90.973 219.014L85.3038 197.837L83.1368 218.179L80.4669 217.894L82.8383 195.635L87.8312 196.167L93.17 216.165L95.2167 196.954L97.8865 197.238L95.5152 219.497L90.973 219.014Z" fill="white"/>
<path d="M111.763 221.228L106.094 200.052L103.927 220.394L101.257 220.109L103.629 197.85L108.622 198.382L113.96 218.38L116.007 199.169L118.677 199.453L116.306 221.712L111.763 221.228Z" fill="white"/>
<path d="M137.713 221.43L137.443 223.964L123.4 222.468L125.771 200.209L139.675 201.69L139.405 204.224L128.275 203.038L127.557 209.785L136.19 210.704L135.92 213.239L127.287 212.319L126.444 220.229L137.713 221.43Z" fill="white"/>
<path d="M144.433 224.709L141.694 224.417L151.104 202.908L154.363 203.255L159.031 226.264L156.222 225.965L154.979 219.529L147.004 218.679L144.433 224.709ZM148.072 216.23L154.452 216.91L152.374 206.125L148.072 216.23Z" fill="white"/>
<path d="M164.912 226.89L167.283 204.631L176.437 205.606C178.24 205.798 179.644 206.548 180.651 207.856C181.659 209.141 182.069 210.674 181.879 212.455C181.765 213.528 181.489 214.468 181.052 215.276C180.618 216.061 180.082 216.708 179.443 217.217C178.804 217.726 178.088 218.089 177.293 218.304C176.522 218.522 175.743 218.589 174.957 218.506L168.682 217.837L167.686 227.186L164.912 226.89ZM175.543 208.074L169.787 207.461L168.951 215.303L174.673 215.912C175.713 216.023 176.656 215.731 177.501 215.036C178.372 214.321 178.866 213.415 178.983 212.319C179.104 211.178 178.845 210.215 178.203 209.431C177.562 208.647 176.675 208.195 175.543 208.074Z" fill="white"/>
<path d="M191.907 230.113C190.612 229.975 189.451 229.574 188.423 228.91C187.418 228.249 186.588 227.376 185.932 226.29C185.276 225.204 184.814 223.943 184.547 222.506C184.281 221.046 184.24 219.46 184.422 217.748C184.605 216.035 184.979 214.494 185.546 213.123C186.116 211.729 186.835 210.57 187.705 209.647C188.575 208.723 189.571 208.045 190.692 207.61C191.837 207.178 193.057 207.031 194.351 207.168C195.646 207.306 196.795 207.706 197.8 208.367C198.828 209.031 199.67 209.906 200.326 210.991C200.982 212.077 201.441 213.361 201.704 214.844C201.969 216.304 202.011 217.89 201.828 219.602C201.646 221.314 201.271 222.856 200.704 224.227C200.14 225.575 199.423 226.711 198.553 227.634C197.683 228.558 196.676 229.235 195.531 229.668C194.409 230.102 193.201 230.251 191.907 230.113ZM192.184 227.51C193.918 227.695 195.403 227.033 196.639 225.526C197.877 223.995 198.636 221.917 198.916 219.292C199.198 216.643 198.895 214.441 198.007 212.684C197.118 210.927 195.808 209.956 194.074 209.771C192.34 209.586 190.854 210.259 189.616 211.79C188.377 213.32 187.617 215.41 187.335 218.058C187.055 220.683 187.359 222.875 188.248 224.632C189.138 226.366 190.45 227.325 192.184 227.51Z" fill="white"/>
<path d="M221.395 230.345L221.125 232.879L207.221 231.398L209.592 209.138L212.366 209.434L210.265 229.159L221.395 230.345Z" fill="white"/>
<path d="M241.076 232.441L240.806 234.976L226.243 233.424L226.513 230.89L232.407 231.518L234.239 214.327L228.344 213.699L228.614 211.165L243.177 212.716L242.907 215.251L237.013 214.623L235.181 231.814L241.076 232.441Z" fill="white"/>
<path d="M245.938 233.41L248.128 231.288C248.885 232.084 249.856 232.73 251.043 233.226C252.254 233.702 253.565 234.014 254.975 234.165C256.57 234.335 257.888 234.14 258.93 233.582C259.971 233.023 260.553 232.173 260.674 231.031C260.798 229.867 260.344 228.976 259.311 228.358C258.304 227.72 256.701 226.96 254.504 226.079C252.307 225.199 250.653 224.261 249.544 223.265C248.434 222.27 247.974 220.881 248.164 219.101C248.271 218.096 248.574 217.228 249.073 216.496C249.595 215.767 250.252 215.19 251.045 214.767C251.841 214.321 252.738 214.024 253.735 213.876C254.758 213.708 255.825 213.683 256.934 213.801C258.067 213.922 259.242 214.197 260.458 214.627C261.677 215.034 262.87 215.796 264.037 216.913L262.115 218.821C261.289 218.017 260.383 217.412 259.398 217.007C258.415 216.579 257.392 216.309 256.328 216.195C254.849 216.038 253.604 216.205 252.593 216.698C251.605 217.193 251.049 218.023 250.925 219.187C250.801 220.351 251.186 221.235 252.08 221.838C252.998 222.444 254.296 223.09 255.977 223.777C256.918 224.155 257.869 224.556 258.829 224.982C259.789 225.407 260.636 225.902 261.371 226.465C262.106 227.028 262.691 227.679 263.127 228.418C263.562 229.157 263.728 230.018 263.623 230.999C263.494 232.209 263.141 233.222 262.563 234.038C262.011 234.833 261.314 235.452 260.472 235.893C259.63 236.335 258.664 236.624 257.574 236.762C256.509 236.879 255.399 236.877 254.244 236.754C252.718 236.591 251.211 236.257 249.721 235.752C248.235 235.224 246.974 234.444 245.938 233.41Z" fill="white"/>
<path d="M21.3661 226.601L20.1567 226.473L19.576 222.83L18.9371 228.827L18.1921 228.748L18.8866 222.23L20.2508 222.375L20.8443 225.988L22.1761 222.58L23.5306 222.724L22.8362 229.243L22.0912 229.163L22.7258 223.207L21.3661 226.601Z" fill="white"/>
<path d="M28.4263 229.088L28.3472 229.83L24.2837 229.397L24.3627 228.655L26.0075 228.83L26.5438 223.796L24.8991 223.621L24.9781 222.879L29.0417 223.312L28.9626 224.054L27.3178 223.878L26.7815 228.913L28.4263 229.088Z" fill="white"/>
<path d="M32.9488 230.32L31.3969 224.13L30.7623 230.087L30.0173 230.008L30.7117 223.489L32.1049 223.638L33.5664 229.483L34.1657 223.857L34.9107 223.937L34.2163 230.455L32.9488 230.32Z" fill="white"/>
<path d="M38.7501 230.938L37.1982 224.748L36.5636 230.705L35.8186 230.626L36.513 224.107L37.9062 224.256L39.3677 230.101L39.967 224.475L40.712 224.555L40.0176 231.073L38.7501 230.938Z" fill="white"/>
<path d="M45.9947 230.959L45.9156 231.702L41.9972 231.284L42.6916 224.766L46.5714 225.179L46.4923 225.921L43.3866 225.59L43.1761 227.566L45.5852 227.822L45.5062 228.565L43.0971 228.308L42.8503 230.624L45.9947 230.959Z" fill="white"/>
<path d="M47.8662 231.909L47.1019 231.828L49.7604 225.519L50.6698 225.616L51.9395 232.343L51.1558 232.26L50.8181 230.378L48.5928 230.141L47.8662 231.909ZM48.8944 229.423L50.6746 229.612L50.1103 226.459L48.8944 229.423Z" fill="white"/>
<path d="M53.5805 232.518L54.2749 226L56.8291 226.272C57.3322 226.325 57.7233 226.543 58.0023 226.924C58.282 227.299 58.3941 227.747 58.3386 228.268C58.3051 228.583 58.2268 228.858 58.1037 229.095C57.9813 229.326 57.8306 229.516 57.6515 229.666C57.4725 229.816 57.2719 229.923 57.0498 229.987C56.8341 230.052 56.6166 230.073 56.3973 230.049L54.6461 229.863L54.3545 232.601L53.5805 232.518ZM56.5759 226.995L54.9698 226.824L54.7252 229.121L56.3216 229.291C56.6118 229.322 56.8755 229.235 57.1126 229.03C57.3568 228.82 57.496 228.554 57.5302 228.233C57.5658 227.899 57.4947 227.617 57.3168 227.389C57.1389 227.16 56.892 227.029 56.5759 226.995Z" fill="white"/>
<path d="M61.1126 233.422C60.7514 233.383 60.4278 233.268 60.1417 233.075C59.8621 232.883 59.6315 232.629 59.45 232.312C59.2685 231.995 59.1414 231.626 59.0688 231.206C58.9968 230.779 58.9875 230.315 59.041 229.814C59.0944 229.312 59.2012 228.861 59.3615 228.458C59.5225 228.05 59.725 227.709 59.9692 227.438C60.2134 227.166 60.4924 226.966 60.8062 226.837C61.1265 226.709 61.4672 226.664 61.8284 226.703C62.1896 226.741 62.51 226.857 62.7896 227.049C63.0757 227.242 63.3095 227.496 63.491 227.813C63.6725 228.13 63.7989 228.505 63.8701 228.939C63.942 229.366 63.9513 229.83 63.8979 230.331C63.8445 230.833 63.7376 231.284 63.5774 231.687C63.4178 232.082 63.216 232.415 62.9718 232.687C62.7276 232.958 62.4453 233.158 62.1251 233.286C61.8113 233.415 61.4738 233.46 61.1126 233.422ZM61.1938 232.66C61.6775 232.711 62.0931 232.516 62.4403 232.073C62.7883 231.623 63.0033 231.013 63.0852 230.245C63.1678 229.469 63.0864 228.825 62.841 228.312C62.5955 227.799 62.231 227.517 61.7472 227.465C61.2634 227.414 60.8476 227.613 60.4996 228.062C60.1516 228.512 59.9363 229.125 59.8537 229.9C59.7718 230.669 59.8535 231.31 60.099 231.823C60.3451 232.329 60.71 232.608 61.1938 232.66Z" fill="white"/>
<path d="M69.345 233.447L69.266 234.189L65.3862 233.776L66.0807 227.257L66.8547 227.34L66.2393 233.116L69.345 233.447Z" fill="white"/>
<path d="M74.8367 234.032L74.7577 234.774L70.6941 234.341L70.7732 233.599L72.4179 233.774L72.9542 228.74L71.3095 228.565L71.3885 227.823L75.4521 228.256L75.373 228.998L73.7283 228.823L73.1919 233.857L74.8367 234.032Z" fill="white"/>
<path d="M76.1929 234.308L76.8074 233.684C77.0175 233.916 77.2878 234.104 77.6183 234.247C77.9559 234.385 78.3214 234.474 78.7149 234.516C79.1599 234.564 79.5282 234.505 79.8198 234.34C80.1113 234.175 80.2749 233.925 80.3105 233.591C80.3469 233.25 80.2213 232.99 79.9338 232.81C79.6535 232.625 79.2072 232.405 78.5951 232.15C77.9829 231.896 77.5226 231.624 77.2143 231.334C76.906 231.044 76.7796 230.639 76.8351 230.117C76.8665 229.823 76.9523 229.568 77.0926 229.353C77.2394 229.139 77.4238 228.97 77.6459 228.844C77.8687 228.713 78.1194 228.624 78.3982 228.58C78.6841 228.529 78.9818 228.52 79.2914 228.553C79.6075 228.587 79.935 228.666 80.2741 228.79C80.6138 228.907 80.9458 229.128 81.2699 229.454L80.7306 230.015C80.5012 229.781 80.2492 229.605 79.9746 229.488C79.7008 229.364 79.4155 229.287 79.1188 229.255C78.706 229.211 78.3581 229.262 78.0751 229.407C77.7986 229.554 77.6422 229.797 77.6059 230.138C77.5696 230.479 77.6758 230.737 77.9246 230.913C78.1798 231.089 78.5415 231.276 79.0095 231.475C79.2719 231.584 79.5368 231.7 79.8042 231.823C80.0715 231.946 80.3074 232.089 80.5118 232.253C80.7161 232.417 80.8785 232.607 80.9991 232.822C81.1196 233.038 81.1646 233.29 81.1339 233.577C81.0962 233.932 80.9961 234.228 80.8335 234.468C80.6782 234.702 80.4827 234.884 80.247 235.014C80.0113 235.145 79.7412 235.231 79.4366 235.273C79.1393 235.309 78.8293 235.309 78.5068 235.275C78.0811 235.23 77.6608 235.134 77.2457 234.989C76.8314 234.836 76.4805 234.61 76.1929 234.308Z" fill="white"/>
<path d="M82.8113 233.502L82.8968 232.7L86.3798 233.071L86.2944 233.873L82.8113 233.502Z" fill="white"/>
<path d="M92.5502 235.919L92.4712 236.661L88.5914 236.248L89.2859 229.729L90.0599 229.812L89.4445 235.588L92.5502 235.919Z" fill="white"/>
<path d="M95.9204 237.13C95.5592 237.092 95.2356 236.976 94.9495 236.783C94.6699 236.591 94.4393 236.337 94.2578 236.02C94.0763 235.703 93.9492 235.335 93.8766 234.914C93.8046 234.488 93.7954 234.023 93.8488 233.522C93.9022 233.021 94.009 232.569 94.1693 232.167C94.3303 231.758 94.5328 231.418 94.777 231.146C95.0212 230.875 95.3002 230.674 95.614 230.546C95.9343 230.417 96.275 230.373 96.6362 230.411C96.9974 230.45 97.3178 230.565 97.5974 230.757C97.8835 230.95 98.1173 231.204 98.2988 231.521C98.4803 231.838 98.6067 232.213 98.6779 232.647C98.7498 233.074 98.7591 233.538 98.7057 234.039C98.6523 234.541 98.5454 234.993 98.3852 235.395C98.2256 235.79 98.0238 236.124 97.7796 236.395C97.5354 236.667 97.2532 236.866 96.9329 236.995C96.6191 237.123 96.2816 237.169 95.9204 237.13ZM96.0016 236.368C96.4854 236.42 96.9009 236.224 97.2481 235.781C97.5961 235.331 97.8111 234.722 97.893 233.953C97.9756 233.177 97.8942 232.533 97.6488 232.02C97.4034 231.507 97.0388 231.225 96.555 231.173C96.0713 231.122 95.6554 231.321 95.3074 231.771C94.9594 232.22 94.7441 232.833 94.6615 233.609C94.5796 234.377 94.6613 235.018 94.9068 235.531C95.1529 236.038 95.5178 236.316 96.0016 236.368Z" fill="white"/>
<path d="M99.3981 236.781L100.013 236.156C100.223 236.388 100.493 236.576 100.823 236.719C101.161 236.857 101.527 236.946 101.92 236.988C102.365 237.036 102.733 236.977 103.025 236.812C103.317 236.647 103.48 236.397 103.516 236.063C103.552 235.722 103.426 235.462 103.139 235.282C102.859 235.097 102.412 234.877 101.8 234.623C101.188 234.368 100.728 234.096 100.42 233.806C100.111 233.516 99.9848 233.111 100.04 232.589C100.072 232.295 100.158 232.041 100.298 231.826C100.445 231.611 100.629 231.442 100.851 231.317C101.074 231.185 101.325 231.097 101.603 231.052C101.889 231.001 102.187 230.992 102.497 231.025C102.813 231.059 103.14 231.138 103.479 231.262C103.819 231.379 104.151 231.6 104.475 231.926L103.936 232.487C103.706 232.253 103.454 232.077 103.18 231.96C102.906 231.836 102.621 231.759 102.324 231.727C101.911 231.683 101.563 231.734 101.28 231.88C101.004 232.026 100.847 232.27 100.811 232.61C100.775 232.951 100.881 233.21 101.13 233.385C101.385 233.561 101.747 233.748 102.215 233.947C102.477 234.056 102.742 234.172 103.009 234.295C103.277 234.418 103.513 234.562 103.717 234.725C103.921 234.889 104.084 235.079 104.204 235.295C104.325 235.51 104.37 235.762 104.339 236.049C104.301 236.404 104.201 236.701 104.039 236.94C103.883 237.174 103.688 237.356 103.452 237.486C103.217 237.617 102.946 237.703 102.642 237.745C102.344 237.781 102.035 237.782 101.712 237.747C101.286 237.702 100.866 237.606 100.451 237.461C100.037 237.308 99.6857 237.082 99.3981 236.781Z" fill="white"/>
<path d="M111.681 238.708L110.916 238.626L113.575 232.317L114.484 232.414L115.754 239.142L114.97 239.058L114.632 237.176L112.407 236.939L111.681 238.708ZM112.709 236.221L114.489 236.41L113.925 233.257L112.709 236.221Z" fill="white"/>
<path d="M119.968 239.591L118.416 233.401L117.782 239.358L117.037 239.278L117.731 232.76L119.124 232.908L120.586 238.754L121.185 233.128L121.93 233.207L121.236 239.726L119.968 239.591Z" fill="white"/>
<path d="M125.69 237.005L127.712 237.221L127.422 239.949C127.01 240.141 126.626 240.249 126.272 240.272C125.917 240.295 125.575 240.289 125.246 240.254C124.808 240.208 124.426 240.086 124.101 239.889C123.777 239.685 123.515 239.424 123.314 239.105C123.114 238.78 122.974 238.403 122.896 237.975C122.818 237.541 122.807 237.07 122.861 236.562C122.913 236.067 123.023 235.622 123.189 235.228C123.355 234.826 123.57 234.494 123.833 234.231C124.096 233.969 124.403 233.775 124.756 233.65C125.115 233.526 125.507 233.487 125.933 233.532C126.41 233.583 126.811 233.71 127.135 233.914C127.459 234.117 127.732 234.376 127.952 234.691L127.4 235.19C127.242 234.956 127.026 234.757 126.75 234.593C126.474 234.428 126.194 234.331 125.91 234.301C125.271 234.233 124.756 234.418 124.363 234.856C123.978 235.288 123.745 235.885 123.664 236.648C123.577 237.463 123.702 238.129 124.038 238.645C124.382 239.155 124.915 239.448 125.637 239.525C125.798 239.542 125.967 239.553 126.142 239.559C126.325 239.558 126.508 239.527 126.69 239.465L126.859 237.88L125.611 237.747L125.69 237.005Z" fill="white"/>
<path d="M133.014 240.23L132.935 240.972L129.017 240.555L129.711 234.036L133.591 234.449L133.512 235.192L130.406 234.861L130.196 236.836L132.605 237.093L132.526 237.835L130.117 237.578L129.87 239.895L133.014 240.23Z" fill="white"/>
<path d="M138.961 240.863L138.882 241.606L135.002 241.192L135.696 234.674L136.47 234.756L135.855 240.533L138.961 240.863Z" fill="white"/>
<path d="M144.617 241.466L144.538 242.208L140.619 241.791L141.314 235.272L145.193 235.685L145.114 236.428L142.009 236.097L141.798 238.072L144.207 238.329L144.128 239.071L141.719 238.814L141.472 241.131L144.617 241.466Z" fill="white"/>
<path d="M145.809 241.725L146.423 241.101C146.633 241.333 146.903 241.52 147.234 241.664C147.571 241.801 147.937 241.891 148.33 241.933C148.776 241.98 149.144 241.921 149.435 241.756C149.727 241.591 149.891 241.342 149.926 241.007C149.962 240.666 149.837 240.406 149.549 240.227C149.269 240.041 148.823 239.821 148.211 239.567C147.599 239.312 147.138 239.04 146.83 238.75C146.522 238.461 146.395 238.055 146.451 237.533C146.482 237.239 146.568 236.985 146.708 236.77C146.855 236.556 147.039 236.386 147.262 236.261C147.484 236.129 147.735 236.041 148.014 235.996C148.3 235.945 148.597 235.937 148.907 235.97C149.223 236.003 149.551 236.082 149.89 236.206C150.229 236.323 150.561 236.545 150.886 236.87L150.346 237.431C150.117 237.197 149.865 237.022 149.59 236.904C149.316 236.781 149.031 236.703 148.734 236.671C148.322 236.627 147.974 236.678 147.691 236.824C147.414 236.97 147.258 237.214 147.221 237.555C147.185 237.896 147.291 238.154 147.54 238.329C147.795 238.505 148.157 238.692 148.625 238.891C148.888 239 149.152 239.116 149.42 239.239C149.687 239.362 149.923 239.506 150.127 239.67C150.332 239.833 150.494 240.023 150.615 240.239C150.735 240.454 150.78 240.706 150.75 240.994C150.712 241.348 150.612 241.645 150.449 241.884C150.294 242.118 150.098 242.3 149.863 242.431C149.627 242.561 149.357 242.647 149.052 242.689C148.755 242.725 148.445 242.726 148.122 242.691C147.697 242.646 147.276 242.551 146.861 242.405C146.447 242.253 146.096 242.026 145.809 241.725Z" fill="white"/>
<path d="M160.004 240.762C159.946 241.304 159.939 241.797 159.983 242.241C160.034 242.679 160.118 243.084 160.235 243.454C160.352 243.825 160.498 244.169 160.674 244.485C160.854 244.808 161.043 245.116 161.241 245.407L160.672 245.874C160.436 245.585 160.213 245.261 160.003 244.9C159.799 244.547 159.625 244.16 159.481 243.739C159.343 243.319 159.245 242.862 159.187 242.369C159.129 241.869 159.131 241.332 159.192 240.757C159.253 240.182 159.364 239.66 159.525 239.19C159.687 238.714 159.879 238.285 160.103 237.903C160.332 237.521 160.584 237.18 160.858 236.878C161.138 236.569 161.425 236.299 161.717 236.066L162.174 236.643C161.92 236.886 161.674 237.144 161.436 237.416C161.199 237.681 160.982 237.976 160.784 238.3C160.593 238.624 160.427 238.989 160.286 239.393C160.152 239.798 160.058 240.254 160.004 240.762Z" fill="white"/>
<path d="M167.658 243.921L167.578 244.663L163.515 244.23L163.594 243.488L165.239 243.663L165.775 238.629L164.13 238.453L164.209 237.711L168.273 238.144L168.194 238.886L166.549 238.711L166.013 243.745L167.658 243.921Z" fill="white"/>
<path d="M172.18 245.153L170.628 238.963L169.993 244.92L169.249 244.841L169.943 238.322L171.336 238.471L172.798 244.316L173.397 238.69L174.142 238.769L173.448 245.288L172.18 245.153Z" fill="white"/>
<path d="M176.762 245.641L177.378 239.865L175.298 239.643L175.377 238.901L180.311 239.427L180.232 240.169L178.152 239.947L177.536 245.724L176.762 245.641Z" fill="white"/>
<path d="M185.226 245.792L185.147 246.534L181.228 246.117L181.923 239.598L185.803 240.012L185.724 240.754L182.618 240.423L182.407 242.399L184.816 242.655L184.737 243.397L182.328 243.141L182.082 245.457L185.226 245.792Z" fill="white"/>
<path d="M186.952 246.727L187.647 240.208L190.162 240.476C190.659 240.529 191.055 240.727 191.352 241.069C191.655 241.406 191.78 241.825 191.726 242.326C191.673 242.828 191.507 243.226 191.227 243.521C190.949 243.809 190.64 243.979 190.302 244.031L191.422 247.203L190.522 247.107L189.465 243.992L188.043 243.841L187.726 246.809L186.952 246.727ZM189.754 241.183L188.342 241.033L188.122 243.099L189.824 243.28C190.082 243.307 190.319 243.228 190.535 243.041C190.758 242.849 190.885 242.599 190.918 242.291C190.951 241.983 190.857 241.733 190.636 241.541C190.416 241.342 190.122 241.222 189.754 241.183Z" fill="white"/>
<path d="M195.385 247.625L193.833 241.435L193.199 247.392L192.454 247.313L193.148 240.794L194.541 240.943L196.003 246.788L196.602 241.162L197.347 241.242L196.653 247.76L195.385 247.625Z" fill="white"/>
<path d="M198.7 247.978L197.936 247.897L200.594 241.587L201.504 241.684L202.773 248.412L201.99 248.329L201.652 246.447L199.427 246.21L198.7 247.978ZM199.728 245.491L201.508 245.681L200.944 242.527L199.728 245.491Z" fill="white"/>
<path d="M205.769 248.731L206.384 242.955L204.304 242.733L204.383 241.991L209.317 242.517L209.238 243.259L207.158 243.037L206.543 248.814L205.769 248.731Z" fill="white"/>
<path d="M214.068 248.865L213.989 249.607L209.925 249.174L210.004 248.432L211.649 248.607L212.186 243.573L210.541 243.398L210.62 242.656L214.683 243.088L214.604 243.831L212.96 243.655L212.423 248.69L214.068 248.865Z" fill="white"/>
<path d="M217.748 250.109C217.387 250.07 217.063 249.955 216.777 249.762C216.497 249.57 216.267 249.315 216.085 248.999C215.904 248.682 215.777 248.313 215.704 247.893C215.632 247.466 215.623 247.002 215.676 246.501C215.73 245.999 215.836 245.547 215.997 245.145C216.158 244.736 216.36 244.396 216.604 244.125C216.849 243.853 217.128 243.653 217.441 243.524C217.762 243.396 218.102 243.351 218.464 243.39C218.825 243.428 219.145 243.543 219.425 243.736C219.711 243.928 219.945 244.183 220.126 244.5C220.308 244.817 220.434 245.192 220.505 245.626C220.577 246.052 220.586 246.517 220.533 247.018C220.48 247.519 220.373 247.971 220.213 248.373C220.053 248.769 219.851 249.102 219.607 249.374C219.363 249.645 219.08 249.845 218.76 249.973C218.446 250.102 218.109 250.147 217.748 250.109ZM217.829 249.347C218.313 249.398 218.728 249.202 219.075 248.759C219.423 248.31 219.638 247.7 219.72 246.931C219.803 246.156 219.722 245.512 219.476 244.999C219.231 244.486 218.866 244.203 218.382 244.152C217.899 244.1 217.483 244.299 217.135 244.749C216.787 245.199 216.571 245.812 216.489 246.587C216.407 247.356 216.489 247.997 216.734 248.51C216.98 249.016 217.345 249.295 217.829 249.347Z" fill="white"/>
<path d="M224.392 250.715L222.84 244.525L222.205 250.482L221.46 250.403L222.155 243.884L223.548 244.033L225.009 249.878L225.609 244.252L226.354 244.332L225.659 250.85L224.392 250.715Z" fill="white"/>
<path d="M231.781 250.752L231.702 251.494L227.823 251.081L228.517 244.562L229.291 244.645L228.676 250.421L231.781 250.752Z" fill="white"/>
<path d="M239.309 252.304L238.545 252.223L241.203 245.914L242.113 246.011L243.382 252.738L242.599 252.655L242.261 250.773L240.036 250.536L239.309 252.304ZM240.337 249.817L242.118 250.007L241.553 246.854L240.337 249.817Z" fill="white"/>
<path d="M248.876 252.573L248.797 253.315L244.733 252.882L244.812 252.14L246.457 252.315L246.993 247.281L245.349 247.106L245.428 246.364L249.491 246.797L249.412 247.539L247.767 247.363L247.231 252.398L248.876 252.573Z" fill="white"/>
<path d="M250.767 253.525L251.461 247.006L253.977 247.274C254.473 247.327 254.87 247.525 255.166 247.868C255.469 248.204 255.594 248.623 255.541 249.125C255.487 249.626 255.321 250.024 255.042 250.319C254.763 250.607 254.455 250.777 254.117 250.829L255.237 254.001L254.337 253.905L253.279 250.791L251.857 250.639L251.541 253.607L250.767 253.525ZM253.569 247.982L252.156 247.831L251.936 249.897L253.639 250.078C253.897 250.106 254.134 250.026 254.349 249.84C254.572 249.647 254.7 249.397 254.732 249.089C254.765 248.782 254.671 248.532 254.45 248.339C254.23 248.14 253.936 248.021 253.569 247.982Z" fill="white"/>
<path d="M256.626 254.149L257.32 247.631L259.875 247.903C260.378 247.956 260.769 248.174 261.048 248.555C261.328 248.93 261.44 249.378 261.384 249.899C261.351 250.214 261.272 250.489 261.149 250.726C261.027 250.957 260.876 251.147 260.697 251.297C260.518 251.447 260.317 251.554 260.095 251.618C259.88 251.683 259.662 251.704 259.443 251.68L257.692 251.494L257.4 254.232L256.626 254.149ZM259.621 248.626L258.015 248.455L257.771 250.752L259.367 250.922C259.657 250.953 259.921 250.866 260.158 250.661C260.402 250.451 260.542 250.185 260.576 249.864C260.611 249.53 260.54 249.248 260.362 249.02C260.184 248.791 259.938 248.66 259.621 248.626Z" fill="white"/>
<path d="M264.158 255.053C263.797 255.015 263.473 254.899 263.187 254.706C262.908 254.514 262.677 254.26 262.496 253.943C262.314 253.626 262.187 253.257 262.114 252.837C262.042 252.41 262.033 251.946 262.087 251.445C262.14 250.943 262.247 250.492 262.407 250.089C262.568 249.681 262.771 249.34 263.015 249.069C263.259 248.798 263.538 248.597 263.852 248.468C264.172 248.34 264.513 248.295 264.874 248.334C265.235 248.372 265.556 248.488 265.835 248.68C266.121 248.873 266.355 249.127 266.537 249.444C266.718 249.761 266.844 250.136 266.916 250.57C266.988 250.997 266.997 251.461 266.943 251.962C266.89 252.464 266.783 252.915 266.623 253.318C266.463 253.713 266.262 254.046 266.017 254.318C265.773 254.589 265.491 254.789 265.171 254.917C264.857 255.046 264.519 255.091 264.158 255.053ZM264.239 254.291C264.723 254.342 265.139 254.147 265.486 253.704C265.834 253.254 266.049 252.644 266.131 251.876C266.213 251.1 266.132 250.456 265.887 249.943C265.641 249.43 265.277 249.148 264.793 249.096C264.309 249.045 263.893 249.244 263.545 249.693C263.197 250.143 262.982 250.756 262.899 251.531C262.817 252.3 262.899 252.941 263.145 253.454C263.391 253.96 263.756 254.239 264.239 254.291Z" fill="white"/>
<path d="M268.171 255.379L268.865 248.861L271.381 249.129C271.877 249.181 272.274 249.379 272.57 249.722C272.873 250.058 272.998 250.477 272.945 250.979C272.891 251.48 272.725 251.878 272.446 252.173C272.167 252.461 271.859 252.631 271.52 252.683L272.64 255.855L271.741 255.759L270.683 252.645L269.261 252.493L268.945 255.461L268.171 255.379ZM270.973 249.836L269.56 249.685L269.34 251.751L271.043 251.932C271.301 251.96 271.537 251.88 271.753 251.694C271.976 251.501 272.104 251.251 272.136 250.943C272.169 250.636 272.075 250.386 271.854 250.193C271.634 249.994 271.34 249.875 270.973 249.836Z" fill="white"/>
<path d="M275.384 256.148L276 250.371L273.92 250.15L273.999 249.407L278.933 249.933L278.854 250.675L276.774 250.454L276.158 256.23L275.384 256.148Z" fill="white"/>
<path d="M281.954 253.876C282.011 253.334 282.014 252.844 281.963 252.406C281.919 251.962 281.839 251.554 281.722 251.184C281.605 250.813 281.455 250.469 281.274 250.152C281.099 249.829 280.914 249.522 280.716 249.231L281.285 248.764C281.521 249.053 281.741 249.377 281.944 249.737C282.155 250.09 282.329 250.477 282.466 250.898C282.611 251.319 282.712 251.779 282.769 252.279C282.828 252.772 282.826 253.306 282.765 253.881C282.704 254.456 282.592 254.982 282.431 255.458C282.27 255.928 282.074 256.353 281.845 256.734C281.621 257.116 281.37 257.458 281.09 257.759C280.815 258.068 280.532 258.339 280.24 258.572L279.783 257.995C280.037 257.752 280.283 257.494 280.521 257.222C280.758 256.957 280.972 256.662 281.163 256.337C281.36 256.013 281.526 255.649 281.661 255.244C281.802 254.84 281.899 254.384 281.954 253.876Z" fill="white"/>
<path d="M52.6959 160.179L52.0519 166.223C52.0209 166.514 52.1464 166.8 52.3816 166.974L59.6964 172.388C60.9568 173.424 60.7451 175.171 59.4743 174.473L52.7327 170.692C52.2159 170.403 51.5712 170.736 51.5084 171.325L50.952 176.548C50.9229 176.822 51.0317 177.092 51.2422 177.268L53.0644 178.797C53.8159 179.536 52.6917 180.997 51.5438 180.084L50.0566 178.986C49.9386 178.898 49.7995 178.844 49.6536 178.829L48.557 178.712C48.4349 178.699 48.3115 178.713 48.1957 178.754L46.0717 179.501C45.0725 179.79 44.6363 178.689 45.6772 178.01L47.431 176.865C47.6386 176.729 47.7742 176.507 47.8005 176.261L48.3501 171.102C48.4123 170.517 47.8611 170.057 47.2972 170.223L39.9118 172.389C38.735 172.739 39.1378 170.973 40.1061 170.565L48.4411 166.557C48.6987 166.433 48.8739 166.185 48.9042 165.901L49.5495 159.844C49.7299 158.15 52.8902 158.355 52.6959 160.179Z" fill="white"/>
<path d="M262.784 182.56L262.14 188.604C262.109 188.895 262.234 189.181 262.469 189.355L269.784 194.769C271.045 195.805 270.833 197.553 269.562 196.854L262.821 193.074C262.304 192.784 261.659 193.117 261.596 193.706L261.04 198.93C261.011 199.203 261.12 199.473 261.33 199.649L263.152 201.178C263.904 201.917 262.78 203.378 261.632 202.465L260.144 201.367C260.026 201.28 259.887 201.225 259.742 201.21L258.645 201.093C258.523 201.08 258.399 201.094 258.284 201.135L256.16 201.882C255.16 202.171 254.724 201.07 255.765 200.391L257.519 199.246C257.726 199.11 257.862 198.889 257.888 198.642L258.438 193.483C258.5 192.899 257.949 192.438 257.385 192.604L250 194.77C248.823 195.12 249.226 193.354 250.194 192.946L258.529 188.938C258.787 188.814 258.962 188.566 258.992 188.282L259.637 182.225C259.818 180.531 262.978 180.736 262.784 182.56Z" fill="white"/>
<path fill-rule="evenodd" clip-rule="evenodd" d="M214.606 176.923L98.0731 164.508C96.7134 164.363 95.4937 165.348 95.3489 166.708L93.0758 188.045C92.9309 189.405 93.9158 190.624 95.2755 190.769L211.809 203.184C213.168 203.329 214.388 202.344 214.533 200.984L216.806 179.647C216.951 178.287 215.966 177.068 214.606 176.923ZM98.1606 163.688C96.3476 163.494 94.7214 164.808 94.5282 166.621L92.2551 187.958C92.062 189.771 93.3751 191.397 95.188 191.59L211.721 204.005C213.534 204.198 215.16 202.885 215.354 201.072L217.627 179.735C217.82 177.922 216.507 176.295 214.694 176.102L98.1606 163.688Z" fill="white"/>
</svg>
